<svg width="115" height="83" viewBox="0 0 115 83" fill="none" xmlns="http://www.w3.org/2000/svg">
<g clip-path="url(#clip0_2002_2055)">
<path d="M62.95 13.8501L60.07 16.7401L82.95 39.6201L26.48 39.4301V43.5101L82.99 43.7001L60.49 66.2001L63.37 69.0801L89.33 43.1201C89.52 42.9301 89.67 42.7101 89.77 42.4601C90.09 41.7001 89.91 40.8201 89.33 40.2301L62.95 13.8501Z" fill="white"/>
<path d="M72.9 0H41.47C18.6 0 0 18.6 0 41.47C0 64.34 18.6 82.94 41.47 82.94H72.9C95.77 82.94 114.37 64.34 114.37 41.47C114.37 18.6 95.77 0 72.9 0ZM72.9 78.86H41.47C20.85 78.86 4.08 62.09 4.08 41.47C4.08 20.85 20.85 4.08 41.47 4.08H72.9C93.52 4.08 110.29 20.85 110.29 41.47C110.29 62.09 93.52 78.86 72.9 78.86Z" fill="white"/>
</g>
<defs>
<clipPath id="clip0_2002_2055">
<rect width="114.37" height="82.94" fill="white"/>
</clipPath>
</defs>
</svg>
