<svg width="68" height="50" viewBox="0 0 68 50" fill="none" xmlns="http://www.w3.org/2000/svg">
<g clip-path="url(#clip0_2002_2187)">
<path d="M30.5684 41.6502L32.2826 39.9119L18.6789 26.1175L52.2534 26.2355L52.2534 23.777L18.6606 23.6591L32.0377 10.0944L30.3235 8.35614L14.8892 24.0067C14.779 24.1185 14.6872 24.2551 14.626 24.4041C14.4362 24.8635 14.5403 25.3911 14.8892 25.745L30.5745 41.6502L30.5684 41.6502Z" fill="black"/>
<path d="M24.6544 50L43.3395 50C56.9371 50 68 38.782 68 25C68 11.218 56.9371 1.1629e-06 43.3456 -2.53012e-08L24.6605 -1.65881e-06C11.0629 -2.84754e-06 0.00612979 11.218 0.00612859 25C0.00612738 38.782 11.0629 50 24.6544 50ZM24.6544 2.45841L43.3395 2.45841C55.5963 2.45841 65.5695 12.5714 65.5695 25C65.5695 37.4286 55.6024 47.5416 43.3456 47.5416L24.6605 47.5416C12.4037 47.5416 2.43054 37.4286 2.43054 25C2.43055 12.5714 12.4037 2.45841 24.6605 2.45841L24.6544 2.45841Z" fill="black"/>
</g>
<defs>
<clipPath id="clip0_2002_2187">
<rect width="68" height="50" fill="white" transform="translate(68 50) rotate(-180)"/>
</clipPath>
</defs>
</svg>
