<svg width="68" height="50" viewBox="0 0 68 50" fill="none" xmlns="http://www.w3.org/2000/svg">
<g clip-path="url(#clip0_2002_2194)">
<path d="M37.4315 8.34985L35.7173 10.0881L49.321 23.8825L15.7465 23.7646V26.223L49.3393 26.3409L35.9622 39.9056L37.6764 41.6439L53.1106 25.9933C53.2208 25.8815 53.3127 25.7449 53.3739 25.5959C53.5637 25.1365 53.4596 24.6089 53.1106 24.255L37.4254 8.34985H37.4315Z" fill="black"/>
<path d="M43.3456 0H24.6605C11.0629 0 0 11.218 0 25C0 38.782 11.0629 50 24.6544 50H43.3395C56.9371 50 67.9939 38.782 67.9939 25C67.9939 11.218 56.9371 0 43.3456 0ZM43.3456 47.5416H24.6605C12.4037 47.5416 2.43054 37.4286 2.43054 25C2.43054 12.5714 12.3976 2.45841 24.6544 2.45841H43.3395C55.5963 2.45841 65.5695 12.5714 65.5695 25C65.5695 37.4286 55.5963 47.5416 43.3395 47.5416H43.3456Z" fill="black"/>
</g>
<defs>
<clipPath id="clip0_2002_2194">
<rect width="68" height="50" fill="white"/>
</clipPath>
</defs>
</svg>
