<svg xmlns="http://www.w3.org/2000/svg" xmlns:xlink="http://www.w3.org/1999/xlink" preserveAspectRatio="xMidYMid meet" width="334" height="147" viewBox="0 0 334 147" style="width:100%;height:100%"><defs><animateMotion repeatCount="indefinite" dur="8.2s" begin="0s" xlink:href="#_R_G_L_2_G" fill="freeze" keyTimes="0;0.0569106;1" path="M167 51.5 C167,46.5 167,26.5 167,21.5 C167,21.5 167,21.5 167,21.5 " keyPoints="0;1;1" keySplines="0.333 0 0.667 1;0 0 0 0" calcMode="spline"/><animateTransform repeatCount="indefinite" dur="8.2s" begin="0s" xlink:href="#_R_G_L_2_G" fill="freeze" attributeName="transform" from="0.53187 0.53187" to="0.53187 0.53187" type="scale" additive="sum" keyTimes="0;1" values="0.53187 0.53187;0.53187 0.53187" keySplines="0 0 1 1" calcMode="spline"/><animateTransform repeatCount="indefinite" dur="8.2s" begin="0s" xlink:href="#_R_G_L_2_G" fill="freeze" attributeName="transform" from="-301.5 -38.5" to="-301.5 -38.5" type="translate" additive="sum" keyTimes="0;1" values="-301.5 -38.5;-301.5 -38.5" keySplines="0 0 1 1" calcMode="spline"/><animate attributeType="XML" attributeName="opacity" dur="8s" from="0" to="1" xlink:href="#time_group"/></defs><g id="_R_G"><g id="_R_G_L_2_G"><path id="_R_G_L_2_G_D_0_P_0" fill="#c1c1c1" fill-opacity="1" fill-rule="nonzero" d=" M0.25 57.32 C0.25,54.79 0.82,52.53 1.95,50.52 C3.08,48.52 5.2,46.41 8.3,44.2 C8.3,44.2 11.3,42.05 11.3,42.05 C14.72,39.55 16.5,36.83 16.66,33.88 C16.66,33.88 27.09,33.88 27.09,33.88 C26.98,35.65 26.61,37.3 25.97,38.81 C25.33,40.32 24.43,41.73 23.26,43.04 C22.09,44.36 20.64,45.62 18.92,46.81 C17.07,48.12 15.59,49.29 14.47,50.35 C13.35,51.4 12.54,52.44 12.05,53.47 C11.55,54.5 11.3,55.63 11.3,56.85 C11.3,59.14 12.05,60.95 13.55,62.28 C15.05,63.61 17.18,64.27 19.94,64.27 C22.57,64.27 24.77,63.5 26.56,61.97 C28.34,60.43 29.39,58.4 29.7,55.88 C29.7,55.88 40.84,56.34 40.84,56.34 C40.13,61.63 37.96,65.74 34.31,68.69 C30.67,71.63 25.93,73.1 20.09,73.1 C13.92,73.1 9.07,71.7 5.54,68.9 C2.01,66.1 0.25,62.24 0.25,57.32z    M27.4 27.79 C27.4,27.79 16.11,27.79 16.11,27.79 C16.11,27.79 16.11,17.24 16.11,17.24 C16.11,17.24 27.4,17.24 27.4,17.24 C27.4,17.24 27.4,27.79 27.4,27.79z "/><path id="_R_G_L_2_G_D_1_P_0" fill="#c1c1c1" fill-opacity="1" fill-rule="nonzero" d=" M101.93 31.74 C101.93,36.63 101.12,40.99 99.49,44.82 C97.86,48.65 95.53,51.81 92.48,54.29 C89.43,56.78 85.76,58.47 81.46,59.35 C82.35,61.93 83.59,63.79 85.19,64.94 C86.79,66.08 89.04,66.66 91.93,66.66 C93.55,66.66 95.1,66.53 96.58,66.27 C96.58,66.27 96.5,74.16 96.5,74.16 C93.27,74.89 90.12,75.25 87.05,75.25 C82.8,75.25 79.29,74.07 76.5,71.7 C73.71,69.33 71.48,65.39 69.78,59.9 C64.83,59.43 60.62,58 57.13,55.6 C53.64,53.21 50.97,49.98 49.12,45.93 C47.27,41.89 46.35,37.15 46.35,31.74 C46.35,25.85 47.44,20.81 49.65,16.62 C51.85,12.43 55.02,9.22 59.18,6.99 C63.33,4.76 68.31,3.65 74.12,3.65 C79.95,3.65 84.94,4.78 89.08,7.03 C93.22,9.28 96.4,12.5 98.61,16.7 C100.82,20.89 101.93,25.9 101.93,31.74z  M90.17 31.74 C90.17,25.8 88.77,21.14 85.95,17.77 C83.14,14.4 79.2,12.71 74.12,12.71 C68.96,12.71 64.98,14.39 62.17,17.73 C59.35,21.08 57.95,25.75 57.95,31.74 C57.95,35.75 58.59,39.22 59.88,42.15 C61.17,45.08 63.02,47.33 65.43,48.9 C67.84,50.48 70.71,51.27 74.04,51.27 C79.2,51.27 83.17,49.57 85.97,46.19 C88.77,42.8 90.17,37.99 90.17,31.74z "/><path id="_R_G_L_2_G_D_2_P_0" fill="#c1c1c1" fill-opacity="1" fill-rule="nonzero" d=" M136.15 51.11 C134.69,54.31 132.84,56.64 130.59,58.1 C128.33,59.56 125.66,60.29 122.56,60.29 C118.08,60.29 114.64,58.92 112.24,56.17 C109.85,53.42 108.65,49.39 108.65,44.08 C108.65,44.08 108.65,17.24 108.65,17.24 C108.65,17.24 119.63,17.24 119.63,17.24 C119.63,17.24 119.63,40.95 119.63,40.95 C119.63,44.65 120.25,47.43 121.5,49.29 C122.75,51.16 124.63,52.09 127.13,52.09 C129.78,52.09 131.92,50.95 133.55,48.67 C135.18,46.39 136,43.47 136,39.9 C136,39.9 136,17.24 136,17.24 C136,17.24 146.97,17.24 146.97,17.24 C146.97,17.24 146.97,50.05 146.97,50.05 C146.97,51.85 147,53.54 147.05,55.11 C147.1,56.69 147.18,58.16 147.28,59.51 C147.28,59.51 136.82,59.51 136.82,59.51 C136.66,57.63 136.54,55.99 136.46,54.59 C136.39,53.18 136.35,52.02 136.35,51.11 C136.35,51.11 136.15,51.11 136.15,51.11z "/><path id="_R_G_L_2_G_D_3_P_0" fill="#c1c1c1" fill-opacity="1" fill-rule="nonzero" d=" M165.61 40.49 C165.61,44.6 166.37,47.71 167.89,49.8 C169.42,51.9 171.58,52.95 174.4,52.95 C176.32,52.95 177.9,52.52 179.14,51.68 C180.38,50.83 181.24,49.57 181.74,47.91 C181.74,47.91 192.09,48.81 192.09,48.81 C189.1,56.46 183.02,60.29 173.85,60.29 C167.49,60.29 162.61,58.41 159.2,54.65 C155.79,50.88 154.08,45.39 154.08,38.18 C154.08,31.2 155.81,25.84 159.28,22.09 C162.74,18.34 167.65,16.46 174,16.46 C180.07,16.46 184.71,18.47 187.91,22.5 C191.11,26.52 192.72,32.41 192.72,40.17 C192.72,40.17 192.72,40.49 192.72,40.49 C192.72,40.49 165.61,40.49 165.61,40.49z  M182.09 33.61 C181.88,30.2 181.06,27.64 179.63,25.93 C178.2,24.23 176.27,23.38 173.85,23.38 C171.27,23.38 169.28,24.27 167.89,26.07 C166.5,27.87 165.76,30.38 165.69,33.61 C165.69,33.61 182.09,33.61 182.09,33.61z "/><path id="_R_G_L_2_G_D_4_P_0" fill="#c1c1c1" fill-opacity="1" fill-rule="nonzero" d=" M229.13 40.49 C229.13,44.6 229.89,47.71 231.41,49.8 C232.93,51.9 235.1,52.95 237.91,52.95 C239.84,52.95 241.42,52.52 242.66,51.68 C243.9,50.83 244.76,49.57 245.26,47.91 C245.26,47.91 255.61,48.81 255.61,48.81 C252.62,56.46 246.53,60.29 237.37,60.29 C231.01,60.29 226.13,58.41 222.72,54.65 C219.31,50.88 217.6,45.39 217.6,38.18 C217.6,31.2 219.33,25.84 222.8,22.09 C226.26,18.34 231.17,16.46 237.52,16.46 C243.59,16.46 248.23,18.47 251.43,22.5 C254.63,26.52 256.23,32.41 256.23,40.17 C256.23,40.17 256.23,40.49 256.23,40.49 C256.23,40.49 229.13,40.49 229.13,40.49z  M245.61 33.61 C245.4,30.2 244.58,27.64 243.15,25.93 C241.72,24.23 239.79,23.38 237.37,23.38 C234.79,23.38 232.8,24.27 231.41,26.07 C230.02,27.87 229.28,30.38 229.2,33.61 C229.2,33.61 245.61,33.61 245.61,33.61z "/><path id="_R_G_L_2_G_D_5_P_0" fill="#c1c1c1" fill-opacity="1" fill-rule="nonzero" d=" M298.58 47.17 C298.58,51.25 296.9,54.46 293.56,56.79 C290.21,59.13 285.58,60.29 279.67,60.29 C273.87,60.29 269.42,59.37 266.33,57.54 C263.25,55.7 261.2,52.84 260.18,48.96 C260.18,48.96 269.83,47.52 269.83,47.52 C270.38,49.52 271.32,50.94 272.66,51.77 C274,52.61 276.34,53.02 279.67,53.02 C282.75,53.02 284.99,52.63 286.39,51.85 C287.8,51.07 288.5,49.85 288.5,48.18 C288.5,46.83 287.93,45.75 286.8,44.96 C285.67,44.16 283.75,43.49 281.04,42.95 C278.98,42.53 277.14,42.13 275.51,41.74 C273.89,41.35 272.49,40.96 271.33,40.58 C270.17,40.21 269.23,39.85 268.5,39.51 C266.34,38.44 264.69,37.07 263.56,35.41 C262.43,33.74 261.86,31.68 261.86,29.24 C261.86,25.2 263.42,22.05 266.53,19.8 C269.64,17.55 274.05,16.42 279.75,16.42 C284.78,16.42 288.82,17.4 291.88,19.35 C294.94,21.31 296.85,24.13 297.6,27.83 C297.6,27.83 287.88,28.85 287.88,28.85 C287.56,27.13 286.8,25.84 285.57,25 C284.35,24.15 282.41,23.73 279.75,23.73 C277.15,23.73 275.19,24.06 273.89,24.72 C272.59,25.39 271.94,26.5 271.94,28.06 C271.94,29.29 272.44,30.26 273.44,30.97 C274.44,31.69 276.13,32.28 278.5,32.75 C281.81,33.43 284.74,34.12 287.31,34.84 C289.87,35.56 291.94,36.41 293.5,37.4 C295.04,38.39 296.27,39.66 297.19,41.21 C298.12,42.76 298.58,44.74 298.58,47.17z "/><path id="_R_G_L_2_G_D_6_P_0" fill="#c1c1c1" fill-opacity="1" fill-rule="nonzero" d=" M345.85 38.18 C345.85,45.24 344.43,50.69 341.61,54.53 C338.78,58.37 334.79,60.29 329.64,60.29 C323.52,60.29 319.25,57.79 316.82,52.79 C316.82,52.79 316.59,52.79 316.59,52.79 C316.75,53.57 316.82,55.94 316.82,59.9 C316.82,59.9 316.82,76.11 316.82,76.11 C316.82,76.11 305.85,76.11 305.85,76.11 C305.85,76.11 305.85,26.97 305.85,26.97 C305.85,24.96 305.82,23.15 305.77,21.54 C305.72,19.92 305.64,18.49 305.53,17.24 C305.53,17.24 316.2,17.24 316.2,17.24 C316.3,17.55 316.39,18.08 316.45,18.82 C316.52,19.57 316.57,20.41 316.61,21.34 C316.65,22.28 316.67,23.21 316.67,24.12 C316.67,24.12 316.82,24.12 316.82,24.12 C318.05,21.51 319.79,19.57 322.06,18.28 C324.32,16.99 327.08,16.34 330.34,16.34 C335.26,16.34 339.08,18.24 341.79,22.03 C344.49,25.82 345.85,31.2 345.85,38.18z  M334.4 38.18 C334.4,33.44 333.68,29.89 332.23,27.52 C330.79,25.15 328.61,23.96 325.69,23.96 C322.77,23.96 320.54,25.24 318.99,27.79 C317.44,30.34 316.67,33.91 316.67,38.49 C316.67,43.05 317.44,46.57 318.99,49.06 C320.54,51.55 322.75,52.79 325.61,52.79 C328.55,52.79 330.76,51.57 332.21,49.14 C333.67,46.7 334.4,43.05 334.4,38.18z "/><path id="_R_G_L_2_G_D_7_P_0" fill="#c1c1c1" fill-opacity="1" fill-rule="nonzero" d=" M362.18 40.49 C362.18,44.6 362.94,47.71 364.46,49.8 C365.99,51.9 368.15,52.95 370.97,52.95 C372.89,52.95 374.47,52.52 375.71,51.68 C376.95,50.83 377.81,49.57 378.31,47.91 C378.31,47.91 388.66,48.81 388.66,48.81 C385.67,56.46 379.59,60.29 370.42,60.29 C364.06,60.29 359.18,58.41 355.77,54.65 C352.36,50.88 350.65,45.39 350.65,38.18 C350.65,31.2 352.39,25.84 355.85,22.09 C359.31,18.34 364.22,16.46 370.58,16.46 C376.64,16.46 381.28,18.47 384.48,22.5 C387.68,26.52 389.29,32.41 389.29,40.17 C389.29,40.17 389.29,40.49 389.29,40.49 C389.29,40.49 362.18,40.49 362.18,40.49z  M378.66 33.61 C378.45,30.2 377.63,27.64 376.2,25.93 C374.77,24.23 372.84,23.38 370.42,23.38 C367.84,23.38 365.85,24.27 364.46,26.07 C363.07,27.87 362.33,30.38 362.26,33.61 C362.26,33.61 378.66,33.61 378.66,33.61z "/><path id="_R_G_L_2_G_D_8_P_0" fill="#c1c1c1" fill-opacity="1" fill-rule="nonzero" d=" M406.98 38.77 C406.98,38.77 406.98,59.51 406.98,59.51 C406.98,59.51 396.01,59.51 396.01,59.51 C396.01,59.51 396.01,27.16 396.01,27.16 C396.01,24.85 395.97,22.91 395.91,21.36 C395.84,19.82 395.77,18.44 395.69,17.24 C395.69,17.24 406.16,17.24 406.16,17.24 C406.21,17.48 406.27,18 406.32,18.81 C406.37,19.61 406.42,20.52 406.48,21.52 C406.53,22.52 406.57,23.47 406.61,24.35 C406.65,25.24 406.67,25.88 406.67,26.27 C406.67,26.27 406.83,26.27 406.83,26.27 C407.87,23.35 408.82,21.25 409.68,19.98 C410.51,18.75 411.5,17.86 412.65,17.28 C413.79,16.71 415.23,16.42 416.94,16.42 C418.35,16.42 419.48,16.62 420.34,17.01 C420.34,17.01 420.34,26.19 420.34,26.19 C418.6,25.8 417.04,25.6 415.66,25.6 C412.92,25.6 410.79,26.71 409.27,28.92 C407.74,31.14 406.98,34.42 406.98,38.77z "/><path id="_R_G_L_2_G_D_9_P_0" fill="#c1c1c1" fill-opacity="1" fill-rule="nonzero" d=" M435.3 60.29 C431.22,60.29 428.02,59.18 425.73,56.95 C423.44,54.72 422.3,51.59 422.3,47.56 C422.3,43.18 423.72,39.86 426.57,37.59 C429.43,35.33 433.56,34.14 438.98,34.04 C438.98,34.04 448.08,33.88 448.08,33.88 C448.08,33.88 448.08,31.73 448.08,31.73 C448.08,28.97 447.6,26.92 446.63,25.58 C445.67,24.24 444.09,23.57 441.91,23.57 C439.87,23.57 438.38,24.03 437.43,24.96 C436.48,25.88 435.89,27.41 435.66,29.55 C435.66,29.55 424.21,29 424.21,29 C425.64,20.64 431.7,16.46 442.37,16.46 C447.71,16.46 451.83,17.78 454.72,20.41 C457.61,23.04 459.05,26.77 459.05,31.62 C459.05,31.62 459.05,47.01 459.05,47.01 C459.05,49.38 459.32,51.01 459.85,51.91 C460.39,52.81 461.28,53.26 462.53,53.26 C463.36,53.26 464.17,53.18 464.95,53.02 C464.95,53.02 464.95,58.96 464.95,58.96 C463.6,59.3 462.44,59.55 461.48,59.72 C460.51,59.89 459.33,59.98 457.92,59.98 C455.16,59.98 453.12,59.3 451.81,57.95 C450.49,56.59 449.7,54.6 449.44,51.97 C449.44,51.97 449.21,51.97 449.21,51.97 C447.67,54.73 445.75,56.81 443.43,58.2 C441.11,59.59 438.4,60.29 435.3,60.29z  M448.08 39.94 C448.08,39.94 442.45,40.02 442.45,40.02 C439.87,40.15 438.06,40.42 437.02,40.84 C435.95,41.31 435.14,42.01 434.58,42.95 C434.02,43.88 433.74,45.13 433.74,46.7 C433.74,48.7 434.2,50.19 435.13,51.17 C436.05,52.15 437.28,52.63 438.82,52.63 C440.54,52.63 442.11,52.17 443.55,51.23 C444.95,50.29 446.06,49 446.87,47.34 C447.67,45.69 448.08,43.94 448.08,42.09 C448.08,42.09 448.08,39.94 448.08,39.94z "/><path id="_R_G_L_2_G_D_10_P_0" fill="#c1c1c1" fill-opacity="1" fill-rule="nonzero" d=" M479.41 38.77 C479.41,38.77 479.41,59.51 479.41,59.51 C479.41,59.51 468.43,59.51 468.43,59.51 C468.43,59.51 468.43,27.16 468.43,27.16 C468.43,24.85 468.4,22.91 468.33,21.36 C468.27,19.82 468.2,18.44 468.12,17.24 C468.12,17.24 478.59,17.24 478.59,17.24 C478.64,17.48 478.69,18 478.74,18.81 C478.8,19.61 478.85,20.52 478.9,21.52 C478.95,22.52 479,23.47 479.04,24.35 C479.08,25.24 479.1,25.88 479.1,26.27 C479.1,26.27 479.25,26.27 479.25,26.27 C480.29,23.35 481.24,21.25 482.1,19.98 C482.94,18.75 483.93,17.86 485.07,17.28 C486.22,16.71 487.65,16.42 489.37,16.42 C490.77,16.42 491.91,16.62 492.77,17.01 C492.77,17.01 492.77,26.19 492.77,26.19 C491.02,25.8 489.46,25.6 488.08,25.6 C485.34,25.6 483.22,26.71 481.69,28.92 C480.17,31.14 479.41,34.42 479.41,38.77z "/><path id="_R_G_L_2_G_D_11_P_0" fill="#c1c1c1" fill-opacity="1" fill-rule="nonzero" d=" M545.97 59.51 C545.92,59.25 545.84,58.7 545.74,57.87 C545.63,57.03 545.55,56.12 545.49,55.13 C545.42,54.14 545.39,53.31 545.39,52.63 C545.39,52.63 545.23,52.63 545.23,52.63 C544.03,55.19 542.31,57.1 540.08,58.38 C537.84,59.65 535.05,60.29 531.72,60.29 C526.79,60.29 522.99,58.37 520.31,54.53 C517.63,50.69 516.29,45.32 516.29,38.41 C516.29,31.41 517.7,26 520.53,22.18 C523.35,18.37 527.35,16.46 532.54,16.46 C535.53,16.46 538.12,17.09 540.29,18.34 C542.46,19.59 544.14,21.45 545.31,23.92 C545.31,23.92 545.39,23.92 545.39,23.92 C545.39,23.92 545.31,16.97 545.31,16.97 C545.31,16.97 545.31,1.54 545.31,1.54 C545.31,1.54 556.29,1.54 556.29,1.54 C556.29,1.54 556.29,50.29 556.29,50.29 C556.29,51.59 556.31,53.01 556.37,54.55 C556.42,56.08 556.49,57.74 556.6,59.51 C556.6,59.51 545.97,59.51 545.97,59.51z  M527.73 38.41 C527.73,43.21 528.45,46.8 529.9,49.2 C531.35,51.59 533.5,52.79 536.37,52.79 C539.26,52.79 541.49,51.52 543.08,48.98 C544.67,46.44 545.47,42.83 545.47,38.14 C545.47,33.58 544.7,30.07 543.18,27.61 C541.66,25.15 539.41,23.92 536.44,23.92 C533.5,23.92 531.31,25.11 529.88,27.5 C528.45,29.88 527.73,33.52 527.73,38.41z "/><path id="_R_G_L_2_G_D_12_P_0" fill="#c1c1c1" fill-opacity="1" fill-rule="nonzero" d=" M574.92 40.49 C574.92,44.6 575.68,47.71 577.2,49.8 C578.73,51.9 580.9,52.95 583.71,52.95 C585.64,52.95 587.22,52.52 588.45,51.68 C589.69,50.83 590.56,49.57 591.05,47.91 C591.05,47.91 601.41,48.81 601.41,48.81 C598.41,56.46 592.33,60.29 583.16,60.29 C576.81,60.29 571.92,58.41 568.51,54.65 C565.1,50.88 563.4,45.39 563.4,38.18 C563.4,31.2 565.13,25.84 568.59,22.09 C572.05,18.34 576.96,16.46 583.32,16.46 C589.39,16.46 594.02,18.47 597.22,22.5 C600.43,26.52 602.03,32.41 602.03,40.17 C602.03,40.17 602.03,40.49 602.03,40.49 C602.03,40.49 574.92,40.49 574.92,40.49z  M591.41 33.61 C591.2,30.2 590.38,27.64 588.94,25.93 C587.51,24.23 585.58,23.38 583.16,23.38 C580.58,23.38 578.6,24.27 577.2,26.07 C575.81,27.87 575.08,30.38 575,33.61 C575,33.61 591.41,33.61 591.41,33.61z "/><path id="_R_G_L_2_G_D_13_P_0" fill="#c1c1c1" fill-opacity="1" fill-rule="nonzero" d=" M185.48 1.93 C185.48,1.93 172.2,12.71 172.2,12.71 C172.2,12.71 165.55,12.71 165.55,12.71 C165.55,12.71 165.55,11.5 165.55,11.5 C165.55,11.5 175.4,0.25 175.4,0.25 C175.4,0.25 185.48,0.25 185.48,0.25 C185.48,0.25 185.48,1.93 185.48,1.93z "/></g><g id="_R_G_L_1_G" transform=" translate(167, 91) scale(0.53187, 0.53187) translate(-316.5, -120.5)"><path id="_R_G_L_1_G_D_0_P_0" fill="#ffffff" fill-opacity="1" fill-rule="nonzero" d=" M0.25 240.59 C0.25,240.59 631.94,240.59 631.94,240.59 C631.94,240.59 631.94,0.25 631.94,0.25 C631.94,0.25 0.25,0.25 0.25,0.25 C0.25,0.25 0.25,240.59 0.25,240.59z "/></g><g id="_R_G_L_0_G" transform=" translate(167, 85.5) scale(0.53187, 0.53187) translate(-301.5, -103)"><path id="_R_G_L_0_G_D_0_P_0" fill="#000000" fill-opacity="1" fill-rule="nonzero" d=" M0.25 56.74 C0.25,54.21 0.82,51.94 1.95,49.94 C3.08,47.93 5.2,45.82 8.3,43.61 C8.3,43.61 11.31,41.46 11.31,41.46 C14.72,38.96 16.5,36.24 16.66,33.3 C16.66,33.3 27.09,33.3 27.09,33.3 C26.98,35.07 26.61,36.71 25.97,38.22 C25.33,39.73 24.43,41.14 23.26,42.46 C22.09,43.77 20.64,45.03 18.92,46.23 C17.07,47.53 15.59,48.71 14.47,49.76 C13.35,50.82 12.54,51.86 12.05,52.89 C11.55,53.92 11.31,55.04 11.31,56.27 C11.31,58.56 12.05,60.37 13.55,61.7 C15.05,63.02 17.18,63.69 19.94,63.69 C22.57,63.69 24.78,62.92 26.56,61.38 C28.34,59.85 29.39,57.82 29.7,55.29 C29.7,55.29 40.84,55.76 40.84,55.76 C40.13,61.04 37.96,65.16 34.31,68.1 C30.67,71.04 25.93,72.52 20.09,72.52 C13.92,72.52 9.07,71.12 5.54,68.32 C2.01,65.52 0.25,61.66 0.25,56.74z    M27.4 27.2 C27.4,27.2 16.11,27.2 16.11,27.2 C16.11,27.2 16.11,16.66 16.11,16.66 C16.11,16.66 27.4,16.66 27.4,16.66 C27.4,16.66 27.4,27.2 27.4,27.2z "/><path id="_R_G_L_0_G_D_1_P_0" fill="#000000" fill-opacity="1" fill-rule="nonzero" d=" M101.93 31.15 C101.93,36.04 101.12,40.41 99.49,44.24 C97.86,48.06 95.53,51.22 92.48,53.71 C89.43,56.19 85.76,57.88 81.46,58.77 C82.35,61.34 83.59,63.21 85.19,64.35 C86.79,65.5 89.04,66.07 91.93,66.07 C93.55,66.07 95.1,65.94 96.58,65.68 C96.58,65.68 96.5,73.57 96.5,73.57 C93.27,74.3 90.12,74.66 87.05,74.66 C82.8,74.66 79.29,73.48 76.5,71.11 C73.71,68.74 71.48,64.81 69.78,59.31 C64.83,58.84 60.62,57.41 57.13,55.02 C53.64,52.62 50.97,49.4 49.12,45.35 C47.27,41.3 46.35,36.57 46.35,31.15 C46.35,25.26 47.44,20.22 49.65,16.03 C51.85,11.84 55.02,8.63 59.18,6.4 C63.33,4.18 68.31,3.06 74.12,3.06 C79.95,3.06 84.94,4.19 89.08,6.44 C93.22,8.7 96.4,11.92 98.61,16.11 C100.82,20.3 101.93,25.32 101.93,31.15z  M90.17 31.15 C90.17,25.21 88.77,20.56 85.96,17.18 C83.14,13.81 79.2,12.13 74.12,12.13 C68.96,12.13 64.98,13.8 62.17,17.14 C59.35,20.49 57.95,25.16 57.95,31.15 C57.95,35.16 58.59,38.63 59.88,41.56 C61.17,44.49 63.02,46.74 65.43,48.32 C67.84,49.89 70.71,50.68 74.04,50.68 C79.2,50.68 83.18,48.99 85.98,45.6 C88.77,42.22 90.17,37.4 90.17,31.15z "/><path id="_R_G_L_0_G_D_2_P_0" fill="#000000" fill-opacity="1" fill-rule="nonzero" d=" M136.15 50.52 C134.69,53.73 132.84,56.06 130.59,57.52 C128.33,58.97 125.66,59.7 122.56,59.7 C118.08,59.7 114.64,58.33 112.25,55.58 C109.85,52.84 108.65,48.8 108.65,43.49 C108.65,43.49 108.65,16.66 108.65,16.66 C108.65,16.66 119.63,16.66 119.63,16.66 C119.63,16.66 119.63,40.37 119.63,40.37 C119.63,44.07 120.25,46.85 121.5,48.71 C122.75,50.57 124.63,51.5 127.13,51.5 C129.78,51.5 131.93,50.36 133.55,48.08 C135.18,45.8 136,42.88 136,39.31 C136,39.31 136,16.66 136,16.66 C136,16.66 146.97,16.66 146.97,16.66 C146.97,16.66 146.97,49.47 146.97,49.47 C146.97,51.27 147,52.95 147.05,54.53 C147.1,56.1 147.18,57.57 147.28,58.92 C147.28,58.92 136.82,58.92 136.82,58.92 C136.66,57.05 136.54,55.41 136.46,54 C136.39,52.59 136.35,51.44 136.35,50.52 C136.35,50.52 136.15,50.52 136.15,50.52z "/><path id="_R_G_L_0_G_D_3_P_0" fill="#000000" fill-opacity="1" fill-rule="nonzero" d=" M165.61 39.9 C165.61,44.02 166.37,47.12 167.89,49.22 C169.42,51.31 171.58,52.36 174.4,52.36 C176.32,52.36 177.9,51.94 179.14,51.09 C180.38,50.24 181.24,48.99 181.74,47.32 C181.74,47.32 192.09,48.22 192.09,48.22 C189.1,55.88 183.02,59.7 173.85,59.7 C167.49,59.7 162.61,57.82 159.2,54.06 C155.79,50.3 154.08,44.81 154.08,37.59 C154.08,30.62 155.81,25.25 159.28,21.5 C162.74,17.75 167.65,15.88 174.01,15.88 C180.07,15.88 184.71,17.89 187.91,21.91 C191.11,25.94 192.72,31.83 192.72,39.59 C192.72,39.59 192.72,39.9 192.72,39.9 C192.72,39.9 165.61,39.9 165.61,39.9z  M182.09 33.03 C181.88,29.61 181.06,27.05 179.63,25.35 C178.2,23.64 176.27,22.79 173.85,22.79 C171.27,22.79 169.28,23.69 167.89,25.49 C166.5,27.28 165.76,29.8 165.69,33.03 C165.69,33.03 182.09,33.03 182.09,33.03z  M187.21 1.93 C187.21,1.93 173.93,12.71 173.93,12.71 C173.93,12.71 167.29,12.71 167.29,12.71 C167.29,12.71 167.29,11.5 167.29,11.5 C167.29,11.5 177.13,0.25 177.13,0.25 C177.13,0.25 187.21,0.25 187.21,0.25 C187.21,0.25 187.21,1.93 187.21,1.93z "/><path id="_R_G_L_0_G_D_4_P_0" fill="#000000" fill-opacity="1" fill-rule="nonzero" d=" M229.13 39.9 C229.13,44.01 229.89,47.12 231.41,49.22 C232.93,51.31 235.1,52.36 237.92,52.36 C239.84,52.36 241.42,51.94 242.66,51.09 C243.9,50.25 244.76,48.99 245.26,47.32 C245.26,47.32 255.61,48.22 255.61,48.22 C252.61,55.88 246.53,59.7 237.37,59.7 C231.01,59.7 226.13,57.82 222.72,54.06 C219.31,50.3 217.6,44.81 217.6,37.59 C217.6,30.62 219.33,25.25 222.8,21.5 C226.26,17.75 231.17,15.88 237.52,15.88 C243.59,15.88 248.23,17.89 251.43,21.91 C254.63,25.93 256.23,31.83 256.23,39.59 C256.23,39.59 256.23,39.9 256.23,39.9 C256.23,39.9 229.13,39.9 229.13,39.9z  M245.61 33.02 C245.4,29.61 244.58,27.05 243.15,25.35 C241.72,23.64 239.79,22.79 237.37,22.79 C234.79,22.79 232.8,23.69 231.41,25.49 C230.02,27.28 229.28,29.8 229.2,33.02 C229.2,33.02 245.61,33.02 245.61,33.02z "/><path id="_R_G_L_0_G_D_5_P_0" fill="#000000" fill-opacity="1" fill-rule="nonzero" d=" M298.58 46.58 C298.58,50.67 296.91,53.88 293.56,56.21 C290.21,58.54 285.58,59.7 279.67,59.7 C273.86,59.7 269.42,58.79 266.33,56.95 C263.25,55.11 261.2,52.26 260.18,48.38 C260.18,48.38 269.83,46.93 269.83,46.93 C270.38,48.94 271.32,50.36 272.66,51.19 C274,52.02 276.34,52.44 279.67,52.44 C282.75,52.44 284.99,52.05 286.39,51.27 C287.8,50.49 288.5,49.26 288.5,47.59 C288.5,46.24 287.93,45.17 286.8,44.37 C285.67,43.58 283.75,42.91 281.04,42.36 C278.98,41.94 277.14,41.54 275.51,41.15 C273.89,40.76 272.49,40.38 271.33,40 C270.17,39.62 269.23,39.26 268.5,38.92 C266.34,37.86 264.69,36.49 263.56,34.82 C262.43,33.15 261.86,31.1 261.86,28.65 C261.86,24.61 263.42,21.47 266.53,19.22 C269.64,16.96 274.05,15.84 279.75,15.84 C284.78,15.84 288.82,16.81 291.88,18.77 C294.94,20.72 296.85,23.55 297.6,27.24 C297.6,27.24 287.88,28.26 287.88,28.26 C287.56,26.54 286.79,25.26 285.57,24.41 C284.35,23.56 282.41,23.14 279.75,23.14 C277.15,23.14 275.19,23.47 273.89,24.14 C272.59,24.8 271.94,25.91 271.94,27.48 C271.94,28.7 272.44,29.67 273.44,30.39 C274.45,31.1 276.13,31.7 278.5,32.17 C281.81,32.84 284.74,33.54 287.31,34.25 C289.88,34.97 291.94,35.82 293.5,36.81 C295.04,37.8 296.27,39.07 297.19,40.62 C298.12,42.17 298.58,44.16 298.58,46.58z "/><path id="_R_G_L_0_G_D_6_P_0" fill="#000000" fill-opacity="1" fill-rule="nonzero" d=" M345.85 37.59 C345.85,44.65 344.43,50.1 341.61,53.94 C338.78,57.78 334.79,59.7 329.64,59.7 C323.52,59.7 319.25,57.2 316.82,52.2 C316.82,52.2 316.59,52.2 316.59,52.2 C316.75,52.99 316.82,55.36 316.82,59.31 C316.82,59.31 316.82,75.52 316.82,75.52 C316.82,75.52 305.85,75.52 305.85,75.52 C305.85,75.52 305.85,26.38 305.85,26.38 C305.85,24.38 305.82,22.57 305.77,20.95 C305.72,19.34 305.64,17.91 305.53,16.66 C305.53,16.66 316.2,16.66 316.2,16.66 C316.3,16.97 316.39,17.5 316.45,18.24 C316.52,18.98 316.57,19.82 316.61,20.76 C316.65,21.7 316.67,22.62 316.67,23.53 C316.67,23.53 316.82,23.53 316.82,23.53 C318.05,20.93 319.79,18.98 322.06,17.69 C324.32,16.4 327.08,15.76 330.34,15.76 C335.26,15.76 339.08,17.65 341.79,21.44 C344.49,25.23 345.85,30.62 345.85,37.59z  M334.4 37.59 C334.4,32.85 333.68,29.3 332.23,26.93 C330.79,24.56 328.61,23.38 325.69,23.38 C322.77,23.38 320.54,24.65 318.99,27.2 C317.44,29.76 316.67,33.32 316.67,37.91 C316.67,42.46 317.44,45.99 318.99,48.47 C320.54,50.96 322.75,52.2 325.61,52.2 C328.55,52.2 330.76,50.99 332.21,48.55 C333.67,46.12 334.4,42.46 334.4,37.59z "/><path id="_R_G_L_0_G_D_7_P_0" fill="#000000" fill-opacity="1" fill-rule="nonzero" d=" M362.18 39.9 C362.18,44.01 362.94,47.12 364.46,49.22 C365.99,51.31 368.15,52.36 370.97,52.36 C372.89,52.36 374.48,51.94 375.71,51.09 C376.95,50.25 377.82,48.99 378.31,47.32 C378.31,47.32 388.66,48.22 388.66,48.22 C385.67,55.88 379.59,59.7 370.42,59.7 C364.07,59.7 359.18,57.82 355.77,54.06 C352.36,50.3 350.65,44.81 350.65,37.59 C350.65,30.62 352.39,25.25 355.85,21.5 C359.31,17.75 364.22,15.88 370.58,15.88 C376.64,15.88 381.28,17.89 384.48,21.91 C387.69,25.93 389.29,31.83 389.29,39.59 C389.29,39.59 389.29,39.9 389.29,39.9 C389.29,39.9 362.18,39.9 362.18,39.9z  M378.66 33.02 C378.45,29.61 377.63,27.05 376.2,25.35 C374.77,23.64 372.84,22.79 370.42,22.79 C367.84,22.79 365.86,23.69 364.46,25.49 C363.07,27.28 362.33,29.8 362.26,33.02 C362.26,33.02 378.66,33.02 378.66,33.02z "/><path id="_R_G_L_0_G_D_8_P_0" fill="#000000" fill-opacity="1" fill-rule="nonzero" d=" M406.98 38.18 C406.98,38.18 406.98,58.92 406.98,58.92 C406.98,58.92 396.01,58.92 396.01,58.92 C396.01,58.92 396.01,26.58 396.01,26.58 C396.01,24.26 395.97,22.33 395.91,20.78 C395.84,19.23 395.77,17.85 395.69,16.66 C395.69,16.66 406.16,16.66 406.16,16.66 C406.22,16.89 406.27,17.41 406.32,18.22 C406.37,19.03 406.42,19.93 406.48,20.93 C406.53,21.94 406.57,22.88 406.61,23.77 C406.65,24.65 406.67,25.29 406.67,25.68 C406.67,25.68 406.83,25.68 406.83,25.68 C407.87,22.76 408.82,20.67 409.68,19.39 C410.51,18.17 411.5,17.27 412.65,16.7 C413.79,16.12 415.23,15.84 416.94,15.84 C418.35,15.84 419.48,16.03 420.34,16.42 C420.34,16.42 420.34,25.6 420.34,25.6 C418.6,25.21 417.04,25.02 415.66,25.02 C412.92,25.02 410.79,26.12 409.27,28.34 C407.74,30.55 406.98,33.83 406.98,38.18z "/><path id="_R_G_L_0_G_D_9_P_0" fill="#000000" fill-opacity="1" fill-rule="nonzero" d=" M435.31 59.7 C431.22,59.7 428.03,58.59 425.73,56.36 C423.44,54.14 422.3,51.01 422.3,46.97 C422.3,42.59 423.72,39.27 426.57,37.01 C429.43,34.74 433.56,33.56 438.98,33.45 C438.98,33.45 448.08,33.3 448.08,33.3 C448.08,33.3 448.08,31.15 448.08,31.15 C448.08,28.39 447.6,26.34 446.63,25 C445.67,23.66 444.09,22.98 441.91,22.98 C439.88,22.98 438.38,23.45 437.43,24.37 C436.48,25.3 435.89,26.83 435.66,28.96 C435.66,28.96 424.21,28.41 424.21,28.41 C425.64,20.05 431.7,15.87 442.38,15.87 C447.71,15.87 451.83,17.19 454.72,19.82 C457.61,22.45 459.06,26.19 459.06,31.03 C459.06,31.03 459.06,46.42 459.06,46.42 C459.06,48.79 459.32,50.43 459.86,51.33 C460.39,52.22 461.28,52.67 462.53,52.67 C463.36,52.67 464.17,52.59 464.95,52.44 C464.95,52.44 464.95,58.38 464.95,58.38 C463.6,58.71 462.44,58.97 461.48,59.14 C460.51,59.31 459.33,59.39 457.92,59.39 C455.16,59.39 453.12,58.71 451.81,57.36 C450.49,56.01 449.71,54.01 449.45,51.38 C449.45,51.38 449.21,51.38 449.21,51.38 C447.67,54.14 445.75,56.22 443.43,57.61 C441.11,59.01 438.4,59.7 435.31,59.7z  M448.08 39.35 C448.08,39.35 442.45,39.43 442.45,39.43 C439.88,39.56 438.06,39.83 437.02,40.25 C435.96,40.72 435.14,41.42 434.58,42.36 C434.02,43.3 433.74,44.55 433.74,46.11 C433.74,48.12 434.2,49.61 435.13,50.58 C436.05,51.56 437.28,52.05 438.82,52.05 C440.54,52.05 442.11,51.58 443.55,50.64 C444.95,49.7 446.06,48.41 446.87,46.75 C447.67,45.1 448.08,43.35 448.08,41.5 C448.08,41.5 448.08,39.35 448.08,39.35z "/><path id="_R_G_L_0_G_D_10_P_0" fill="#000000" fill-opacity="1" fill-rule="nonzero" d=" M479.41 38.18 C479.41,38.18 479.41,58.92 479.41,58.92 C479.41,58.92 468.43,58.92 468.43,58.92 C468.43,58.92 468.43,26.58 468.43,26.58 C468.43,24.26 468.4,22.33 468.34,20.78 C468.27,19.23 468.2,17.85 468.12,16.66 C468.12,16.66 478.59,16.66 478.59,16.66 C478.64,16.89 478.69,17.41 478.75,18.22 C478.8,19.03 478.85,19.93 478.9,20.93 C478.95,21.94 479,22.88 479.04,23.77 C479.08,24.65 479.1,25.29 479.1,25.68 C479.1,25.68 479.25,25.68 479.25,25.68 C480.29,22.76 481.25,20.67 482.1,19.39 C482.94,18.17 483.93,17.27 485.07,16.7 C486.22,16.12 487.65,15.84 489.37,15.84 C490.78,15.84 491.91,16.03 492.77,16.42 C492.77,16.42 492.77,25.6 492.77,25.6 C491.02,25.21 489.46,25.02 488.08,25.02 C485.35,25.02 483.22,26.12 481.69,28.34 C480.17,30.55 479.41,33.83 479.41,38.18z "/><path id="_R_G_L_0_G_D_11_P_0" fill="#000000" fill-opacity="1" fill-rule="nonzero" d=" M545.97 58.92 C545.92,58.66 545.84,58.11 545.74,57.28 C545.64,56.45 545.55,55.54 545.49,54.55 C545.42,53.56 545.39,52.72 545.39,52.05 C545.39,52.05 545.23,52.05 545.23,52.05 C544.03,54.6 542.31,56.51 540.08,57.79 C537.84,59.06 535.05,59.7 531.72,59.7 C526.79,59.7 522.99,57.78 520.31,53.94 C517.63,50.1 516.29,44.73 516.29,37.83 C516.29,30.82 517.7,25.41 520.53,21.6 C523.35,17.78 527.35,15.88 532.54,15.88 C535.53,15.88 538.12,16.5 540.29,17.75 C542.46,19 544.14,20.86 545.31,23.34 C545.31,23.34 545.39,23.34 545.39,23.34 C545.39,23.34 545.31,16.38 545.31,16.38 C545.31,16.38 545.31,0.95 545.31,0.95 C545.31,0.95 556.29,0.95 556.29,0.95 C556.29,0.95 556.29,49.7 556.29,49.7 C556.29,51.01 556.31,52.43 556.37,53.96 C556.42,55.5 556.5,57.15 556.6,58.92 C556.6,58.92 545.97,58.92 545.97,58.92z  M527.73 37.83 C527.73,42.62 528.45,46.21 529.9,48.61 C531.35,51.01 533.5,52.2 536.37,52.2 C539.26,52.2 541.5,50.93 543.08,48.39 C544.67,45.86 545.47,42.24 545.47,37.56 C545.47,33 544.7,29.49 543.18,27.03 C541.66,24.57 539.41,23.34 536.44,23.34 C533.5,23.34 531.31,24.53 529.88,26.91 C528.45,29.29 527.73,32.93 527.73,37.83z "/><path id="_R_G_L_0_G_D_12_P_0" fill="#000000" fill-opacity="1" fill-rule="nonzero" d=" M574.92 39.9 C574.92,44.01 575.68,47.12 577.2,49.22 C578.73,51.31 580.9,52.36 583.71,52.36 C585.64,52.36 587.22,51.94 588.45,51.09 C589.69,50.25 590.56,48.99 591.05,47.32 C591.05,47.32 601.41,48.22 601.41,48.22 C598.41,55.88 592.33,59.7 583.16,59.7 C576.81,59.7 571.92,57.82 568.51,54.06 C565.1,50.3 563.4,44.81 563.4,37.59 C563.4,30.62 565.13,25.25 568.59,21.5 C572.05,17.75 576.96,15.88 583.32,15.88 C589.39,15.88 594.02,17.89 597.22,21.91 C600.43,25.93 602.03,31.83 602.03,39.59 C602.03,39.59 602.03,39.9 602.03,39.9 C602.03,39.9 574.92,39.9 574.92,39.9z  M591.41 33.02 C591.2,29.61 590.38,27.05 588.94,25.35 C587.51,23.64 585.58,22.79 583.16,22.79 C580.58,22.79 578.6,23.69 577.2,25.49 C575.81,27.28 575.08,29.8 575,33.02 C575,33.02 591.41,33.02 591.41,33.02z "/><path id="_R_G_L_0_G_D_13_P_0" fill="#000000" fill-opacity="1" fill-rule="nonzero" d=" M28.26 123.52 C26.8,126.73 24.95,129.06 22.69,130.52 C20.44,131.97 17.76,132.7 14.66,132.7 C10.18,132.7 6.75,131.33 4.35,128.58 C1.95,125.84 0.76,121.8 0.76,116.49 C0.76,116.49 0.76,89.66 0.76,89.66 C0.76,89.66 11.74,89.66 11.74,89.66 C11.74,89.66 11.74,113.37 11.74,113.37 C11.74,117.07 12.36,119.85 13.61,121.71 C14.86,123.57 16.74,124.5 19.24,124.5 C21.89,124.5 24.03,123.36 25.66,121.08 C27.29,118.8 28.1,115.88 28.1,112.31 C28.1,112.31 28.1,89.66 28.1,89.66 C28.1,89.66 39.08,89.66 39.08,89.66 C39.08,89.66 39.08,122.47 39.08,122.47 C39.08,124.27 39.1,125.95 39.16,127.53 C39.21,129.1 39.29,130.57 39.39,131.92 C39.39,131.92 28.92,131.92 28.92,131.92 C28.77,130.05 28.65,128.41 28.57,127 C28.49,125.59 28.45,124.44 28.45,123.52 C28.45,123.52 28.26,123.52 28.26,123.52z "/><path id="_R_G_L_0_G_D_14_P_0" fill="#000000" fill-opacity="1" fill-rule="nonzero" d=" M59.63 109.27 C59.63,109.27 59.63,131.92 59.63,131.92 C59.63,131.92 48.65,131.92 48.65,131.92 C48.65,131.92 48.65,99.11 48.65,99.11 C48.65,96.84 48.62,94.99 48.55,93.54 C48.49,92.1 48.42,90.8 48.34,89.66 C48.34,89.66 58.81,89.66 58.81,89.66 C58.86,89.97 58.92,90.71 59,91.86 C59.08,93.02 59.15,94.21 59.22,95.42 C59.28,96.63 59.31,97.51 59.31,98.06 C59.31,98.06 59.47,98.06 59.47,98.06 C60.95,94.83 62.82,92.48 65.06,91.02 C67.3,89.57 69.96,88.84 73.07,88.84 C77.54,88.84 80.98,90.22 83.38,92.98 C85.77,95.74 86.97,99.77 86.97,105.09 C86.97,105.09 86.97,131.92 86.97,131.92 C86.97,131.92 76.03,131.92 76.03,131.92 C76.03,131.92 76.03,108.21 76.03,108.21 C76.03,104.49 75.41,101.7 74.16,99.85 C72.91,98 71.02,97.08 68.49,97.08 C65.84,97.08 63.69,98.22 62.07,100.5 C60.44,102.78 59.63,105.7 59.63,109.27z "/><path id="_R_G_L_0_G_D_15_P_0" fill="#000000" fill-opacity="1" fill-rule="nonzero" d=" M134.16 132.7 C127.76,132.7 122.81,130.8 119.32,126.98 C115.83,123.17 114.08,117.85 114.08,111.02 C114.08,104.05 115.84,98.61 119.36,94.72 C122.87,90.82 127.86,88.88 134.32,88.88 C139.29,88.88 143.41,90.13 146.66,92.63 C149.92,95.13 151.96,98.58 152.79,102.98 C152.79,102.98 141.74,103.52 141.74,103.52 C141.43,101.36 140.65,99.64 139.4,98.35 C138.15,97.06 136.37,96.41 134.08,96.41 C131.24,96.41 129.12,97.59 127.72,99.95 C126.31,102.31 125.61,105.85 125.61,110.59 C125.61,115.46 126.33,119.12 127.77,121.55 C129.22,123.99 131.37,125.2 134.24,125.2 C136.32,125.2 138.07,124.55 139.47,123.23 C140.88,121.92 141.75,119.96 142.09,117.35 C142.09,117.35 153.11,117.86 153.11,117.86 C152.72,120.83 151.67,123.43 149.96,125.65 C148.26,127.88 146.05,129.61 143.34,130.85 C140.63,132.08 137.57,132.7 134.16,132.7z "/><path id="_R_G_L_0_G_D_16_P_0" fill="#000000" fill-opacity="1" fill-rule="nonzero" d=" M186.31 123.52 C184.85,126.73 183,129.06 180.74,130.52 C178.49,131.97 175.82,132.7 172.72,132.7 C168.24,132.7 164.8,131.33 162.4,128.58 C160.01,125.84 158.81,121.8 158.81,116.49 C158.81,116.49 158.81,89.66 158.81,89.66 C158.81,89.66 169.79,89.66 169.79,89.66 C169.79,89.66 169.79,113.37 169.79,113.37 C169.79,117.07 170.41,119.85 171.66,121.71 C172.91,123.57 174.79,124.5 177.29,124.5 C179.94,124.5 182.09,123.36 183.71,121.08 C185.34,118.8 186.15,115.88 186.15,112.31 C186.15,112.31 186.15,89.66 186.15,89.66 C186.15,89.66 197.13,89.66 197.13,89.66 C197.13,89.66 197.13,122.47 197.13,122.47 C197.13,124.27 197.16,125.95 197.21,127.53 C197.26,129.1 197.34,130.57 197.44,131.92 C197.44,131.92 186.97,131.92 186.97,131.92 C186.82,130.05 186.7,128.41 186.62,127 C186.54,125.59 186.51,124.44 186.51,123.52 C186.51,123.52 186.31,123.52 186.31,123.52z "/><path id="_R_G_L_0_G_D_17_P_0" fill="#000000" fill-opacity="1" fill-rule="nonzero" d=" M217.68 111.18 C217.68,111.18 217.68,131.92 217.68,131.92 C217.68,131.92 206.7,131.92 206.7,131.92 C206.7,131.92 206.7,99.58 206.7,99.58 C206.7,97.26 206.67,95.33 206.61,93.78 C206.54,92.23 206.47,90.86 206.39,89.66 C206.39,89.66 216.86,89.66 216.86,89.66 C216.91,89.89 216.96,90.41 217.02,91.22 C217.07,92.03 217.12,92.93 217.17,93.93 C217.22,94.94 217.27,95.88 217.31,96.77 C217.35,97.65 217.37,98.29 217.37,98.68 C217.37,98.68 217.52,98.68 217.52,98.68 C218.57,95.76 219.52,93.67 220.38,92.39 C221.21,91.17 222.2,90.27 223.34,89.7 C224.49,89.12 225.92,88.84 227.64,88.84 C229.05,88.84 230.18,89.03 231.04,89.42 C231.04,89.42 231.04,98.6 231.04,98.6 C229.29,98.21 227.73,98.02 226.35,98.02 C223.62,98.02 221.49,99.12 219.97,101.34 C218.44,103.55 217.68,106.83 217.68,111.18z "/><path id="_R_G_L_0_G_D_18_P_0" fill="#000000" fill-opacity="1" fill-rule="nonzero" d=" M271.86 119.58 C271.86,123.67 270.19,126.88 266.84,129.21 C263.5,131.54 258.87,132.7 252.96,132.7 C247.15,132.7 242.7,131.79 239.62,129.95 C236.53,128.11 234.48,125.26 233.46,121.38 C233.46,121.38 243.11,119.93 243.11,119.93 C243.66,121.94 244.6,123.35 245.94,124.19 C247.28,125.02 249.62,125.44 252.96,125.44 C256.03,125.44 258.27,125.05 259.67,124.27 C261.08,123.48 261.78,122.26 261.78,120.6 C261.78,119.24 261.22,118.17 260.09,117.37 C258.95,116.58 257.03,115.91 254.32,115.36 C252.26,114.94 250.42,114.54 248.8,114.15 C247.17,113.76 245.77,113.38 244.62,113 C243.46,112.62 242.51,112.26 241.78,111.92 C239.62,110.85 237.98,109.49 236.84,107.82 C235.71,106.15 235.14,104.1 235.14,101.65 C235.14,97.61 236.7,94.47 239.81,92.22 C242.92,89.96 247.33,88.84 253.03,88.84 C258.06,88.84 262.1,89.81 265.16,91.77 C268.22,93.72 270.13,96.55 270.89,100.24 C270.89,100.24 261.16,101.26 261.16,101.26 C260.85,99.54 260.08,98.26 258.85,97.41 C257.63,96.57 255.69,96.14 253.03,96.14 C250.43,96.14 248.48,96.47 247.18,97.14 C245.87,97.8 245.22,98.91 245.22,100.48 C245.22,101.7 245.72,102.67 246.73,103.39 C247.73,104.1 249.41,104.7 251.78,105.17 C255.09,105.84 258.03,106.54 260.59,107.25 C263.16,107.97 265.22,108.82 266.78,109.81 C268.32,110.8 269.55,112.07 270.48,113.62 C271.4,115.17 271.86,117.16 271.86,119.58z "/><path id="_R_G_L_0_G_D_19_P_0" fill="#000000" fill-opacity="1" fill-rule="nonzero" d=" M319.29 110.75 C319.29,117.6 317.38,122.97 313.58,126.86 C309.78,130.76 304.52,132.7 297.8,132.7 C291.21,132.7 286.04,130.75 282.29,126.84 C278.54,122.94 276.67,117.57 276.67,110.75 C276.67,103.95 278.54,98.61 282.29,94.72 C286.04,90.82 291.29,88.88 298.04,88.88 C304.94,88.88 310.2,90.76 313.83,94.52 C317.47,98.28 319.29,103.69 319.29,110.75z  M307.8 110.75 C307.8,105.73 306.98,102.08 305.34,99.81 C303.7,97.55 301.32,96.41 298.19,96.41 C294.86,96.41 292.36,97.61 290.69,99.99 C289.02,102.37 288.19,105.96 288.19,110.75 C288.19,115.46 289.01,119.05 290.63,121.51 C292.26,123.97 294.61,125.2 297.68,125.2 C301.07,125.2 303.6,124 305.28,121.59 C306.96,119.18 307.8,115.57 307.8,110.75z "/><path id="_R_G_L_0_G_D_20_P_0" fill="#000000" fill-opacity="1" fill-rule="nonzero" d=" M374.4 131.92 C374.35,131.66 374.27,131.12 374.17,130.28 C374.07,129.45 373.98,128.54 373.92,127.55 C373.85,126.56 373.82,125.72 373.82,125.05 C373.82,125.05 373.66,125.05 373.66,125.05 C372.47,127.6 370.75,129.51 368.51,130.79 C366.27,132.06 363.48,132.7 360.15,132.7 C355.23,132.7 351.42,130.78 348.74,126.94 C346.06,123.1 344.72,117.73 344.72,110.83 C344.72,103.82 346.13,98.41 348.96,94.6 C351.78,90.78 355.79,88.88 360.97,88.88 C363.96,88.88 366.55,89.5 368.72,90.75 C370.89,92 372.57,93.86 373.74,96.34 C373.74,96.34 373.82,96.34 373.82,96.34 C373.82,96.34 373.74,89.38 373.74,89.38 C373.74,89.38 373.74,73.95 373.74,73.95 C373.74,73.95 384.72,73.95 384.72,73.95 C384.72,73.95 384.72,122.7 384.72,122.7 C384.72,124.01 384.74,125.43 384.8,126.96 C384.85,128.5 384.93,130.15 385.03,131.92 C385.03,131.92 374.4,131.92 374.4,131.92z  M356.16 110.83 C356.16,115.62 356.89,119.21 358.33,121.61 C359.78,124.01 361.93,125.2 364.8,125.2 C367.69,125.2 369.93,123.93 371.51,121.39 C373.1,118.86 373.9,115.24 373.9,110.56 C373.9,106 373.14,102.49 371.61,100.03 C370.09,97.57 367.84,96.34 364.87,96.34 C361.93,96.34 359.74,97.53 358.31,99.91 C356.88,102.29 356.16,105.93 356.16,110.83z "/><path id="_R_G_L_0_G_D_21_P_0" fill="#000000" fill-opacity="1" fill-rule="nonzero" d=" M403.35 112.9 C403.35,117.01 404.11,120.12 405.64,122.22 C407.16,124.31 409.33,125.36 412.14,125.36 C414.07,125.36 415.65,124.94 416.89,124.09 C418.12,123.25 418.99,121.99 419.48,120.32 C419.48,120.32 429.84,121.22 429.84,121.22 C426.84,128.88 420.76,132.7 411.6,132.7 C405.24,132.7 400.36,130.82 396.95,127.06 C393.53,123.3 391.83,117.81 391.83,110.59 C391.83,103.62 393.56,98.25 397.03,94.5 C400.49,90.75 405.4,88.88 411.75,88.88 C417.82,88.88 422.45,90.89 425.66,94.91 C428.86,98.93 430.46,104.83 430.46,112.59 C430.46,112.59 430.46,112.9 430.46,112.9 C430.46,112.9 403.35,112.9 403.35,112.9z  M419.84 106.02 C419.63,102.61 418.81,100.05 417.38,98.35 C415.94,96.64 414.02,95.79 411.6,95.79 C409.02,95.79 407.03,96.69 405.64,98.49 C404.24,100.28 403.51,102.8 403.43,106.02 C403.43,106.02 419.84,106.02 419.84,106.02z "/><path id="_R_G_L_0_G_D_22_P_0" fill="#000000" fill-opacity="1" fill-rule="nonzero" d=" M12.52 204.92 C12.52,204.92 1.23,204.92 1.23,204.92 C1.23,204.92 1.23,193.01 1.23,193.01 C1.23,193.01 12.52,193.01 12.52,193.01 C12.52,193.01 12.52,204.92 12.52,204.92z "/><path id="_R_G_L_0_G_D_23_P_0" fill="#000000" fill-opacity="1" fill-rule="nonzero" d=" M31.78 205.7 C27.69,205.7 24.5,204.59 22.21,202.36 C19.91,200.14 18.77,197.01 18.77,192.97 C18.77,188.59 20.19,185.27 23.05,183.01 C25.9,180.74 30.03,179.56 35.45,179.45 C35.45,179.45 44.55,179.3 44.55,179.3 C44.55,179.3 44.55,177.15 44.55,177.15 C44.55,174.39 44.07,172.34 43.1,171 C42.14,169.66 40.57,168.99 38.38,168.99 C36.35,168.99 34.85,169.45 33.9,170.37 C32.95,171.3 32.36,172.83 32.13,174.96 C32.13,174.96 20.68,174.41 20.68,174.41 C22.11,166.05 28.17,161.87 38.85,161.87 C44.18,161.87 48.3,163.19 51.19,165.82 C54.08,168.45 55.53,172.19 55.53,177.03 C55.53,177.03 55.53,192.42 55.53,192.42 C55.53,194.79 55.79,196.43 56.33,197.33 C56.86,198.22 57.75,198.67 59,198.67 C59.83,198.67 60.64,198.59 61.42,198.44 C61.42,198.44 61.42,204.37 61.42,204.37 C60.07,204.71 58.91,204.97 57.95,205.14 C56.98,205.31 55.8,205.39 54.39,205.39 C51.63,205.39 49.59,204.71 48.28,203.36 C46.96,202.01 46.18,200.01 45.92,197.38 C45.92,197.38 45.68,197.38 45.68,197.38 C44.15,200.14 42.22,202.22 39.9,203.61 C37.58,205.01 34.87,205.7 31.78,205.7z  M44.55 185.35 C44.55,185.35 38.92,185.43 38.92,185.43 C36.35,185.56 34.53,185.83 33.49,186.25 C32.43,186.72 31.61,187.42 31.05,188.36 C30.49,189.3 30.21,190.55 30.21,192.11 C30.21,194.12 30.67,195.61 31.6,196.58 C32.52,197.56 33.75,198.05 35.29,198.05 C37.01,198.05 38.58,197.58 40.02,196.64 C41.42,195.7 42.53,194.41 43.34,192.75 C44.15,191.1 44.55,189.35 44.55,187.5 C44.55,187.5 44.55,185.35 44.55,185.35z "/><path id="_R_G_L_0_G_D_24_P_0" fill="#000000" fill-opacity="1" fill-rule="nonzero" d=" M75.88 184.18 C75.88,184.18 75.88,204.92 75.88,204.92 C75.88,204.92 64.9,204.92 64.9,204.92 C64.9,204.92 64.9,172.58 64.9,172.58 C64.9,170.26 64.87,168.33 64.8,166.78 C64.74,165.23 64.67,163.86 64.59,162.66 C64.59,162.66 75.06,162.66 75.06,162.66 C75.11,162.89 75.16,163.41 75.21,164.22 C75.27,165.03 75.32,165.93 75.37,166.93 C75.42,167.94 75.47,168.88 75.51,169.77 C75.55,170.65 75.57,171.29 75.57,171.68 C75.57,171.68 75.72,171.68 75.72,171.68 C76.76,168.76 77.71,166.67 78.57,165.39 C79.41,164.17 80.4,163.27 81.54,162.7 C82.69,162.12 84.12,161.84 85.84,161.84 C87.25,161.84 88.38,162.03 89.24,162.42 C89.24,162.42 89.24,171.6 89.24,171.6 C87.49,171.21 85.93,171.02 84.55,171.02 C81.82,171.02 79.69,172.12 78.16,174.34 C76.64,176.55 75.88,179.83 75.88,184.18z "/><path id="_R_G_L_0_G_D_25_P_0" fill="#000000" fill-opacity="1" fill-rule="nonzero" d=" M112.05 205.7 C105.65,205.7 100.7,203.8 97.21,199.98 C93.72,196.17 91.97,190.85 91.97,184.02 C91.97,177.05 93.73,171.61 97.25,167.71 C100.76,163.82 105.75,161.88 112.21,161.88 C117.18,161.88 121.3,163.13 124.55,165.63 C127.81,168.13 129.85,171.58 130.69,175.98 C130.69,175.98 119.63,176.52 119.63,176.52 C119.32,174.36 118.54,172.64 117.29,171.35 C116.04,170.06 114.27,169.41 111.98,169.41 C109.14,169.41 107.01,170.59 105.61,172.95 C104.2,175.31 103.5,178.85 103.5,183.59 C103.5,188.46 104.22,192.12 105.67,194.55 C107.11,196.99 109.27,198.2 112.13,198.2 C114.21,198.2 115.96,197.55 117.37,196.23 C118.77,194.92 119.64,192.96 119.98,190.35 C119.98,190.35 131,190.86 131,190.86 C130.61,193.83 129.56,196.43 127.85,198.65 C126.15,200.88 123.94,202.61 121.23,203.85 C118.52,205.08 115.46,205.7 112.05,205.7z "/><path id="_R_G_L_0_G_D_26_P_0" fill="#000000" fill-opacity="1" fill-rule="nonzero" d=" M148.15 171.09 C149.63,167.86 151.49,165.52 153.73,164.06 C155.97,162.6 158.64,161.88 161.74,161.88 C166.22,161.88 169.66,163.26 172.05,166.02 C174.45,168.78 175.65,172.81 175.65,178.13 C175.65,178.13 175.65,204.92 175.65,204.92 C175.65,204.92 164.71,204.92 164.71,204.92 C164.71,204.92 164.71,181.25 164.71,181.25 C164.71,177.53 164.09,174.74 162.84,172.89 C161.59,171.04 159.7,170.12 157.17,170.12 C154.51,170.12 152.37,171.26 150.75,173.54 C149.12,175.82 148.3,178.74 148.3,182.3 C148.3,182.3 148.3,204.92 148.3,204.92 C148.3,204.92 137.33,204.92 137.33,204.92 C137.33,204.92 137.33,146.95 137.33,146.95 C137.33,146.95 148.3,146.95 148.3,146.95 C148.3,146.95 148.3,162.77 148.3,162.77 C148.3,163.71 148.29,164.65 148.26,165.59 C148.24,166.52 148.21,167.45 148.17,168.36 C148.13,169.27 148.07,170.18 147.99,171.09 C147.99,171.09 148.15,171.09 148.15,171.09z "/><path id="_R_G_L_0_G_D_27_P_0" fill="#000000" fill-opacity="1" fill-rule="nonzero" d=" M195.57 155.04 C195.57,155.04 184.59,155.04 184.59,155.04 C184.59,155.04 184.59,146.95 184.59,146.95 C184.59,146.95 195.57,146.95 195.57,146.95 C195.57,146.95 195.57,155.04 195.57,155.04z    M195.57 204.92 C195.57,204.92 184.59,204.92 184.59,204.92 C184.59,204.92 184.59,162.66 184.59,162.66 C184.59,162.66 195.57,162.66 195.57,162.66 C195.57,162.66 195.57,204.92 195.57,204.92z "/><path id="_R_G_L_0_G_D_28_P_0" fill="#000000" fill-opacity="1" fill-rule="nonzero" d=" M218.11 170.08 C218.11,170.08 218.11,204.92 218.11,204.92 C218.11,204.92 207.17,204.92 207.17,204.92 C207.17,204.92 207.17,170.08 207.17,170.08 C207.17,170.08 201,170.08 201,170.08 C201,170.08 201,162.66 201,162.66 C201,162.66 207.17,162.66 207.17,162.66 C207.17,162.66 207.17,158.24 207.17,158.24 C207.17,154.42 208.19,151.58 210.22,149.73 C212.25,147.88 215.34,146.95 219.48,146.95 C221.61,146.95 223.93,147.16 226.43,147.58 C226.43,147.58 226.43,154.65 226.43,154.65 C225.39,154.41 224.32,154.3 223.23,154.3 C221.35,154.3 220.03,154.67 219.26,155.41 C218.49,156.15 218.11,157.46 218.11,159.34 C218.11,159.34 218.11,162.66 218.11,162.66 C218.11,162.66 226.43,162.66 226.43,162.66 C226.43,162.66 226.43,170.08 226.43,170.08 C226.43,170.08 218.11,170.08 218.11,170.08z "/><path id="_R_G_L_0_G_D_29_P_0" fill="#000000" fill-opacity="1" fill-rule="nonzero" d=" M243.15 170.08 C243.15,170.08 243.15,204.92 243.15,204.92 C243.15,204.92 232.21,204.92 232.21,204.92 C232.21,204.92 232.21,170.08 232.21,170.08 C232.21,170.08 226.04,170.08 226.04,170.08 C226.04,170.08 226.04,162.66 226.04,162.66 C226.04,162.66 232.21,162.66 232.21,162.66 C232.21,162.66 232.21,158.24 232.21,158.24 C232.21,154.42 233.23,151.58 235.26,149.73 C237.29,147.88 240.38,146.95 244.52,146.95 C246.65,146.95 248.97,147.16 251.47,147.58 C251.47,147.58 251.47,154.65 251.47,154.65 C250.43,154.41 249.36,154.3 248.27,154.3 C246.39,154.3 245.07,154.67 244.3,155.41 C243.54,156.15 243.15,157.46 243.15,159.34 C243.15,159.34 243.15,162.66 243.15,162.66 C243.15,162.66 251.47,162.66 251.47,162.66 C251.47,162.66 251.47,170.08 251.47,170.08 C251.47,170.08 243.15,170.08 243.15,170.08z "/><path id="_R_G_L_0_G_D_30_P_0" fill="#000000" fill-opacity="1" fill-rule="nonzero" d=" M293.97 164.84 C293.97,167.37 293.41,169.64 292.27,171.64 C291.14,173.65 289.03,175.76 285.93,177.97 C285.93,177.97 282.96,180.12 282.96,180.12 C279.52,182.57 277.72,185.29 277.57,188.28 C277.57,188.28 267.14,188.28 267.14,188.28 C267.24,186.51 267.61,184.87 268.23,183.36 C268.86,181.85 269.76,180.43 270.95,179.1 C272.13,177.77 273.58,176.51 275.3,175.31 C277.18,174.01 278.67,172.83 279.77,171.78 C280.88,170.72 281.68,169.68 282.18,168.65 C282.67,167.62 282.92,166.51 282.92,165.31 C282.92,163.02 282.17,161.21 280.67,159.88 C279.17,158.55 277.05,157.89 274.29,157.89 C271.66,157.89 269.45,158.66 267.66,160.2 C265.88,161.73 264.83,163.76 264.52,166.29 C264.52,166.29 253.39,165.82 253.39,165.82 C254.09,160.53 256.27,156.42 259.91,153.48 C263.56,150.53 268.3,149.06 274.13,149.06 C280.3,149.06 285.15,150.46 288.68,153.26 C292.21,156.06 293.97,159.92 293.97,164.84z    M278.12 204.92 C278.12,204.92 266.83,204.92 266.83,204.92 C266.83,204.92 266.83,194.37 266.83,194.37 C266.83,194.37 278.12,194.37 278.12,194.37 C278.12,194.37 278.12,204.92 278.12,204.92z "/></g></g><g id="time_group"/></svg>