<svg xmlns="http://www.w3.org/2000/svg" xmlns:xlink="http://www.w3.org/1999/xlink" preserveAspectRatio="xMidYMid meet" width="1469" height="141" viewBox="0 0 1469 141" style="width:100%;height:100%"><defs><animateMotion repeatCount="indefinite" dur="35s" begin="0s" xlink:href="#_R_G_L_2_G" fill="freeze" keyTimes="0;0.0133333;1" path="M724.63 83.25 C724.63,75.92 724.63,46.58 724.63,39.25 C724.63,39.25 724.63,39.25 724.63,39.25 " keyPoints="0;1;1" keySplines="0.333 0 0.667 1;0 0 0 0" calcMode="spline"/><animateTransform repeatCount="indefinite" dur="35s" begin="0s" xlink:href="#_R_G_L_2_G" fill="freeze" attributeName="transform" from="0.9074200000000001 0.9074200000000001" to="0.9074200000000001 0.9074200000000001" type="scale" additive="sum" keyTimes="0;1" values="0.9074200000000001 0.9074200000000001;0.9074200000000001 0.9074200000000001" keySplines="0 0 1 1" calcMode="spline"/><animateTransform repeatCount="indefinite" dur="35s" begin="0s" xlink:href="#_R_G_L_2_G" fill="freeze" attributeName="transform" from="-792.5 -38" to="-792.5 -38" type="translate" additive="sum" keyTimes="0;1" values="-792.5 -38;-792.5 -38" keySplines="0 0 1 1" calcMode="spline"/><animate attributeType="XML" attributeName="opacity" dur="35s" from="0" to="1" xlink:href="#time_group"/></defs><g id="_R_G"><g id="_R_G_L_2_G"><path id="_R_G_L_2_G_D_0_P_0" fill="#c1c1c1" fill-opacity="1" fill-rule="nonzero" d=" M0.25 56.73 C0.25,54.21 0.82,51.94 1.95,49.94 C3.08,47.93 5.2,45.82 8.3,43.61 C8.3,43.61 11.3,41.46 11.3,41.46 C14.72,38.96 16.5,36.24 16.66,33.3 C16.66,33.3 27.09,33.3 27.09,33.3 C26.98,35.07 26.61,36.71 25.97,38.22 C25.33,39.73 24.43,41.14 23.26,42.46 C22.09,43.77 20.64,45.03 18.92,46.23 C17.07,47.53 15.59,48.71 14.47,49.76 C13.35,50.82 12.54,51.86 12.05,52.89 C11.55,53.92 11.3,55.04 11.3,56.27 C11.3,58.56 12.05,60.37 13.55,61.7 C15.05,63.02 17.18,63.69 19.94,63.69 C22.57,63.69 24.77,62.92 26.56,61.38 C28.34,59.85 29.39,57.82 29.7,55.29 C29.7,55.29 40.84,55.76 40.84,55.76 C40.13,61.05 37.96,65.16 34.31,68.1 C30.67,71.05 25.93,72.52 20.09,72.52 C13.92,72.52 9.07,71.11 5.54,68.32 C2.01,65.52 0.25,61.66 0.25,56.73z    M27.4 27.2 C27.4,27.2 16.11,27.2 16.11,27.2 C16.11,27.2 16.11,16.66 16.11,16.66 C16.11,16.66 27.4,16.66 27.4,16.66 C27.4,16.66 27.4,27.2 27.4,27.2z "/><path id="_R_G_L_2_G_D_1_P_0" fill="#c1c1c1" fill-opacity="1" fill-rule="nonzero" d=" M101.93 31.15 C101.93,36.04 101.12,40.41 99.49,44.24 C97.86,48.06 95.53,51.22 92.48,53.71 C89.43,56.19 85.76,57.88 81.46,58.77 C82.35,61.34 83.59,63.21 85.19,64.35 C86.79,65.5 89.04,66.07 91.93,66.07 C93.55,66.07 95.1,65.94 96.58,65.68 C96.58,65.68 96.5,73.57 96.5,73.57 C93.27,74.3 90.12,74.66 87.05,74.66 C82.8,74.66 79.29,73.48 76.5,71.11 C73.71,68.74 71.48,64.81 69.78,59.31 C64.83,58.84 60.62,57.41 57.13,55.02 C53.64,52.62 50.97,49.4 49.12,45.35 C47.27,41.3 46.35,36.57 46.35,31.15 C46.35,25.26 47.44,20.22 49.65,16.03 C51.85,11.84 55.02,8.63 59.18,6.4 C63.33,4.18 68.31,3.06 74.12,3.06 C79.95,3.06 84.94,4.19 89.08,6.44 C93.22,8.7 96.4,11.92 98.61,16.11 C100.82,20.3 101.93,25.32 101.93,31.15z  M90.17 31.15 C90.17,25.21 88.77,20.56 85.95,17.18 C83.14,13.81 79.2,12.13 74.12,12.13 C68.96,12.13 64.98,13.8 62.17,17.14 C59.35,20.49 57.95,25.16 57.95,31.15 C57.95,35.16 58.59,38.63 59.88,41.56 C61.17,44.49 63.02,46.74 65.43,48.32 C67.84,49.89 70.71,50.68 74.04,50.68 C79.2,50.68 83.17,48.99 85.97,45.6 C88.77,42.22 90.17,37.4 90.17,31.15z "/><path id="_R_G_L_2_G_D_2_P_0" fill="#c1c1c1" fill-opacity="1" fill-rule="nonzero" d=" M136.15 50.52 C134.69,53.73 132.84,56.06 130.59,57.52 C128.33,58.97 125.66,59.7 122.56,59.7 C118.08,59.7 114.64,58.33 112.25,55.58 C109.85,52.84 108.65,48.8 108.65,43.49 C108.65,43.49 108.65,16.66 108.65,16.66 C108.65,16.66 119.63,16.66 119.63,16.66 C119.63,16.66 119.63,40.37 119.63,40.37 C119.63,44.07 120.25,46.85 121.5,48.71 C122.75,50.57 124.63,51.5 127.13,51.5 C129.78,51.5 131.93,50.36 133.55,48.08 C135.18,45.8 136,42.88 136,39.31 C136,39.31 136,16.66 136,16.66 C136,16.66 146.97,16.66 146.97,16.66 C146.97,16.66 146.97,49.47 146.97,49.47 C146.97,51.27 147,52.95 147.05,54.53 C147.1,56.1 147.18,57.57 147.28,58.92 C147.28,58.92 136.82,58.92 136.82,58.92 C136.66,57.05 136.54,55.41 136.46,54 C136.39,52.59 136.35,51.44 136.35,50.52 C136.35,50.52 136.15,50.52 136.15,50.52z "/><path id="_R_G_L_2_G_D_3_P_0" fill="#c1c1c1" fill-opacity="1" fill-rule="nonzero" d=" M165.61 39.9 C165.61,44.01 166.37,47.12 167.89,49.21 C169.41,51.31 171.58,52.36 174.39,52.36 C176.32,52.36 177.9,51.94 179.14,51.09 C180.38,50.24 181.24,48.99 181.74,47.32 C181.74,47.32 192.09,48.22 192.09,48.22 C189.1,55.87 183.01,59.7 173.85,59.7 C167.49,59.7 162.61,57.82 159.2,54.06 C155.79,50.3 154.08,44.81 154.08,37.59 C154.08,30.62 155.81,25.25 159.28,21.5 C162.74,17.75 167.65,15.87 174,15.87 C180.07,15.87 184.71,17.89 187.91,21.91 C191.11,25.93 192.72,31.83 192.72,39.59 C192.72,39.59 192.72,39.9 192.72,39.9 C192.72,39.9 165.61,39.9 165.61,39.9z  M182.09 33.02 C181.88,29.61 181.06,27.05 179.63,25.35 C178.2,23.64 176.27,22.79 173.85,22.79 C171.27,22.79 169.28,23.69 167.89,25.48 C166.5,27.28 165.76,29.8 165.68,33.02 C165.68,33.02 182.09,33.02 182.09,33.02z  M187.21 1.93 C187.21,1.93 173.93,12.71 173.93,12.71 C173.93,12.71 167.29,12.71 167.29,12.71 C167.29,12.71 167.29,11.5 167.29,11.5 C167.29,11.5 177.13,0.25 177.13,0.25 C177.13,0.25 187.21,0.25 187.21,0.25 C187.21,0.25 187.21,1.93 187.21,1.93z "/><path id="_R_G_L_2_G_D_4_P_0" fill="#c1c1c1" fill-opacity="1" fill-rule="nonzero" d=" M229.13 39.9 C229.13,44.01 229.89,47.12 231.41,49.22 C232.93,51.31 235.1,52.36 237.91,52.36 C239.84,52.36 241.42,51.94 242.66,51.09 C243.9,50.25 244.76,48.99 245.26,47.32 C245.26,47.32 255.61,48.22 255.61,48.22 C252.61,55.88 246.53,59.7 237.37,59.7 C231.01,59.7 226.13,57.82 222.72,54.06 C219.31,50.3 217.6,44.81 217.6,37.59 C217.6,30.62 219.33,25.25 222.8,21.5 C226.26,17.75 231.17,15.88 237.52,15.88 C243.59,15.88 248.23,17.89 251.43,21.91 C254.63,25.93 256.23,31.83 256.23,39.59 C256.23,39.59 256.23,39.9 256.23,39.9 C256.23,39.9 229.13,39.9 229.13,39.9z  M245.61 33.02 C245.4,29.61 244.58,27.05 243.15,25.35 C241.72,23.64 239.79,22.79 237.37,22.79 C234.79,22.79 232.8,23.69 231.41,25.49 C230.02,27.28 229.28,29.8 229.2,33.02 C229.2,33.02 245.61,33.02 245.61,33.02z "/><path id="_R_G_L_2_G_D_5_P_0" fill="#c1c1c1" fill-opacity="1" fill-rule="nonzero" d=" M298.58 46.58 C298.58,50.67 296.9,53.88 293.56,56.21 C290.21,58.54 285.58,59.7 279.67,59.7 C273.87,59.7 269.42,58.79 266.33,56.95 C263.25,55.11 261.2,52.26 260.18,48.38 C260.18,48.38 269.83,46.93 269.83,46.93 C270.38,48.94 271.32,50.35 272.66,51.19 C274,52.02 276.34,52.44 279.67,52.44 C282.75,52.44 284.99,52.05 286.39,51.27 C287.8,50.48 288.5,49.26 288.5,47.6 C288.5,46.24 287.93,45.17 286.8,44.37 C285.67,43.58 283.75,42.91 281.04,42.36 C278.98,41.94 277.14,41.54 275.51,41.15 C273.89,40.76 272.49,40.38 271.33,40 C270.17,39.62 269.23,39.26 268.5,38.92 C266.34,37.85 264.69,36.49 263.56,34.82 C262.43,33.16 261.86,31.1 261.86,28.65 C261.86,24.61 263.42,21.47 266.53,19.22 C269.64,16.96 274.05,15.84 279.75,15.84 C284.78,15.84 288.82,16.81 291.88,18.77 C294.94,20.72 296.85,23.55 297.6,27.24 C297.6,27.24 287.88,28.26 287.88,28.26 C287.56,26.54 286.8,25.26 285.57,24.41 C284.35,23.57 282.41,23.14 279.75,23.14 C277.15,23.14 275.19,23.47 273.89,24.14 C272.59,24.8 271.94,25.91 271.94,27.48 C271.94,28.7 272.44,29.67 273.44,30.39 C274.44,31.1 276.13,31.7 278.5,32.17 C281.81,32.84 284.74,33.54 287.31,34.25 C289.87,34.97 291.94,35.82 293.5,36.81 C295.04,37.8 296.27,39.07 297.19,40.62 C298.12,42.17 298.58,44.16 298.58,46.58z "/><path id="_R_G_L_2_G_D_6_P_0" fill="#c1c1c1" fill-opacity="1" fill-rule="nonzero" d=" M345.85 37.59 C345.85,44.65 344.43,50.1 341.61,53.94 C338.78,57.78 334.79,59.7 329.64,59.7 C323.52,59.7 319.25,57.2 316.82,52.2 C316.82,52.2 316.59,52.2 316.59,52.2 C316.75,52.99 316.82,55.36 316.82,59.31 C316.82,59.31 316.82,75.52 316.82,75.52 C316.82,75.52 305.85,75.52 305.85,75.52 C305.85,75.52 305.85,26.38 305.85,26.38 C305.85,24.38 305.82,22.57 305.77,20.95 C305.71,19.34 305.64,17.91 305.53,16.66 C305.53,16.66 316.2,16.66 316.2,16.66 C316.3,16.97 316.39,17.5 316.45,18.24 C316.52,18.98 316.57,19.82 316.61,20.76 C316.65,21.7 316.67,22.62 316.67,23.53 C316.67,23.53 316.82,23.53 316.82,23.53 C318.05,20.93 319.79,18.98 322.06,17.69 C324.32,16.4 327.08,15.76 330.34,15.76 C335.26,15.76 339.08,17.65 341.78,21.44 C344.49,25.23 345.85,30.62 345.85,37.59z  M334.4 37.59 C334.4,32.85 333.68,29.3 332.23,26.93 C330.79,24.56 328.61,23.38 325.69,23.38 C322.77,23.38 320.54,24.65 318.99,27.2 C317.44,29.76 316.67,33.32 316.67,37.91 C316.67,42.46 317.44,45.99 318.99,48.47 C320.54,50.96 322.75,52.2 325.61,52.2 C328.55,52.2 330.76,50.99 332.21,48.55 C333.67,46.12 334.4,42.46 334.4,37.59z "/><path id="_R_G_L_2_G_D_7_P_0" fill="#c1c1c1" fill-opacity="1" fill-rule="nonzero" d=" M362.18 39.9 C362.18,44.01 362.94,47.12 364.46,49.22 C365.99,51.31 368.15,52.36 370.97,52.36 C372.89,52.36 374.47,51.94 375.71,51.09 C376.95,50.25 377.81,48.99 378.31,47.32 C378.31,47.32 388.66,48.22 388.66,48.22 C385.67,55.88 379.59,59.7 370.42,59.7 C364.06,59.7 359.18,57.82 355.77,54.06 C352.36,50.3 350.65,44.81 350.65,37.59 C350.65,30.62 352.39,25.25 355.85,21.5 C359.31,17.75 364.22,15.88 370.57,15.88 C376.64,15.88 381.28,17.89 384.48,21.91 C387.68,25.93 389.29,31.83 389.29,39.59 C389.29,39.59 389.29,39.9 389.29,39.9 C389.29,39.9 362.18,39.9 362.18,39.9z  M378.66 33.02 C378.45,29.61 377.63,27.05 376.2,25.35 C374.77,23.64 372.84,22.79 370.42,22.79 C367.84,22.79 365.85,23.69 364.46,25.49 C363.07,27.28 362.33,29.8 362.26,33.02 C362.26,33.02 378.66,33.02 378.66,33.02z "/><path id="_R_G_L_2_G_D_8_P_0" fill="#c1c1c1" fill-opacity="1" fill-rule="nonzero" d=" M406.98 38.18 C406.98,38.18 406.98,58.92 406.98,58.92 C406.98,58.92 396.01,58.92 396.01,58.92 C396.01,58.92 396.01,26.58 396.01,26.58 C396.01,24.26 395.97,22.33 395.91,20.78 C395.84,19.23 395.77,17.85 395.69,16.66 C395.69,16.66 406.16,16.66 406.16,16.66 C406.21,16.89 406.27,17.41 406.32,18.22 C406.37,19.03 406.42,19.93 406.47,20.93 C406.53,21.94 406.57,22.88 406.61,23.77 C406.65,24.65 406.67,25.29 406.67,25.68 C406.67,25.68 406.83,25.68 406.83,25.68 C407.87,22.76 408.82,20.67 409.68,19.39 C410.51,18.17 411.5,17.27 412.65,16.7 C413.79,16.12 415.22,15.84 416.94,15.84 C418.35,15.84 419.48,16.03 420.34,16.42 C420.34,16.42 420.34,25.6 420.34,25.6 C418.6,25.21 417.03,25.02 415.65,25.02 C412.92,25.02 410.79,26.12 409.27,28.34 C407.74,30.55 406.98,33.83 406.98,38.18z "/><path id="_R_G_L_2_G_D_9_P_0" fill="#c1c1c1" fill-opacity="1" fill-rule="nonzero" d=" M435.31 59.7 C431.22,59.7 428.03,58.59 425.73,56.36 C423.44,54.14 422.3,51.01 422.3,46.97 C422.3,42.59 423.72,39.27 426.57,37.01 C429.43,34.74 433.56,33.56 438.98,33.45 C438.98,33.45 448.08,33.3 448.08,33.3 C448.08,33.3 448.08,31.15 448.08,31.15 C448.08,28.39 447.6,26.34 446.63,25 C445.67,23.66 444.09,22.98 441.91,22.98 C439.88,22.98 438.38,23.45 437.43,24.37 C436.48,25.3 435.89,26.83 435.66,28.96 C435.66,28.96 424.21,28.41 424.21,28.41 C425.64,20.05 431.7,15.87 442.38,15.87 C447.71,15.87 451.83,17.19 454.72,19.82 C457.61,22.45 459.06,26.19 459.06,31.03 C459.06,31.03 459.06,46.42 459.06,46.42 C459.06,48.79 459.32,50.43 459.86,51.32 C460.39,52.22 461.28,52.67 462.53,52.67 C463.36,52.67 464.17,52.59 464.95,52.44 C464.95,52.44 464.95,58.37 464.95,58.37 C463.6,58.71 462.44,58.97 461.48,59.14 C460.51,59.31 459.33,59.39 457.92,59.39 C455.16,59.39 453.12,58.71 451.81,57.36 C450.49,56.01 449.71,54.01 449.45,51.38 C449.45,51.38 449.21,51.38 449.21,51.38 C447.67,54.14 445.75,56.22 443.43,57.61 C441.11,59.01 438.4,59.7 435.31,59.7z  M448.08 39.35 C448.08,39.35 442.45,39.43 442.45,39.43 C439.88,39.56 438.06,39.83 437.02,40.25 C435.96,40.72 435.14,41.42 434.58,42.36 C434.02,43.3 433.74,44.55 433.74,46.11 C433.74,48.12 434.2,49.61 435.13,50.58 C436.05,51.56 437.28,52.05 438.82,52.05 C440.54,52.05 442.11,51.58 443.55,50.64 C444.95,49.7 446.06,48.41 446.87,46.75 C447.67,45.1 448.08,43.35 448.08,41.5 C448.08,41.5 448.08,39.35 448.08,39.35z "/><path id="_R_G_L_2_G_D_10_P_0" fill="#c1c1c1" fill-opacity="1" fill-rule="nonzero" d=" M479.41 38.18 C479.41,38.18 479.41,58.92 479.41,58.92 C479.41,58.92 468.43,58.92 468.43,58.92 C468.43,58.92 468.43,26.58 468.43,26.58 C468.43,24.26 468.4,22.33 468.33,20.78 C468.27,19.23 468.2,17.85 468.12,16.66 C468.12,16.66 478.59,16.66 478.59,16.66 C478.64,16.89 478.69,17.41 478.74,18.22 C478.8,19.03 478.85,19.93 478.9,20.93 C478.95,21.94 479,22.88 479.04,23.77 C479.08,24.65 479.1,25.29 479.1,25.68 C479.1,25.68 479.25,25.68 479.25,25.68 C480.29,22.76 481.24,20.67 482.1,19.39 C482.94,18.17 483.93,17.27 485.07,16.7 C486.22,16.12 487.65,15.84 489.37,15.84 C490.77,15.84 491.91,16.03 492.77,16.42 C492.77,16.42 492.77,25.6 492.77,25.6 C491.02,25.21 489.46,25.02 488.08,25.02 C485.34,25.02 483.22,26.12 481.69,28.34 C480.17,30.55 479.41,33.83 479.41,38.18z "/><path id="_R_G_L_2_G_D_11_P_0" fill="#c1c1c1" fill-opacity="1" fill-rule="nonzero" d=" M545.97 58.92 C545.92,58.66 545.84,58.11 545.74,57.28 C545.63,56.45 545.55,55.54 545.49,54.55 C545.42,53.56 545.39,52.72 545.39,52.05 C545.39,52.05 545.23,52.05 545.23,52.05 C544.03,54.6 542.31,56.51 540.08,57.79 C537.84,59.06 535.05,59.7 531.72,59.7 C526.79,59.7 522.99,57.78 520.31,53.94 C517.63,50.1 516.29,44.73 516.29,37.83 C516.29,30.82 517.7,25.41 520.52,21.6 C523.35,17.78 527.35,15.88 532.54,15.88 C535.53,15.88 538.12,16.5 540.29,17.75 C542.46,19 544.14,20.86 545.31,23.34 C545.31,23.34 545.39,23.34 545.39,23.34 C545.39,23.34 545.31,16.38 545.31,16.38 C545.31,16.38 545.31,0.95 545.31,0.95 C545.31,0.95 556.29,0.95 556.29,0.95 C556.29,0.95 556.29,49.7 556.29,49.7 C556.29,51.01 556.31,52.43 556.36,53.96 C556.42,55.5 556.49,57.15 556.6,58.92 C556.6,58.92 545.97,58.92 545.97,58.92z  M527.73 37.83 C527.73,42.62 528.45,46.21 529.9,48.61 C531.34,51.01 533.5,52.2 536.36,52.2 C539.25,52.2 541.49,50.93 543.08,48.39 C544.67,45.86 545.47,42.24 545.47,37.56 C545.47,33 544.7,29.49 543.18,27.03 C541.66,24.57 539.41,23.34 536.44,23.34 C533.5,23.34 531.31,24.53 529.88,26.91 C528.45,29.29 527.73,32.93 527.73,37.83z "/><path id="_R_G_L_2_G_D_12_P_0" fill="#c1c1c1" fill-opacity="1" fill-rule="nonzero" d=" M574.92 39.9 C574.92,44.01 575.68,47.12 577.2,49.22 C578.73,51.31 580.9,52.36 583.71,52.36 C585.64,52.36 587.22,51.94 588.45,51.09 C589.69,50.25 590.56,48.99 591.05,47.32 C591.05,47.32 601.4,48.22 601.4,48.22 C598.41,55.88 592.33,59.7 583.16,59.7 C576.81,59.7 571.92,57.82 568.51,54.06 C565.1,50.3 563.4,44.81 563.4,37.59 C563.4,30.62 565.13,25.25 568.59,21.5 C572.05,17.75 576.96,15.88 583.32,15.88 C589.38,15.88 594.02,17.89 597.22,21.91 C600.43,25.93 602.03,31.83 602.03,39.59 C602.03,39.59 602.03,39.9 602.03,39.9 C602.03,39.9 574.92,39.9 574.92,39.9z  M591.4 33.02 C591.19,29.61 590.37,27.05 588.94,25.35 C587.51,23.64 585.58,22.79 583.16,22.79 C580.58,22.79 578.6,23.69 577.2,25.49 C575.81,27.28 575.08,29.8 575,33.02 C575,33.02 591.4,33.02 591.4,33.02z "/><path id="_R_G_L_2_G_D_13_P_0" fill="#c1c1c1" fill-opacity="1" fill-rule="nonzero" d=" M656.25 50.52 C654.79,53.73 652.94,56.06 650.68,57.52 C648.43,58.97 645.76,59.7 642.66,59.7 C638.18,59.7 634.74,58.33 632.34,55.58 C629.95,52.84 628.75,48.8 628.75,43.49 C628.75,43.49 628.75,16.66 628.75,16.66 C628.75,16.66 639.73,16.66 639.73,16.66 C639.73,16.66 639.73,40.37 639.73,40.37 C639.73,44.07 640.35,46.85 641.6,48.71 C642.85,50.57 644.73,51.5 647.23,51.5 C649.88,51.5 652.02,50.36 653.65,48.08 C655.28,45.8 656.09,42.88 656.09,39.31 C656.09,39.31 656.09,16.66 656.09,16.66 C656.09,16.66 667.07,16.66 667.07,16.66 C667.07,16.66 667.07,49.47 667.07,49.47 C667.07,51.27 667.1,52.95 667.15,54.53 C667.2,56.1 667.28,57.57 667.38,58.92 C667.38,58.92 656.91,58.92 656.91,58.92 C656.76,57.05 656.64,55.41 656.56,54 C656.48,52.59 656.45,51.44 656.45,50.52 C656.45,50.52 656.25,50.52 656.25,50.52z "/><path id="_R_G_L_2_G_D_14_P_0" fill="#c1c1c1" fill-opacity="1" fill-rule="nonzero" d=" M687.62 36.27 C687.62,36.27 687.62,58.92 687.62,58.92 C687.62,58.92 676.64,58.92 676.64,58.92 C676.64,58.92 676.64,26.11 676.64,26.11 C676.64,23.84 676.61,21.99 676.55,20.54 C676.48,19.1 676.41,17.8 676.33,16.66 C676.33,16.66 686.8,16.66 686.8,16.66 C686.85,16.97 686.92,17.7 686.99,18.86 C687.07,20.02 687.14,21.21 687.21,22.42 C687.27,23.63 687.31,24.51 687.31,25.06 C687.31,25.06 687.46,25.06 687.46,25.06 C688.95,21.83 690.81,19.48 693.05,18.02 C695.29,16.57 697.96,15.84 701.06,15.84 C705.54,15.84 708.97,17.22 711.37,19.98 C713.77,22.74 714.96,26.77 714.96,32.09 C714.96,32.09 714.96,58.92 714.96,58.92 C714.96,58.92 704.03,58.92 704.03,58.92 C704.03,58.92 704.03,35.21 704.03,35.21 C704.03,31.49 703.4,28.7 702.15,26.85 C700.9,25 699.01,24.08 696.49,24.08 C693.83,24.08 691.69,25.22 690.06,27.5 C688.43,29.78 687.62,32.7 687.62,36.27z "/><path id="_R_G_L_2_G_D_15_P_0" fill="#c1c1c1" fill-opacity="1" fill-rule="nonzero" d=" M733.68 59.7 C729.59,59.7 726.4,58.59 724.11,56.36 C721.81,54.14 720.67,51.01 720.67,46.97 C720.67,42.59 722.09,39.27 724.95,37.01 C727.8,34.74 731.93,33.56 737.35,33.45 C737.35,33.45 746.45,33.3 746.45,33.3 C746.45,33.3 746.45,31.15 746.45,31.15 C746.45,28.39 745.97,26.34 745.01,25 C744.04,23.66 742.47,22.98 740.28,22.98 C738.25,22.98 736.76,23.45 735.81,24.37 C734.85,25.3 734.26,26.83 734.03,28.96 C734.03,28.96 722.58,28.41 722.58,28.41 C724.01,20.05 730.07,15.87 740.75,15.87 C746.08,15.87 750.2,17.19 753.09,19.82 C755.98,22.45 757.43,26.19 757.43,31.03 C757.43,31.03 757.43,46.42 757.43,46.42 C757.43,48.79 757.69,50.43 758.23,51.32 C758.76,52.22 759.65,52.67 760.9,52.67 C761.74,52.67 762.54,52.59 763.33,52.44 C763.33,52.44 763.33,58.37 763.33,58.37 C761.97,58.71 760.81,58.97 759.85,59.14 C758.89,59.31 757.7,59.39 756.29,59.39 C753.53,59.39 751.5,58.71 750.18,57.36 C748.87,56.01 748.08,54.01 747.82,51.38 C747.82,51.38 747.58,51.38 747.58,51.38 C746.05,54.14 744.12,56.22 741.8,57.61 C739.48,59.01 736.78,59.7 733.68,59.7z  M746.45 39.35 C746.45,39.35 740.83,39.43 740.83,39.43 C738.25,39.56 736.44,39.83 735.4,40.25 C734.33,40.72 733.51,41.42 732.95,42.36 C732.39,43.3 732.11,44.55 732.11,46.11 C732.11,48.12 732.58,49.61 733.5,50.58 C734.43,51.56 735.66,52.05 737.19,52.05 C738.91,52.05 740.49,51.58 741.92,50.64 C743.33,49.7 744.43,48.41 745.24,46.75 C746.05,45.1 746.45,43.35 746.45,41.5 C746.45,41.5 746.45,39.35 746.45,39.35z "/><path id="_R_G_L_2_G_D_16_P_0" fill="#c1c1c1" fill-opacity="1" fill-rule="nonzero" d=" M800.32 24.08 C800.32,24.08 800.32,58.92 800.32,58.92 C800.32,58.92 789.38,58.92 789.38,58.92 C789.38,58.92 789.38,24.08 789.38,24.08 C789.38,24.08 783.21,24.08 783.21,24.08 C783.21,24.08 783.21,16.66 783.21,16.66 C783.21,16.66 789.38,16.66 789.38,16.66 C789.38,16.66 789.38,12.24 789.38,12.24 C789.38,8.41 790.4,5.58 792.43,3.73 C794.46,1.88 797.55,0.95 801.69,0.95 C803.82,0.95 806.14,1.16 808.64,1.58 C808.64,1.58 808.64,8.65 808.64,8.65 C807.6,8.41 806.53,8.3 805.44,8.3 C803.56,8.3 802.24,8.67 801.47,9.41 C800.71,10.15 800.32,11.46 800.32,13.34 C800.32,13.34 800.32,16.66 800.32,16.66 C800.32,16.66 808.64,16.66 808.64,16.66 C808.64,16.66 808.64,24.08 808.64,24.08 C808.64,24.08 800.32,24.08 800.32,24.08z "/><path id="_R_G_L_2_G_D_17_P_0" fill="#c1c1c1" fill-opacity="1" fill-rule="nonzero" d=" M852.63 37.75 C852.63,44.6 850.73,49.97 846.92,53.86 C843.12,57.76 837.86,59.7 831.14,59.7 C824.55,59.7 819.39,57.75 815.64,53.84 C811.89,49.94 810.01,44.57 810.01,37.75 C810.01,30.95 811.89,25.61 815.64,21.72 C819.39,17.82 824.63,15.88 831.38,15.88 C838.28,15.88 843.55,17.76 847.18,21.52 C850.81,25.28 852.63,30.69 852.63,37.75z  M841.14 37.75 C841.14,32.73 840.32,29.08 838.68,26.81 C837.04,24.55 834.66,23.41 831.53,23.41 C828.2,23.41 825.7,24.61 824.03,26.99 C822.37,29.37 821.53,32.96 821.53,37.75 C821.53,42.46 822.35,46.05 823.98,48.51 C825.6,50.97 827.95,52.2 831.03,52.2 C834.41,52.2 836.94,51 838.62,48.59 C840.3,46.18 841.14,42.57 841.14,37.75z "/><path id="_R_G_L_2_G_D_18_P_0" fill="#c1c1c1" fill-opacity="1" fill-rule="nonzero" d=" M870.71 38.18 C870.71,38.18 870.71,58.92 870.71,58.92 C870.71,58.92 859.74,58.92 859.74,58.92 C859.74,58.92 859.74,26.58 859.74,26.58 C859.74,24.26 859.7,22.33 859.64,20.78 C859.57,19.23 859.5,17.85 859.43,16.66 C859.43,16.66 869.89,16.66 869.89,16.66 C869.95,16.89 870,17.41 870.05,18.22 C870.1,19.03 870.15,19.93 870.21,20.93 C870.26,21.94 870.3,22.88 870.34,23.77 C870.38,24.65 870.4,25.29 870.4,25.68 C870.4,25.68 870.56,25.68 870.56,25.68 C871.6,22.76 872.55,20.67 873.41,19.39 C874.24,18.17 875.23,17.27 876.38,16.7 C877.52,16.12 878.96,15.84 880.68,15.84 C882.08,15.84 883.21,16.03 884.07,16.42 C884.07,16.42 884.07,25.6 884.07,25.6 C882.33,25.21 880.77,25.02 879.39,25.02 C876.65,25.02 874.52,26.12 873,28.34 C871.48,30.55 870.71,33.83 870.71,38.18z "/><path id="_R_G_L_2_G_D_19_P_0" fill="#c1c1c1" fill-opacity="1" fill-rule="nonzero" d=" M900.25 36.27 C900.25,36.27 900.25,58.92 900.25,58.92 C900.25,58.92 889.27,58.92 889.27,58.92 C889.27,58.92 889.27,26.11 889.27,26.11 C889.27,23.84 889.24,21.99 889.17,20.54 C889.11,19.1 889.04,17.8 888.96,16.66 C888.96,16.66 899.43,16.66 899.43,16.66 C899.48,16.97 899.54,17.7 899.62,18.86 C899.7,20.02 899.77,21.21 899.84,22.42 C899.9,23.63 899.94,24.51 899.94,25.06 C899.94,25.06 900.09,25.06 900.09,25.06 C901.44,21.83 903.13,19.48 905.15,18.02 C907.17,16.57 909.58,15.84 912.4,15.84 C915.62,15.84 918.22,16.6 920.19,18.14 C922.15,19.68 923.48,21.98 924.15,25.06 C924.15,25.06 924.39,25.06 924.39,25.06 C925.82,21.77 927.54,19.42 929.54,17.99 C931.55,16.55 934.1,15.84 937.2,15.84 C941.31,15.84 944.45,17.24 946.61,20.04 C948.78,22.83 949.86,26.85 949.86,32.09 C949.86,32.09 949.86,58.92 949.86,58.92 C949.86,58.92 938.96,58.92 938.96,58.92 C938.96,58.92 938.96,35.21 938.96,35.21 C938.96,31.49 938.42,28.7 937.36,26.85 C936.29,25 934.69,24.08 932.55,24.08 C930.42,24.08 928.63,25.11 927.2,27.18 C925.77,29.25 925.05,32.11 925.05,35.76 C925.05,35.76 925.05,58.92 925.05,58.92 C925.05,58.92 914.15,58.92 914.15,58.92 C914.15,58.92 914.15,35.21 914.15,35.21 C914.15,31.49 913.62,28.7 912.55,26.85 C911.48,25 909.88,24.08 907.75,24.08 C905.53,24.08 903.73,25.21 902.34,27.48 C900.94,29.74 900.25,32.67 900.25,36.27z "/><path id="_R_G_L_2_G_D_20_P_0" fill="#c1c1c1" fill-opacity="1" fill-rule="nonzero" d=" M968.57 59.7 C964.48,59.7 961.29,58.59 959,56.36 C956.71,54.14 955.56,51.01 955.56,46.97 C955.56,42.59 956.99,39.27 959.84,37.01 C962.69,34.74 966.82,33.56 972.24,33.45 C972.24,33.45 981.34,33.3 981.34,33.3 C981.34,33.3 981.34,31.15 981.34,31.15 C981.34,28.39 980.86,26.34 979.9,25 C978.93,23.66 977.36,22.98 975.17,22.98 C973.14,22.98 971.65,23.45 970.7,24.37 C969.75,25.3 969.15,26.83 968.92,28.96 C968.92,28.96 957.47,28.41 957.47,28.41 C958.91,20.05 964.96,15.87 975.64,15.87 C980.98,15.87 985.09,17.19 987.98,19.82 C990.87,22.45 992.32,26.19 992.32,31.03 C992.32,31.03 992.32,46.42 992.32,46.42 C992.32,48.79 992.58,50.43 993.12,51.32 C993.65,52.22 994.54,52.67 995.79,52.67 C996.63,52.67 997.44,52.59 998.22,52.44 C998.22,52.44 998.22,58.37 998.22,58.37 C996.86,58.71 995.7,58.97 994.74,59.14 C993.78,59.31 992.59,59.39 991.19,59.39 C988.42,59.39 986.39,58.71 985.07,57.36 C983.76,56.01 982.97,54.01 982.71,51.38 C982.71,51.38 982.47,51.38 982.47,51.38 C980.94,54.14 979.01,56.22 976.69,57.61 C974.37,59.01 971.67,59.7 968.57,59.7z  M981.34 39.35 C981.34,39.35 975.72,39.43 975.72,39.43 C973.14,39.56 971.33,39.83 970.29,40.25 C969.22,40.72 968.4,41.42 967.85,42.36 C967.28,43.3 967.01,44.55 967.01,46.11 C967.01,48.12 967.47,49.61 968.39,50.58 C969.32,51.56 970.55,52.05 972.08,52.05 C973.8,52.05 975.38,51.58 976.81,50.64 C978.22,49.7 979.32,48.41 980.13,46.75 C980.94,45.1 981.34,43.35 981.34,41.5 C981.34,41.5 981.34,39.35 981.34,39.35z "/><path id="_R_G_L_2_G_D_21_P_0" fill="#c1c1c1" fill-opacity="1" fill-rule="nonzero" d=" M1019.31 59.7 C1012.91,59.7 1007.96,57.8 1004.47,53.98 C1000.98,50.17 999.24,44.85 999.24,38.02 C999.24,31.05 1000.99,25.61 1004.51,21.72 C1008.02,17.82 1013.01,15.88 1019.47,15.88 C1024.44,15.88 1028.56,17.13 1031.81,19.63 C1035.07,22.13 1037.11,25.58 1037.95,29.98 C1037.95,29.98 1026.89,30.52 1026.89,30.52 C1026.58,28.36 1025.8,26.64 1024.55,25.35 C1023.3,24.06 1021.53,23.41 1019.24,23.41 C1016.4,23.41 1014.27,24.59 1012.87,26.95 C1011.46,29.31 1010.76,32.85 1010.76,37.59 C1010.76,42.46 1011.48,46.12 1012.93,48.55 C1014.37,50.99 1016.53,52.2 1019.39,52.2 C1021.47,52.2 1023.22,51.55 1024.63,50.23 C1026.03,48.92 1026.9,46.96 1027.24,44.35 C1027.24,44.35 1038.26,44.86 1038.26,44.86 C1037.87,47.83 1036.82,50.43 1035.11,52.65 C1033.41,54.88 1031.2,56.61 1028.49,57.85 C1025.78,59.08 1022.72,59.7 1019.31,59.7z "/><path id="_R_G_L_2_G_D_22_P_0" fill="#c1c1c1" fill-opacity="1" fill-rule="nonzero" d=" M1055.56 9.04 C1055.56,9.04 1044.59,9.04 1044.59,9.04 C1044.59,9.04 1044.59,0.95 1044.59,0.95 C1044.59,0.95 1055.56,0.95 1055.56,0.95 C1055.56,0.95 1055.56,9.04 1055.56,9.04z    M1055.56 58.92 C1055.56,58.92 1044.59,58.92 1044.59,58.92 C1044.59,58.92 1044.59,16.66 1044.59,16.66 C1044.59,16.66 1055.56,16.66 1055.56,16.66 C1055.56,16.66 1055.56,58.92 1055.56,58.92z "/><path id="_R_G_L_2_G_D_23_P_0" fill="#c1c1c1" fill-opacity="1" fill-rule="nonzero" d=" M1105.37 37.75 C1105.37,44.6 1103.47,49.97 1099.67,53.86 C1095.86,57.76 1090.61,59.7 1083.89,59.7 C1077.3,59.7 1072.13,57.75 1068.38,53.84 C1064.63,49.94 1062.75,44.57 1062.75,37.75 C1062.75,30.95 1064.63,25.61 1068.38,21.71 C1072.13,17.82 1077.37,15.87 1084.12,15.87 C1091.02,15.87 1096.29,17.76 1099.92,21.52 C1103.55,25.28 1105.37,30.69 1105.37,37.75z  M1093.89 37.75 C1093.89,32.72 1093.07,29.08 1091.43,26.81 C1089.78,24.55 1087.4,23.41 1084.27,23.41 C1080.94,23.41 1078.44,24.6 1076.78,26.99 C1075.11,29.37 1074.28,32.96 1074.28,37.75 C1074.28,42.46 1075.09,46.05 1076.72,48.51 C1078.34,50.97 1080.7,52.2 1083.77,52.2 C1087.15,52.2 1089.69,51 1091.37,48.59 C1093.05,46.18 1093.89,42.57 1093.89,37.75z  M1097.71 1.93 C1097.71,1.93 1084.43,12.71 1084.43,12.71 C1084.43,12.71 1077.79,12.71 1077.79,12.71 C1077.79,12.71 1077.79,11.5 1077.79,11.5 C1077.79,11.5 1087.64,0.25 1087.64,0.25 C1087.64,0.25 1097.71,0.25 1097.71,0.25 C1097.71,0.25 1097.71,1.93 1097.71,1.93z "/><path id="_R_G_L_2_G_D_24_P_0" fill="#c1c1c1" fill-opacity="1" fill-rule="nonzero" d=" M1123.46 36.27 C1123.46,36.27 1123.46,58.92 1123.46,58.92 C1123.46,58.92 1112.48,58.92 1112.48,58.92 C1112.48,58.92 1112.48,26.11 1112.48,26.11 C1112.48,23.84 1112.45,21.99 1112.38,20.54 C1112.32,19.1 1112.25,17.8 1112.17,16.66 C1112.17,16.66 1122.64,16.66 1122.64,16.66 C1122.69,16.97 1122.75,17.7 1122.83,18.86 C1122.91,20.02 1122.98,21.21 1123.05,22.42 C1123.11,23.63 1123.15,24.51 1123.15,25.06 C1123.15,25.06 1123.3,25.06 1123.3,25.06 C1124.79,21.83 1126.65,19.48 1128.89,18.02 C1131.13,16.57 1133.8,15.84 1136.9,15.84 C1141.37,15.84 1144.81,17.22 1147.21,19.98 C1149.6,22.74 1150.8,26.77 1150.8,32.09 C1150.8,32.09 1150.8,58.92 1150.8,58.92 C1150.8,58.92 1139.86,58.92 1139.86,58.92 C1139.86,58.92 1139.86,35.21 1139.86,35.21 C1139.86,31.49 1139.24,28.7 1137.99,26.85 C1136.74,25 1134.85,24.08 1132.32,24.08 C1129.67,24.08 1127.52,25.22 1125.9,27.5 C1124.27,29.78 1123.46,32.7 1123.46,36.27z "/><path id="_R_G_L_2_G_D_25_P_0" fill="#c1c1c1" fill-opacity="1" fill-rule="nonzero" d=" M1207.76 58.92 C1207.7,58.66 1207.63,58.11 1207.52,57.28 C1207.42,56.45 1207.33,55.54 1207.27,54.55 C1207.2,53.56 1207.17,52.72 1207.17,52.05 C1207.17,52.05 1207.02,52.05 1207.02,52.05 C1205.82,54.6 1204.1,56.51 1201.86,57.79 C1199.62,59.06 1196.83,59.7 1193.5,59.7 C1188.58,59.7 1184.78,57.78 1182.09,53.94 C1179.41,50.1 1178.07,44.73 1178.07,37.83 C1178.07,30.82 1179.48,25.41 1182.31,21.6 C1185.13,17.78 1189.14,15.88 1194.32,15.88 C1197.31,15.88 1199.9,16.5 1202.07,17.75 C1204.25,19 1205.92,20.86 1207.09,23.34 C1207.09,23.34 1207.17,23.34 1207.17,23.34 C1207.17,23.34 1207.09,16.38 1207.09,16.38 C1207.09,16.38 1207.09,0.95 1207.09,0.95 C1207.09,0.95 1218.07,0.95 1218.07,0.95 C1218.07,0.95 1218.07,49.7 1218.07,49.7 C1218.07,51.01 1218.1,52.43 1218.15,53.96 C1218.2,55.5 1218.28,57.15 1218.38,58.92 C1218.38,58.92 1207.76,58.92 1207.76,58.92z  M1189.52 37.83 C1189.52,42.62 1190.24,46.21 1191.68,48.61 C1193.13,51.01 1195.28,52.2 1198.15,52.2 C1201.04,52.2 1203.28,50.93 1204.87,48.39 C1206.45,45.86 1207.25,42.24 1207.25,37.56 C1207.25,33 1206.49,29.49 1204.96,27.03 C1203.44,24.57 1201.2,23.34 1198.23,23.34 C1195.28,23.34 1193.1,24.53 1191.66,26.91 C1190.23,29.29 1189.52,32.93 1189.52,37.83z "/><path id="_R_G_L_2_G_D_26_P_0" fill="#c1c1c1" fill-opacity="1" fill-rule="nonzero" d=" M1236.71 39.9 C1236.71,44.01 1237.47,47.12 1238.99,49.22 C1240.51,51.31 1242.68,52.36 1245.49,52.36 C1247.42,52.36 1249,51.94 1250.24,51.09 C1251.48,50.25 1252.34,48.99 1252.84,47.32 C1252.84,47.32 1263.19,48.22 1263.19,48.22 C1260.2,55.88 1254.11,59.7 1244.95,59.7 C1238.59,59.7 1233.71,57.82 1230.3,54.06 C1226.89,50.3 1225.18,44.81 1225.18,37.59 C1225.18,30.62 1226.91,25.25 1230.38,21.5 C1233.84,17.75 1238.75,15.88 1245.1,15.88 C1251.17,15.88 1255.81,17.89 1259.01,21.91 C1262.21,25.93 1263.82,31.83 1263.82,39.59 C1263.82,39.59 1263.82,39.9 1263.82,39.9 C1263.82,39.9 1236.71,39.9 1236.71,39.9z  M1253.19 33.02 C1252.98,29.61 1252.16,27.05 1250.73,25.35 C1249.3,23.64 1247.37,22.79 1244.95,22.79 C1242.37,22.79 1240.38,23.69 1238.99,25.49 C1237.6,27.28 1236.86,29.8 1236.78,33.02 C1236.78,33.02 1253.19,33.02 1253.19,33.02z "/><path id="_R_G_L_2_G_D_27_P_0" fill="#c1c1c1" fill-opacity="1" fill-rule="nonzero" d=" M1302.29 58.92 C1302.29,58.92 1291,58.92 1291,58.92 C1291,58.92 1291,47.01 1291,47.01 C1291,47.01 1302.29,47.01 1302.29,47.01 C1302.29,47.01 1302.29,58.92 1302.29,58.92z "/><path id="_R_G_L_2_G_D_28_P_0" fill="#c1c1c1" fill-opacity="1" fill-rule="nonzero" d=" M1321.55 59.7 C1317.46,59.7 1314.27,58.59 1311.98,56.36 C1309.69,54.14 1308.55,51.01 1308.55,46.97 C1308.55,42.59 1309.97,39.27 1312.82,37.01 C1315.67,34.74 1319.81,33.56 1325.22,33.45 C1325.22,33.45 1334.33,33.3 1334.33,33.3 C1334.33,33.3 1334.33,31.15 1334.33,31.15 C1334.33,28.39 1333.84,26.34 1332.88,25 C1331.92,23.66 1330.34,22.98 1328.15,22.98 C1326.12,22.98 1324.63,23.45 1323.68,24.37 C1322.73,25.3 1322.14,26.83 1321.9,28.96 C1321.9,28.96 1310.46,28.41 1310.46,28.41 C1311.89,20.05 1317.95,15.87 1328.62,15.87 C1333.96,15.87 1338.08,17.19 1340.97,19.82 C1343.86,22.45 1345.3,26.19 1345.3,31.03 C1345.3,31.03 1345.3,46.42 1345.3,46.42 C1345.3,48.79 1345.57,50.43 1346.1,51.32 C1346.64,52.22 1347.53,52.67 1348.78,52.67 C1349.61,52.67 1350.42,52.59 1351.2,52.44 C1351.2,52.44 1351.2,58.37 1351.2,58.37 C1349.85,58.71 1348.69,58.97 1347.72,59.14 C1346.76,59.31 1345.58,59.39 1344.17,59.39 C1341.41,59.39 1339.37,58.71 1338.06,57.36 C1336.74,56.01 1335.95,54.01 1335.69,51.38 C1335.69,51.38 1335.46,51.38 1335.46,51.38 C1333.92,54.14 1332,56.22 1329.68,57.61 C1327.36,59.01 1324.65,59.7 1321.55,59.7z  M1334.33 39.35 C1334.33,39.35 1328.7,39.43 1328.7,39.43 C1326.12,39.56 1324.31,39.83 1323.27,40.25 C1322.2,40.72 1321.39,41.42 1320.83,42.36 C1320.27,43.3 1319.99,44.55 1319.99,46.11 C1319.99,48.12 1320.45,49.61 1321.38,50.58 C1322.3,51.56 1323.53,52.05 1325.07,52.05 C1326.79,52.05 1328.36,51.58 1329.8,50.64 C1331.2,49.7 1332.31,48.41 1333.12,46.75 C1333.92,45.1 1334.33,43.35 1334.33,41.5 C1334.33,41.5 1334.33,39.35 1334.33,39.35z "/><path id="_R_G_L_2_G_D_29_P_0" fill="#c1c1c1" fill-opacity="1" fill-rule="nonzero" d=" M1365.66 38.18 C1365.66,38.18 1365.66,58.92 1365.66,58.92 C1365.66,58.92 1354.68,58.92 1354.68,58.92 C1354.68,58.92 1354.68,26.58 1354.68,26.58 C1354.68,24.26 1354.65,22.33 1354.58,20.78 C1354.52,19.23 1354.45,17.85 1354.37,16.66 C1354.37,16.66 1364.84,16.66 1364.84,16.66 C1364.89,16.89 1364.94,17.41 1364.99,18.22 C1365.04,19.03 1365.1,19.93 1365.15,20.93 C1365.2,21.94 1365.25,22.88 1365.29,23.77 C1365.32,24.65 1365.34,25.29 1365.34,25.68 C1365.34,25.68 1365.5,25.68 1365.5,25.68 C1366.54,22.76 1367.49,20.67 1368.35,19.39 C1369.18,18.17 1370.17,17.27 1371.32,16.7 C1372.47,16.12 1373.9,15.84 1375.62,15.84 C1377.02,15.84 1378.16,16.03 1379.02,16.42 C1379.02,16.42 1379.02,25.6 1379.02,25.6 C1377.27,25.21 1375.71,25.02 1374.33,25.02 C1371.59,25.02 1369.47,26.12 1367.94,28.34 C1366.42,30.55 1365.66,33.83 1365.66,38.18z "/><path id="_R_G_L_2_G_D_30_P_0" fill="#c1c1c1" fill-opacity="1" fill-rule="nonzero" d=" M1401.83 59.7 C1395.42,59.7 1390.48,57.8 1386.99,53.98 C1383.5,50.17 1381.75,44.85 1381.75,38.02 C1381.75,31.05 1383.51,25.61 1387.02,21.72 C1390.54,17.82 1395.53,15.88 1401.99,15.88 C1406.96,15.88 1411.07,17.13 1414.33,19.63 C1417.58,22.13 1419.63,25.58 1420.46,29.98 C1420.46,29.98 1409.41,30.52 1409.41,30.52 C1409.1,28.36 1408.31,26.64 1407.06,25.35 C1405.81,24.06 1404.04,23.41 1401.75,23.41 C1398.91,23.41 1396.79,24.59 1395.38,26.95 C1393.98,29.31 1393.27,32.85 1393.27,37.59 C1393.27,42.46 1394,46.12 1395.44,48.55 C1396.89,50.99 1399.04,52.2 1401.91,52.2 C1403.99,52.2 1405.74,51.55 1407.14,50.23 C1408.55,48.92 1409.42,46.96 1409.76,44.35 C1409.76,44.35 1420.77,44.86 1420.77,44.86 C1420.38,47.83 1419.34,50.43 1417.63,52.65 C1415.92,54.88 1413.72,56.61 1411.01,57.85 C1408.3,59.08 1405.24,59.7 1401.83,59.7z "/><path id="_R_G_L_2_G_D_31_P_0" fill="#c1c1c1" fill-opacity="1" fill-rule="nonzero" d=" M1437.93 25.09 C1439.41,21.87 1441.27,19.52 1443.51,18.06 C1445.75,16.61 1448.42,15.88 1451.52,15.88 C1456,15.88 1459.44,17.26 1461.83,20.02 C1464.23,22.78 1465.43,26.81 1465.43,32.13 C1465.43,32.13 1465.43,58.92 1465.43,58.92 C1465.43,58.92 1454.49,58.92 1454.49,58.92 C1454.49,58.92 1454.49,35.25 1454.49,35.25 C1454.49,31.53 1453.86,28.74 1452.61,26.89 C1451.36,25.04 1449.47,24.12 1446.95,24.12 C1444.29,24.12 1442.15,25.26 1440.52,27.54 C1438.9,29.82 1438.08,32.74 1438.08,36.31 C1438.08,36.31 1438.08,58.92 1438.08,58.92 C1438.08,58.92 1427.11,58.92 1427.11,58.92 C1427.11,58.92 1427.11,0.95 1427.11,0.95 C1427.11,0.95 1438.08,0.95 1438.08,0.95 C1438.08,0.95 1438.08,16.77 1438.08,16.77 C1438.08,17.71 1438.07,18.65 1438.04,19.59 C1438.02,20.52 1437.98,21.45 1437.95,22.36 C1437.91,23.27 1437.85,24.18 1437.77,25.09 C1437.77,25.09 1437.93,25.09 1437.93,25.09z "/><path id="_R_G_L_2_G_D_32_P_0" fill="#c1c1c1" fill-opacity="1" fill-rule="nonzero" d=" M1485.35 9.04 C1485.35,9.04 1474.37,9.04 1474.37,9.04 C1474.37,9.04 1474.37,0.95 1474.37,0.95 C1474.37,0.95 1485.35,0.95 1485.35,0.95 C1485.35,0.95 1485.35,9.04 1485.35,9.04z    M1485.35 58.92 C1485.35,58.92 1474.37,58.92 1474.37,58.92 C1474.37,58.92 1474.37,16.66 1474.37,16.66 C1474.37,16.66 1485.35,16.66 1485.35,16.66 C1485.35,16.66 1485.35,58.92 1485.35,58.92z "/><path id="_R_G_L_2_G_D_33_P_0" fill="#c1c1c1" fill-opacity="1" fill-rule="nonzero" d=" M1507.89 24.08 C1507.89,24.08 1507.89,58.92 1507.89,58.92 C1507.89,58.92 1496.95,58.92 1496.95,58.92 C1496.95,58.92 1496.95,24.08 1496.95,24.08 C1496.95,24.08 1490.78,24.08 1490.78,24.08 C1490.78,24.08 1490.78,16.66 1490.78,16.66 C1490.78,16.66 1496.95,16.66 1496.95,16.66 C1496.95,16.66 1496.95,12.24 1496.95,12.24 C1496.95,8.41 1497.97,5.58 1500,3.73 C1502.03,1.88 1505.12,0.95 1509.26,0.95 C1511.39,0.95 1513.71,1.16 1516.21,1.58 C1516.21,1.58 1516.21,8.65 1516.21,8.65 C1515.17,8.41 1514.1,8.3 1513.01,8.3 C1511.13,8.3 1509.81,8.67 1509.04,9.41 C1508.27,10.15 1507.89,11.46 1507.89,13.34 C1507.89,13.34 1507.89,16.66 1507.89,16.66 C1507.89,16.66 1516.21,16.66 1516.21,16.66 C1516.21,16.66 1516.21,24.08 1516.21,24.08 C1516.21,24.08 1507.89,24.08 1507.89,24.08z "/><path id="_R_G_L_2_G_D_34_P_0" fill="#c1c1c1" fill-opacity="1" fill-rule="nonzero" d=" M1532.93 24.08 C1532.93,24.08 1532.93,58.92 1532.93,58.92 C1532.93,58.92 1521.99,58.92 1521.99,58.92 C1521.99,58.92 1521.99,24.08 1521.99,24.08 C1521.99,24.08 1515.82,24.08 1515.82,24.08 C1515.82,24.08 1515.82,16.66 1515.82,16.66 C1515.82,16.66 1521.99,16.66 1521.99,16.66 C1521.99,16.66 1521.99,12.24 1521.99,12.24 C1521.99,8.41 1523.01,5.58 1525.04,3.73 C1527.07,1.88 1530.16,0.95 1534.3,0.95 C1536.43,0.95 1538.75,1.16 1541.25,1.58 C1541.25,1.58 1541.25,8.65 1541.25,8.65 C1540.21,8.41 1539.14,8.3 1538.05,8.3 C1536.17,8.3 1534.85,8.67 1534.08,9.41 C1533.31,10.15 1532.93,11.46 1532.93,13.34 C1532.93,13.34 1532.93,16.66 1532.93,16.66 C1532.93,16.66 1541.25,16.66 1541.25,16.66 C1541.25,16.66 1541.25,24.08 1541.25,24.08 C1541.25,24.08 1532.93,24.08 1532.93,24.08z "/><path id="_R_G_L_2_G_D_35_P_0" fill="#c1c1c1" fill-opacity="1" fill-rule="nonzero" d=" M1583.75 18.84 C1583.75,21.37 1583.19,23.64 1582.05,25.64 C1580.92,27.65 1578.8,29.76 1575.71,31.97 C1575.71,31.97 1572.74,34.12 1572.74,34.12 C1569.3,36.57 1567.5,39.29 1567.35,42.28 C1567.35,42.28 1556.92,42.28 1556.92,42.28 C1557.02,40.51 1557.39,38.87 1558.01,37.36 C1558.64,35.85 1559.54,34.43 1560.72,33.1 C1561.91,31.77 1563.36,30.51 1565.08,29.31 C1566.96,28.01 1568.45,26.83 1569.55,25.78 C1570.66,24.72 1571.46,23.68 1571.96,22.65 C1572.45,21.62 1572.7,20.51 1572.7,19.31 C1572.7,17.02 1571.95,15.21 1570.45,13.88 C1568.95,12.55 1566.82,11.89 1564.06,11.89 C1561.43,11.89 1559.23,12.66 1557.44,14.2 C1555.66,15.73 1554.61,17.76 1554.3,20.29 C1554.3,20.29 1543.17,19.82 1543.17,19.82 C1543.87,14.53 1546.04,10.42 1549.69,7.48 C1553.34,4.53 1558.07,3.06 1563.91,3.06 C1570.08,3.06 1574.93,4.46 1578.46,7.26 C1581.99,10.06 1583.75,13.92 1583.75,18.84z    M1567.89 58.92 C1567.89,58.92 1556.6,58.92 1556.6,58.92 C1556.6,58.92 1556.6,48.38 1556.6,48.38 C1556.6,48.38 1567.89,48.38 1567.89,48.38 C1567.89,48.38 1567.89,58.92 1567.89,58.92z "/></g><g id="_R_G_L_1_G" transform=" translate(730.625, 107.25) scale(0.92484, 1.23613) translate(-801.5, -52)"><path id="_R_G_L_1_G_D_0_P_0" fill="#ffffff" fill-opacity="1" fill-rule="nonzero" d=" M0.25 103.4 C0.25,103.4 1602.18,103.4 1602.18,103.4 C1602.18,103.4 1602.18,0.25 1602.18,0.25 C1602.18,0.25 0.25,0.25 0.25,0.25 C0.25,0.25 0.25,103.4 0.25,103.4z "/></g><g id="_R_G_L_0_G" transform=" translate(724.625, 83.25) scale(0.90742, 0.90742) translate(-792.5, -38)"><path id="_R_G_L_0_G_D_0_P_0" fill="#000000" fill-opacity="1" fill-rule="nonzero" d=" M0.25 56.73 C0.25,54.21 0.82,51.94 1.95,49.94 C3.08,47.93 5.2,45.82 8.3,43.61 C8.3,43.61 11.31,41.46 11.31,41.46 C14.72,38.96 16.5,36.24 16.66,33.3 C16.66,33.3 27.09,33.3 27.09,33.3 C26.98,35.07 26.61,36.71 25.97,38.22 C25.33,39.73 24.43,41.14 23.26,42.46 C22.09,43.77 20.64,45.03 18.92,46.23 C17.07,47.53 15.59,48.71 14.47,49.76 C13.35,50.82 12.54,51.86 12.05,52.89 C11.55,53.92 11.31,55.04 11.31,56.27 C11.31,58.56 12.05,60.37 13.55,61.7 C15.05,63.02 17.18,63.69 19.94,63.69 C22.57,63.69 24.78,62.92 26.56,61.38 C28.34,59.85 29.39,57.82 29.7,55.29 C29.7,55.29 40.84,55.76 40.84,55.76 C40.13,61.05 37.96,65.16 34.31,68.1 C30.67,71.05 25.93,72.52 20.09,72.52 C13.92,72.52 9.07,71.11 5.54,68.32 C2.01,65.52 0.25,61.66 0.25,56.73z    M27.4 27.2 C27.4,27.2 16.11,27.2 16.11,27.2 C16.11,27.2 16.11,16.66 16.11,16.66 C16.11,16.66 27.4,16.66 27.4,16.66 C27.4,16.66 27.4,27.2 27.4,27.2z "/><path id="_R_G_L_0_G_D_1_P_0" fill="#000000" fill-opacity="1" fill-rule="nonzero" d=" M101.93 31.15 C101.93,36.04 101.12,40.41 99.49,44.24 C97.86,48.06 95.53,51.22 92.48,53.71 C89.43,56.19 85.76,57.88 81.46,58.77 C82.35,61.34 83.59,63.21 85.19,64.35 C86.79,65.5 89.04,66.07 91.93,66.07 C93.55,66.07 95.1,65.94 96.58,65.68 C96.58,65.68 96.5,73.57 96.5,73.57 C93.27,74.3 90.12,74.66 87.05,74.66 C82.8,74.66 79.29,73.48 76.5,71.11 C73.71,68.74 71.48,64.81 69.78,59.31 C64.83,58.84 60.62,57.41 57.13,55.02 C53.64,52.62 50.97,49.4 49.12,45.35 C47.27,41.3 46.35,36.57 46.35,31.15 C46.35,25.26 47.44,20.22 49.65,16.03 C51.85,11.84 55.02,8.63 59.18,6.4 C63.33,4.18 68.31,3.06 74.12,3.06 C79.95,3.06 84.94,4.19 89.08,6.44 C93.22,8.7 96.4,11.92 98.61,16.11 C100.82,20.3 101.93,25.32 101.93,31.15z  M90.17 31.15 C90.17,25.21 88.77,20.56 85.96,17.18 C83.14,13.81 79.2,12.13 74.12,12.13 C68.96,12.13 64.98,13.8 62.17,17.14 C59.35,20.49 57.95,25.16 57.95,31.15 C57.95,35.16 58.59,38.63 59.88,41.56 C61.17,44.49 63.02,46.74 65.43,48.32 C67.84,49.89 70.71,50.68 74.04,50.68 C79.2,50.68 83.18,48.99 85.98,45.6 C88.77,42.22 90.17,37.4 90.17,31.15z "/><path id="_R_G_L_0_G_D_2_P_0" fill="#000000" fill-opacity="1" fill-rule="nonzero" d=" M136.15 50.52 C134.69,53.73 132.84,56.06 130.59,57.52 C128.33,58.97 125.66,59.7 122.56,59.7 C118.08,59.7 114.64,58.33 112.25,55.58 C109.85,52.84 108.65,48.8 108.65,43.49 C108.65,43.49 108.65,16.66 108.65,16.66 C108.65,16.66 119.63,16.66 119.63,16.66 C119.63,16.66 119.63,40.37 119.63,40.37 C119.63,44.07 120.25,46.85 121.5,48.71 C122.75,50.57 124.63,51.5 127.13,51.5 C129.78,51.5 131.93,50.36 133.55,48.08 C135.18,45.8 136,42.88 136,39.31 C136,39.31 136,16.66 136,16.66 C136,16.66 146.97,16.66 146.97,16.66 C146.97,16.66 146.97,49.47 146.97,49.47 C146.97,51.27 147,52.95 147.05,54.53 C147.1,56.1 147.18,57.57 147.28,58.92 C147.28,58.92 136.82,58.92 136.82,58.92 C136.66,57.05 136.54,55.41 136.46,54 C136.39,52.59 136.35,51.44 136.35,50.52 C136.35,50.52 136.15,50.52 136.15,50.52z "/><path id="_R_G_L_0_G_D_3_P_0" fill="#000000" fill-opacity="1" fill-rule="nonzero" d=" M165.61 39.9 C165.61,44.02 166.37,47.12 167.89,49.22 C169.41,51.31 171.58,52.36 174.39,52.36 C176.32,52.36 177.9,51.94 179.14,51.09 C180.38,50.24 181.24,48.99 181.74,47.32 C181.74,47.32 192.09,48.22 192.09,48.22 C189.1,55.88 183.01,59.7 173.85,59.7 C167.49,59.7 162.61,57.82 159.2,54.06 C155.79,50.3 154.08,44.81 154.08,37.59 C154.08,30.62 155.81,25.25 159.28,21.5 C162.74,17.75 167.65,15.88 174,15.88 C180.07,15.88 184.71,17.89 187.91,21.91 C191.11,25.94 192.72,31.83 192.72,39.59 C192.72,39.59 192.72,39.9 192.72,39.9 C192.72,39.9 165.61,39.9 165.61,39.9z  M182.09 33.03 C181.88,29.61 181.06,27.05 179.63,25.35 C178.2,23.64 176.27,22.79 173.85,22.79 C171.27,22.79 169.28,23.69 167.89,25.49 C166.5,27.28 165.76,29.8 165.68,33.03 C165.68,33.03 182.09,33.03 182.09,33.03z  M187.21 1.93 C187.21,1.93 173.93,12.71 173.93,12.71 C173.93,12.71 167.29,12.71 167.29,12.71 C167.29,12.71 167.29,11.5 167.29,11.5 C167.29,11.5 177.13,0.25 177.13,0.25 C177.13,0.25 187.21,0.25 187.21,0.25 C187.21,0.25 187.21,1.93 187.21,1.93z "/><path id="_R_G_L_0_G_D_4_P_0" fill="#000000" fill-opacity="1" fill-rule="nonzero" d=" M229.13 39.9 C229.13,44.01 229.89,47.12 231.41,49.22 C232.93,51.31 235.1,52.36 237.92,52.36 C239.84,52.36 241.42,51.94 242.66,51.09 C243.9,50.25 244.76,48.99 245.26,47.32 C245.26,47.32 255.61,48.22 255.61,48.22 C252.61,55.88 246.53,59.7 237.37,59.7 C231.01,59.7 226.13,57.82 222.72,54.06 C219.31,50.3 217.6,44.81 217.6,37.59 C217.6,30.62 219.33,25.25 222.8,21.5 C226.26,17.75 231.17,15.88 237.52,15.88 C243.59,15.88 248.23,17.89 251.43,21.91 C254.63,25.93 256.23,31.83 256.23,39.59 C256.23,39.59 256.23,39.9 256.23,39.9 C256.23,39.9 229.13,39.9 229.13,39.9z  M245.61 33.02 C245.4,29.61 244.58,27.05 243.15,25.35 C241.72,23.64 239.79,22.79 237.37,22.79 C234.79,22.79 232.8,23.69 231.41,25.49 C230.02,27.28 229.28,29.8 229.2,33.02 C229.2,33.02 245.61,33.02 245.61,33.02z "/><path id="_R_G_L_0_G_D_5_P_0" fill="#000000" fill-opacity="1" fill-rule="nonzero" d=" M298.58 46.58 C298.58,50.67 296.91,53.88 293.56,56.21 C290.21,58.54 285.58,59.7 279.67,59.7 C273.87,59.7 269.42,58.79 266.33,56.95 C263.25,55.11 261.2,52.26 260.18,48.38 C260.18,48.38 269.83,46.93 269.83,46.93 C270.38,48.94 271.32,50.35 272.66,51.19 C274,52.02 276.34,52.44 279.67,52.44 C282.75,52.44 284.99,52.05 286.39,51.27 C287.8,50.48 288.5,49.26 288.5,47.6 C288.5,46.24 287.93,45.17 286.8,44.37 C285.67,43.58 283.75,42.91 281.04,42.36 C278.98,41.94 277.14,41.54 275.51,41.15 C273.89,40.76 272.49,40.38 271.33,40 C270.17,39.62 269.23,39.26 268.5,38.92 C266.34,37.85 264.69,36.49 263.56,34.82 C262.43,33.15 261.86,31.1 261.86,28.65 C261.86,24.61 263.42,21.47 266.53,19.22 C269.64,16.96 274.05,15.84 279.75,15.84 C284.78,15.84 288.82,16.81 291.88,18.77 C294.94,20.72 296.85,23.55 297.6,27.24 C297.6,27.24 287.88,28.26 287.88,28.26 C287.56,26.54 286.8,25.26 285.57,24.41 C284.35,23.57 282.41,23.14 279.75,23.14 C277.15,23.14 275.19,23.47 273.89,24.14 C272.59,24.8 271.94,25.91 271.94,27.48 C271.94,28.7 272.44,29.67 273.44,30.39 C274.45,31.1 276.13,31.7 278.5,32.17 C281.81,32.84 284.74,33.54 287.31,34.25 C289.88,34.97 291.94,35.82 293.5,36.81 C295.04,37.8 296.27,39.07 297.19,40.62 C298.12,42.17 298.58,44.16 298.58,46.58z "/><path id="_R_G_L_0_G_D_6_P_0" fill="#000000" fill-opacity="1" fill-rule="nonzero" d=" M345.85 37.59 C345.85,44.65 344.43,50.1 341.61,53.94 C338.78,57.78 334.79,59.7 329.64,59.7 C323.52,59.7 319.25,57.2 316.82,52.2 C316.82,52.2 316.59,52.2 316.59,52.2 C316.75,52.99 316.82,55.36 316.82,59.31 C316.82,59.31 316.82,75.52 316.82,75.52 C316.82,75.52 305.85,75.52 305.85,75.52 C305.85,75.52 305.85,26.38 305.85,26.38 C305.85,24.38 305.82,22.57 305.77,20.95 C305.71,19.34 305.64,17.91 305.53,16.66 C305.53,16.66 316.2,16.66 316.2,16.66 C316.3,16.97 316.39,17.5 316.45,18.24 C316.52,18.98 316.57,19.82 316.61,20.76 C316.65,21.7 316.67,22.62 316.67,23.53 C316.67,23.53 316.82,23.53 316.82,23.53 C318.05,20.93 319.79,18.98 322.06,17.69 C324.32,16.4 327.08,15.76 330.34,15.76 C335.26,15.76 339.08,17.65 341.78,21.44 C344.49,25.23 345.85,30.62 345.85,37.59z  M334.4 37.59 C334.4,32.85 333.68,29.3 332.23,26.93 C330.79,24.56 328.61,23.38 325.69,23.38 C322.77,23.38 320.54,24.65 318.99,27.2 C317.44,29.76 316.67,33.32 316.67,37.91 C316.67,42.46 317.44,45.99 318.99,48.47 C320.54,50.96 322.75,52.2 325.61,52.2 C328.55,52.2 330.76,50.99 332.21,48.55 C333.67,46.12 334.4,42.46 334.4,37.59z "/><path id="_R_G_L_0_G_D_7_P_0" fill="#000000" fill-opacity="1" fill-rule="nonzero" d=" M362.18 39.9 C362.18,44.01 362.94,47.12 364.46,49.22 C365.98,51.31 368.15,52.36 370.97,52.36 C372.89,52.36 374.47,51.94 375.71,51.09 C376.95,50.25 377.81,48.99 378.31,47.32 C378.31,47.32 388.66,48.22 388.66,48.22 C385.67,55.88 379.58,59.7 370.42,59.7 C364.06,59.7 359.18,57.82 355.77,54.06 C352.36,50.3 350.65,44.81 350.65,37.59 C350.65,30.62 352.38,25.25 355.85,21.5 C359.31,17.75 364.22,15.88 370.57,15.88 C376.64,15.88 381.28,17.89 384.48,21.91 C387.68,25.93 389.29,31.83 389.29,39.59 C389.29,39.59 389.29,39.9 389.29,39.9 C389.29,39.9 362.18,39.9 362.18,39.9z  M378.66 33.02 C378.45,29.61 377.63,27.05 376.2,25.35 C374.77,23.64 372.84,22.79 370.42,22.79 C367.84,22.79 365.85,23.69 364.46,25.49 C363.07,27.28 362.33,29.8 362.25,33.02 C362.25,33.02 378.66,33.02 378.66,33.02z "/><path id="_R_G_L_0_G_D_8_P_0" fill="#000000" fill-opacity="1" fill-rule="nonzero" d=" M406.98 38.18 C406.98,38.18 406.98,58.92 406.98,58.92 C406.98,58.92 396.01,58.92 396.01,58.92 C396.01,58.92 396.01,26.58 396.01,26.58 C396.01,24.26 395.97,22.33 395.91,20.78 C395.84,19.23 395.77,17.85 395.69,16.66 C395.69,16.66 406.16,16.66 406.16,16.66 C406.21,16.89 406.27,17.41 406.32,18.22 C406.37,19.03 406.42,19.93 406.48,20.93 C406.53,21.94 406.57,22.88 406.61,23.77 C406.65,24.65 406.67,25.29 406.67,25.68 C406.67,25.68 406.83,25.68 406.83,25.68 C407.87,22.76 408.82,20.67 409.68,19.39 C410.51,18.17 411.5,17.27 412.65,16.7 C413.79,16.12 415.23,15.84 416.94,15.84 C418.35,15.84 419.48,16.03 420.34,16.42 C420.34,16.42 420.34,25.6 420.34,25.6 C418.6,25.21 417.04,25.02 415.66,25.02 C412.92,25.02 410.79,26.12 409.27,28.34 C407.74,30.55 406.98,33.83 406.98,38.18z "/><path id="_R_G_L_0_G_D_9_P_0" fill="#000000" fill-opacity="1" fill-rule="nonzero" d=" M435.31 59.7 C431.22,59.7 428.03,58.59 425.73,56.36 C423.44,54.14 422.3,51.01 422.3,46.97 C422.3,42.59 423.72,39.27 426.57,37.01 C429.43,34.74 433.56,33.56 438.98,33.45 C438.98,33.45 448.08,33.3 448.08,33.3 C448.08,33.3 448.08,31.15 448.08,31.15 C448.08,28.39 447.6,26.34 446.63,25 C445.67,23.66 444.09,22.98 441.91,22.98 C439.88,22.98 438.38,23.45 437.43,24.37 C436.48,25.3 435.89,26.83 435.66,28.96 C435.66,28.96 424.21,28.41 424.21,28.41 C425.64,20.05 431.7,15.87 442.38,15.87 C447.71,15.87 451.83,17.19 454.72,19.82 C457.61,22.45 459.06,26.19 459.06,31.03 C459.06,31.03 459.06,46.42 459.06,46.42 C459.06,48.79 459.32,50.43 459.86,51.32 C460.39,52.22 461.28,52.67 462.53,52.67 C463.36,52.67 464.17,52.59 464.95,52.44 C464.95,52.44 464.95,58.37 464.95,58.37 C463.6,58.71 462.44,58.97 461.48,59.14 C460.51,59.31 459.33,59.39 457.92,59.39 C455.16,59.39 453.12,58.71 451.81,57.36 C450.49,56.01 449.71,54.01 449.45,51.38 C449.45,51.38 449.21,51.38 449.21,51.38 C447.67,54.14 445.75,56.22 443.43,57.61 C441.11,59.01 438.4,59.7 435.31,59.7z  M448.08 39.35 C448.08,39.35 442.45,39.43 442.45,39.43 C439.88,39.56 438.06,39.83 437.02,40.25 C435.96,40.72 435.14,41.42 434.58,42.36 C434.02,43.3 433.74,44.55 433.74,46.11 C433.74,48.12 434.2,49.61 435.13,50.58 C436.05,51.56 437.28,52.05 438.82,52.05 C440.54,52.05 442.11,51.58 443.55,50.64 C444.95,49.7 446.06,48.41 446.87,46.75 C447.67,45.1 448.08,43.35 448.08,41.5 C448.08,41.5 448.08,39.35 448.08,39.35z "/><path id="_R_G_L_0_G_D_10_P_0" fill="#000000" fill-opacity="1" fill-rule="nonzero" d=" M479.41 38.18 C479.41,38.18 479.41,58.92 479.41,58.92 C479.41,58.92 468.43,58.92 468.43,58.92 C468.43,58.92 468.43,26.58 468.43,26.58 C468.43,24.26 468.4,22.33 468.33,20.78 C468.27,19.23 468.2,17.85 468.12,16.66 C468.12,16.66 478.59,16.66 478.59,16.66 C478.64,16.89 478.69,17.41 478.74,18.22 C478.8,19.03 478.85,19.93 478.9,20.93 C478.95,21.94 479,22.88 479.04,23.77 C479.08,24.65 479.1,25.29 479.1,25.68 C479.1,25.68 479.25,25.68 479.25,25.68 C480.29,22.76 481.24,20.67 482.1,19.39 C482.94,18.17 483.93,17.27 485.07,16.7 C486.22,16.12 487.65,15.84 489.37,15.84 C490.78,15.84 491.91,16.03 492.77,16.42 C492.77,16.42 492.77,25.6 492.77,25.6 C491.02,25.21 489.46,25.02 488.08,25.02 C485.35,25.02 483.22,26.12 481.69,28.34 C480.17,30.55 479.41,33.83 479.41,38.18z "/><path id="_R_G_L_0_G_D_11_P_0" fill="#000000" fill-opacity="1" fill-rule="nonzero" d=" M545.97 58.92 C545.92,58.66 545.84,58.11 545.74,57.28 C545.63,56.45 545.55,55.54 545.49,54.55 C545.42,53.56 545.39,52.72 545.39,52.05 C545.39,52.05 545.23,52.05 545.23,52.05 C544.03,54.6 542.31,56.51 540.08,57.79 C537.84,59.06 535.05,59.7 531.72,59.7 C526.79,59.7 522.99,57.78 520.31,53.94 C517.63,50.1 516.29,44.73 516.29,37.83 C516.29,30.82 517.7,25.41 520.52,21.6 C523.35,17.78 527.35,15.88 532.54,15.88 C535.53,15.88 538.12,16.5 540.29,17.75 C542.46,19 544.14,20.86 545.31,23.34 C545.31,23.34 545.39,23.34 545.39,23.34 C545.39,23.34 545.31,16.38 545.31,16.38 C545.31,16.38 545.31,0.95 545.31,0.95 C545.31,0.95 556.29,0.95 556.29,0.95 C556.29,0.95 556.29,49.7 556.29,49.7 C556.29,51.01 556.31,52.43 556.36,53.96 C556.42,55.5 556.49,57.15 556.6,58.92 C556.6,58.92 545.97,58.92 545.97,58.92z  M527.73 37.83 C527.73,42.62 528.45,46.21 529.9,48.61 C531.34,51.01 533.5,52.2 536.36,52.2 C539.25,52.2 541.49,50.93 543.08,48.39 C544.67,45.86 545.47,42.24 545.47,37.56 C545.47,33 544.7,29.49 543.18,27.03 C541.66,24.57 539.41,23.34 536.44,23.34 C533.5,23.34 531.31,24.53 529.88,26.91 C528.45,29.29 527.73,32.93 527.73,37.83z "/><path id="_R_G_L_0_G_D_12_P_0" fill="#000000" fill-opacity="1" fill-rule="nonzero" d=" M574.92 39.9 C574.92,44.01 575.68,47.12 577.21,49.22 C578.73,51.31 580.9,52.36 583.71,52.36 C585.64,52.36 587.22,51.94 588.46,51.09 C589.69,50.25 590.56,48.99 591.05,47.32 C591.05,47.32 601.41,48.22 601.41,48.22 C598.41,55.88 592.33,59.7 583.16,59.7 C576.81,59.7 571.93,57.82 568.52,54.06 C565.1,50.3 563.4,44.81 563.4,37.59 C563.4,30.62 565.13,25.25 568.59,21.5 C572.06,17.75 576.97,15.88 583.32,15.88 C589.39,15.88 594.02,17.89 597.23,21.91 C600.43,25.93 602.03,31.83 602.03,39.59 C602.03,39.59 602.03,39.9 602.03,39.9 C602.03,39.9 574.92,39.9 574.92,39.9z  M591.41 33.02 C591.2,29.61 590.38,27.05 588.94,25.35 C587.51,23.64 585.59,22.79 583.16,22.79 C580.59,22.79 578.6,23.69 577.21,25.49 C575.81,27.28 575.08,29.8 575,33.02 C575,33.02 591.41,33.02 591.41,33.02z "/><path id="_R_G_L_0_G_D_13_P_0" fill="#000000" fill-opacity="1" fill-rule="nonzero" d=" M656.25 50.52 C654.79,53.73 652.94,56.06 650.68,57.52 C648.43,58.97 645.76,59.7 642.66,59.7 C638.18,59.7 634.74,58.33 632.35,55.58 C629.95,52.84 628.75,48.8 628.75,43.49 C628.75,43.49 628.75,16.66 628.75,16.66 C628.75,16.66 639.73,16.66 639.73,16.66 C639.73,16.66 639.73,40.37 639.73,40.37 C639.73,44.07 640.35,46.85 641.6,48.71 C642.85,50.57 644.73,51.5 647.23,51.5 C649.88,51.5 652.03,50.36 653.65,48.08 C655.28,45.8 656.1,42.88 656.1,39.31 C656.1,39.31 656.1,16.66 656.1,16.66 C656.1,16.66 667.07,16.66 667.07,16.66 C667.07,16.66 667.07,49.47 667.07,49.47 C667.07,51.27 667.1,52.95 667.15,54.53 C667.2,56.1 667.28,57.57 667.38,58.92 C667.38,58.92 656.92,58.92 656.92,58.92 C656.76,57.05 656.64,55.41 656.56,54 C656.49,52.59 656.45,51.44 656.45,50.52 C656.45,50.52 656.25,50.52 656.25,50.52z "/><path id="_R_G_L_0_G_D_14_P_0" fill="#000000" fill-opacity="1" fill-rule="nonzero" d=" M687.62 36.27 C687.62,36.27 687.62,58.92 687.62,58.92 C687.62,58.92 676.64,58.92 676.64,58.92 C676.64,58.92 676.64,26.11 676.64,26.11 C676.64,23.84 676.61,21.99 676.55,20.54 C676.48,19.1 676.41,17.8 676.33,16.66 C676.33,16.66 686.8,16.66 686.8,16.66 C686.85,16.97 686.92,17.7 687,18.86 C687.07,20.02 687.14,21.21 687.21,22.42 C687.27,23.63 687.31,24.51 687.31,25.06 C687.31,25.06 687.46,25.06 687.46,25.06 C688.95,21.83 690.81,19.48 693.05,18.02 C695.29,16.57 697.96,15.84 701.06,15.84 C705.54,15.84 708.97,17.22 711.37,19.98 C713.77,22.74 714.96,26.77 714.96,32.09 C714.96,32.09 714.96,58.92 714.96,58.92 C714.96,58.92 704.03,58.92 704.03,58.92 C704.03,58.92 704.03,35.21 704.03,35.21 C704.03,31.49 703.4,28.7 702.15,26.85 C700.9,25 699.01,24.08 696.49,24.08 C693.83,24.08 691.69,25.22 690.06,27.5 C688.43,29.78 687.62,32.7 687.62,36.27z "/><path id="_R_G_L_0_G_D_15_P_0" fill="#000000" fill-opacity="1" fill-rule="nonzero" d=" M733.68 59.7 C729.59,59.7 726.4,58.59 724.11,56.36 C721.81,54.14 720.67,51.01 720.67,46.97 C720.67,42.59 722.09,39.27 724.95,37.01 C727.8,34.74 731.93,33.56 737.35,33.45 C737.35,33.45 746.45,33.3 746.45,33.3 C746.45,33.3 746.45,31.15 746.45,31.15 C746.45,28.39 745.97,26.34 745.01,25 C744.04,23.66 742.47,22.98 740.28,22.98 C738.25,22.98 736.76,23.45 735.81,24.37 C734.85,25.3 734.26,26.83 734.03,28.96 C734.03,28.96 722.58,28.41 722.58,28.41 C724.01,20.05 730.07,15.87 740.75,15.87 C746.08,15.87 750.2,17.19 753.09,19.82 C755.98,22.45 757.43,26.19 757.43,31.03 C757.43,31.03 757.43,46.42 757.43,46.42 C757.43,48.79 757.69,50.43 758.23,51.32 C758.76,52.22 759.65,52.67 760.9,52.67 C761.74,52.67 762.54,52.59 763.33,52.44 C763.33,52.44 763.33,58.37 763.33,58.37 C761.97,58.71 760.81,58.97 759.85,59.14 C758.89,59.31 757.7,59.39 756.29,59.39 C753.53,59.39 751.5,58.71 750.18,57.36 C748.87,56.01 748.08,54.01 747.82,51.38 C747.82,51.38 747.58,51.38 747.58,51.38 C746.05,54.14 744.12,56.22 741.8,57.61 C739.48,59.01 736.78,59.7 733.68,59.7z  M746.45 39.35 C746.45,39.35 740.83,39.43 740.83,39.43 C738.25,39.56 736.44,39.83 735.4,40.25 C734.33,40.72 733.51,41.42 732.95,42.36 C732.39,43.3 732.11,44.55 732.11,46.11 C732.11,48.12 732.58,49.61 733.5,50.58 C734.43,51.56 735.66,52.05 737.19,52.05 C738.91,52.05 740.49,51.58 741.92,50.64 C743.33,49.7 744.43,48.41 745.24,46.75 C746.05,45.1 746.45,43.35 746.45,41.5 C746.45,41.5 746.45,39.35 746.45,39.35z "/><path id="_R_G_L_0_G_D_16_P_0" fill="#000000" fill-opacity="1" fill-rule="nonzero" d=" M800.32 24.08 C800.32,24.08 800.32,58.92 800.32,58.92 C800.32,58.92 789.38,58.92 789.38,58.92 C789.38,58.92 789.38,24.08 789.38,24.08 C789.38,24.08 783.21,24.08 783.21,24.08 C783.21,24.08 783.21,16.66 783.21,16.66 C783.21,16.66 789.38,16.66 789.38,16.66 C789.38,16.66 789.38,12.24 789.38,12.24 C789.38,8.41 790.4,5.58 792.43,3.73 C794.46,1.88 797.55,0.95 801.69,0.95 C803.82,0.95 806.14,1.16 808.64,1.58 C808.64,1.58 808.64,8.65 808.64,8.65 C807.6,8.41 806.53,8.3 805.44,8.3 C803.56,8.3 802.24,8.67 801.47,9.41 C800.71,10.15 800.32,11.46 800.32,13.34 C800.32,13.34 800.32,16.66 800.32,16.66 C800.32,16.66 808.64,16.66 808.64,16.66 C808.64,16.66 808.64,24.08 808.64,24.08 C808.64,24.08 800.32,24.08 800.32,24.08z "/><path id="_R_G_L_0_G_D_17_P_0" fill="#000000" fill-opacity="1" fill-rule="nonzero" d=" M852.63 37.75 C852.63,44.6 850.73,49.97 846.92,53.86 C843.12,57.76 837.86,59.7 831.14,59.7 C824.55,59.7 819.38,57.75 815.63,53.84 C811.88,49.94 810.01,44.57 810.01,37.75 C810.01,30.95 811.88,25.61 815.63,21.72 C819.38,17.82 824.63,15.88 831.38,15.88 C838.28,15.88 843.55,17.76 847.18,21.52 C850.81,25.28 852.63,30.69 852.63,37.75z  M841.14 37.75 C841.14,32.73 840.32,29.08 838.68,26.81 C837.04,24.55 834.66,23.41 831.53,23.41 C828.2,23.41 825.7,24.61 824.03,26.99 C822.37,29.37 821.53,32.96 821.53,37.75 C821.53,42.46 822.35,46.05 823.98,48.51 C825.6,50.97 827.95,52.2 831.03,52.2 C834.41,52.2 836.94,51 838.62,48.59 C840.3,46.18 841.14,42.57 841.14,37.75z "/><path id="_R_G_L_0_G_D_18_P_0" fill="#000000" fill-opacity="1" fill-rule="nonzero" d=" M870.71 38.18 C870.71,38.18 870.71,58.92 870.71,58.92 C870.71,58.92 859.74,58.92 859.74,58.92 C859.74,58.92 859.74,26.58 859.74,26.58 C859.74,24.26 859.7,22.33 859.64,20.78 C859.57,19.23 859.5,17.85 859.43,16.66 C859.43,16.66 869.89,16.66 869.89,16.66 C869.95,16.89 870,17.41 870.05,18.22 C870.1,19.03 870.15,19.93 870.21,20.93 C870.26,21.94 870.3,22.88 870.34,23.77 C870.38,24.65 870.4,25.29 870.4,25.68 C870.4,25.68 870.56,25.68 870.56,25.68 C871.6,22.76 872.55,20.67 873.41,19.39 C874.24,18.17 875.23,17.27 876.38,16.7 C877.52,16.12 878.96,15.84 880.68,15.84 C882.08,15.84 883.21,16.03 884.07,16.42 C884.07,16.42 884.07,25.6 884.07,25.6 C882.33,25.21 880.77,25.02 879.39,25.02 C876.65,25.02 874.52,26.12 873,28.34 C871.48,30.55 870.71,33.83 870.71,38.18z "/><path id="_R_G_L_0_G_D_19_P_0" fill="#000000" fill-opacity="1" fill-rule="nonzero" d=" M900.25 36.27 C900.25,36.27 900.25,58.92 900.25,58.92 C900.25,58.92 889.27,58.92 889.27,58.92 C889.27,58.92 889.27,26.11 889.27,26.11 C889.27,23.84 889.24,21.99 889.17,20.54 C889.11,19.1 889.04,17.8 888.96,16.66 C888.96,16.66 899.43,16.66 899.43,16.66 C899.48,16.97 899.54,17.7 899.62,18.86 C899.7,20.02 899.77,21.21 899.84,22.42 C899.9,23.63 899.94,24.51 899.94,25.06 C899.94,25.06 900.09,25.06 900.09,25.06 C901.44,21.83 903.13,19.48 905.15,18.02 C907.17,16.57 909.58,15.84 912.4,15.84 C915.62,15.84 918.22,16.6 920.19,18.14 C922.15,19.68 923.48,21.98 924.15,25.06 C924.15,25.06 924.39,25.06 924.39,25.06 C925.82,21.77 927.54,19.42 929.54,17.99 C931.55,16.55 934.1,15.84 937.2,15.84 C941.31,15.84 944.45,17.24 946.61,20.04 C948.78,22.83 949.86,26.85 949.86,32.09 C949.86,32.09 949.86,58.92 949.86,58.92 C949.86,58.92 938.96,58.92 938.96,58.92 C938.96,58.92 938.96,35.21 938.96,35.21 C938.96,31.49 938.42,28.7 937.36,26.85 C936.29,25 934.69,24.08 932.55,24.08 C930.42,24.08 928.63,25.11 927.2,27.18 C925.77,29.25 925.05,32.11 925.05,35.76 C925.05,35.76 925.05,58.92 925.05,58.92 C925.05,58.92 914.15,58.92 914.15,58.92 C914.15,58.92 914.15,35.21 914.15,35.21 C914.15,31.49 913.62,28.7 912.55,26.85 C911.48,25 909.88,24.08 907.75,24.08 C905.53,24.08 903.73,25.21 902.34,27.48 C900.94,29.74 900.25,32.67 900.25,36.27z "/><path id="_R_G_L_0_G_D_20_P_0" fill="#000000" fill-opacity="1" fill-rule="nonzero" d=" M968.57 59.7 C964.48,59.7 961.29,58.59 959,56.36 C956.71,54.14 955.56,51.01 955.56,46.97 C955.56,42.59 956.99,39.27 959.84,37.01 C962.69,34.74 966.82,33.56 972.24,33.45 C972.24,33.45 981.34,33.3 981.34,33.3 C981.34,33.3 981.34,31.15 981.34,31.15 C981.34,28.39 980.86,26.34 979.9,25 C978.93,23.66 977.36,22.98 975.17,22.98 C973.14,22.98 971.65,23.45 970.7,24.37 C969.75,25.3 969.15,26.83 968.92,28.96 C968.92,28.96 957.48,28.41 957.48,28.41 C958.91,20.05 964.96,15.87 975.64,15.87 C980.98,15.87 985.09,17.19 987.98,19.82 C990.87,22.45 992.32,26.19 992.32,31.03 C992.32,31.03 992.32,46.42 992.32,46.42 C992.32,48.79 992.59,50.43 993.12,51.32 C993.65,52.22 994.55,52.67 995.8,52.67 C996.63,52.67 997.44,52.59 998.22,52.44 C998.22,52.44 998.22,58.37 998.22,58.37 C996.86,58.71 995.7,58.97 994.74,59.14 C993.78,59.31 992.59,59.39 991.19,59.39 C988.43,59.39 986.39,58.71 985.07,57.36 C983.76,56.01 982.97,54.01 982.71,51.38 C982.71,51.38 982.48,51.38 982.48,51.38 C980.94,54.14 979.01,56.22 976.69,57.61 C974.38,59.01 971.67,59.7 968.57,59.7z  M981.34 39.35 C981.34,39.35 975.72,39.43 975.72,39.43 C973.14,39.56 971.33,39.83 970.29,40.25 C969.22,40.72 968.41,41.42 967.85,42.36 C967.29,43.3 967.01,44.55 967.01,46.11 C967.01,48.12 967.47,49.61 968.39,50.58 C969.32,51.56 970.55,52.05 972.08,52.05 C973.8,52.05 975.38,51.58 976.81,50.64 C978.22,49.7 979.32,48.41 980.13,46.75 C980.94,45.1 981.34,43.35 981.34,41.5 C981.34,41.5 981.34,39.35 981.34,39.35z "/><path id="_R_G_L_0_G_D_21_P_0" fill="#000000" fill-opacity="1" fill-rule="nonzero" d=" M1019.31 59.7 C1012.91,59.7 1007.96,57.8 1004.47,53.98 C1000.98,50.17 999.24,44.85 999.24,38.02 C999.24,31.05 1000.99,25.61 1004.51,21.72 C1008.02,17.82 1013.01,15.88 1019.47,15.88 C1024.44,15.88 1028.56,17.13 1031.81,19.63 C1035.07,22.13 1037.11,25.58 1037.95,29.98 C1037.95,29.98 1026.89,30.52 1026.89,30.52 C1026.58,28.36 1025.8,26.64 1024.55,25.35 C1023.3,24.06 1021.53,23.41 1019.24,23.41 C1016.4,23.41 1014.27,24.59 1012.87,26.95 C1011.46,29.31 1010.76,32.85 1010.76,37.59 C1010.76,42.46 1011.48,46.12 1012.93,48.55 C1014.37,50.99 1016.53,52.2 1019.39,52.2 C1021.47,52.2 1023.22,51.55 1024.62,50.23 C1026.03,48.92 1026.9,46.96 1027.24,44.35 C1027.24,44.35 1038.26,44.86 1038.26,44.86 C1037.87,47.83 1036.82,50.43 1035.11,52.65 C1033.41,54.88 1031.2,56.61 1028.49,57.85 C1025.78,59.08 1022.72,59.7 1019.31,59.7z "/><path id="_R_G_L_0_G_D_22_P_0" fill="#000000" fill-opacity="1" fill-rule="nonzero" d=" M1055.56 9.04 C1055.56,9.04 1044.59,9.04 1044.59,9.04 C1044.59,9.04 1044.59,0.95 1044.59,0.95 C1044.59,0.95 1055.56,0.95 1055.56,0.95 C1055.56,0.95 1055.56,9.04 1055.56,9.04z    M1055.56 58.92 C1055.56,58.92 1044.59,58.92 1044.59,58.92 C1044.59,58.92 1044.59,16.66 1044.59,16.66 C1044.59,16.66 1055.56,16.66 1055.56,16.66 C1055.56,16.66 1055.56,58.92 1055.56,58.92z "/><path id="_R_G_L_0_G_D_23_P_0" fill="#000000" fill-opacity="1" fill-rule="nonzero" d=" M1105.37 37.75 C1105.37,44.6 1103.47,49.97 1099.67,53.86 C1095.86,57.76 1090.61,59.7 1083.89,59.7 C1077.3,59.7 1072.13,57.75 1068.38,53.84 C1064.63,49.94 1062.75,44.57 1062.75,37.75 C1062.75,30.95 1064.63,25.61 1068.38,21.72 C1072.13,17.82 1077.37,15.88 1084.12,15.88 C1091.02,15.88 1096.29,17.76 1099.92,21.52 C1103.55,25.29 1105.37,30.69 1105.37,37.75z  M1093.89 37.75 C1093.89,32.73 1093.07,29.08 1091.43,26.81 C1089.78,24.55 1087.4,23.42 1084.27,23.42 C1080.94,23.42 1078.44,24.61 1076.78,26.99 C1075.11,29.37 1074.28,32.96 1074.28,37.75 C1074.28,42.46 1075.09,46.05 1076.72,48.51 C1078.34,50.97 1080.7,52.2 1083.77,52.2 C1087.15,52.2 1089.69,51 1091.37,48.59 C1093.05,46.18 1093.89,42.57 1093.89,37.75z  M1097.71 1.93 C1097.71,1.93 1084.43,12.71 1084.43,12.71 C1084.43,12.71 1077.79,12.71 1077.79,12.71 C1077.79,12.71 1077.79,11.5 1077.79,11.5 C1077.79,11.5 1087.64,0.25 1087.64,0.25 C1087.64,0.25 1097.71,0.25 1097.71,0.25 C1097.71,0.25 1097.71,1.93 1097.71,1.93z "/><path id="_R_G_L_0_G_D_24_P_0" fill="#000000" fill-opacity="1" fill-rule="nonzero" d=" M1123.46 36.27 C1123.46,36.27 1123.46,58.92 1123.46,58.92 C1123.46,58.92 1112.48,58.92 1112.48,58.92 C1112.48,58.92 1112.48,26.11 1112.48,26.11 C1112.48,23.84 1112.45,21.99 1112.38,20.54 C1112.32,19.1 1112.25,17.8 1112.17,16.66 C1112.17,16.66 1122.64,16.66 1122.64,16.66 C1122.69,16.97 1122.75,17.7 1122.83,18.86 C1122.91,20.02 1122.98,21.21 1123.05,22.42 C1123.11,23.63 1123.15,24.51 1123.15,25.06 C1123.15,25.06 1123.3,25.06 1123.3,25.06 C1124.79,21.83 1126.65,19.48 1128.89,18.02 C1131.13,16.57 1133.8,15.84 1136.9,15.84 C1141.37,15.84 1144.81,17.22 1147.21,19.98 C1149.6,22.74 1150.8,26.77 1150.8,32.09 C1150.8,32.09 1150.8,58.92 1150.8,58.92 C1150.8,58.92 1139.86,58.92 1139.86,58.92 C1139.86,58.92 1139.86,35.21 1139.86,35.21 C1139.86,31.49 1139.24,28.7 1137.99,26.85 C1136.74,25 1134.85,24.08 1132.32,24.08 C1129.67,24.08 1127.52,25.22 1125.9,27.5 C1124.27,29.78 1123.46,32.7 1123.46,36.27z "/><path id="_R_G_L_0_G_D_25_P_0" fill="#000000" fill-opacity="1" fill-rule="nonzero" d=" M1207.76 58.92 C1207.7,58.66 1207.63,58.11 1207.52,57.28 C1207.42,56.45 1207.33,55.54 1207.27,54.55 C1207.2,53.56 1207.17,52.72 1207.17,52.05 C1207.17,52.05 1207.02,52.05 1207.02,52.05 C1205.82,54.6 1204.1,56.51 1201.86,57.79 C1199.62,59.06 1196.83,59.7 1193.5,59.7 C1188.58,59.7 1184.78,57.78 1182.09,53.94 C1179.41,50.1 1178.07,44.73 1178.07,37.83 C1178.07,30.82 1179.48,25.41 1182.31,21.6 C1185.13,17.78 1189.14,15.88 1194.32,15.88 C1197.31,15.88 1199.9,16.5 1202.07,17.75 C1204.25,19 1205.92,20.86 1207.09,23.34 C1207.09,23.34 1207.17,23.34 1207.17,23.34 C1207.17,23.34 1207.09,16.38 1207.09,16.38 C1207.09,16.38 1207.09,0.95 1207.09,0.95 C1207.09,0.95 1218.07,0.95 1218.07,0.95 C1218.07,0.95 1218.07,49.7 1218.07,49.7 C1218.07,51.01 1218.1,52.43 1218.15,53.96 C1218.2,55.5 1218.28,57.15 1218.38,58.92 C1218.38,58.92 1207.76,58.92 1207.76,58.92z  M1189.52 37.83 C1189.52,42.62 1190.24,46.21 1191.68,48.61 C1193.13,51.01 1195.28,52.2 1198.15,52.2 C1201.04,52.2 1203.28,50.93 1204.87,48.39 C1206.45,45.86 1207.25,42.24 1207.25,37.56 C1207.25,33 1206.49,29.49 1204.96,27.03 C1203.44,24.57 1201.2,23.34 1198.23,23.34 C1195.28,23.34 1193.1,24.53 1191.66,26.91 C1190.23,29.29 1189.52,32.93 1189.52,37.83z "/><path id="_R_G_L_0_G_D_26_P_0" fill="#000000" fill-opacity="1" fill-rule="nonzero" d=" M1236.71 39.9 C1236.71,44.01 1237.47,47.12 1238.99,49.22 C1240.51,51.31 1242.68,52.36 1245.49,52.36 C1247.42,52.36 1249,51.94 1250.24,51.09 C1251.48,50.25 1252.34,48.99 1252.84,47.32 C1252.84,47.32 1263.19,48.22 1263.19,48.22 C1260.2,55.88 1254.11,59.7 1244.95,59.7 C1238.59,59.7 1233.71,57.82 1230.3,54.06 C1226.89,50.3 1225.18,44.81 1225.18,37.59 C1225.18,30.62 1226.91,25.25 1230.38,21.5 C1233.84,17.75 1238.75,15.88 1245.1,15.88 C1251.17,15.88 1255.81,17.89 1259.01,21.91 C1262.21,25.93 1263.82,31.83 1263.82,39.59 C1263.82,39.59 1263.82,39.9 1263.82,39.9 C1263.82,39.9 1236.71,39.9 1236.71,39.9z  M1253.19 33.02 C1252.98,29.61 1252.16,27.05 1250.73,25.35 C1249.3,23.64 1247.37,22.79 1244.95,22.79 C1242.37,22.79 1240.38,23.69 1238.99,25.49 C1237.6,27.28 1236.86,29.8 1236.78,33.02 C1236.78,33.02 1253.19,33.02 1253.19,33.02z "/><path id="_R_G_L_0_G_D_27_P_0" fill="#000000" fill-opacity="1" fill-rule="nonzero" d=" M1302.29 58.92 C1302.29,58.92 1291,58.92 1291,58.92 C1291,58.92 1291,47.01 1291,47.01 C1291,47.01 1302.29,47.01 1302.29,47.01 C1302.29,47.01 1302.29,58.92 1302.29,58.92z "/><path id="_R_G_L_0_G_D_28_P_0" fill="#000000" fill-opacity="1" fill-rule="nonzero" d=" M1321.55 59.7 C1317.46,59.7 1314.27,58.59 1311.98,56.36 C1309.69,54.14 1308.55,51.01 1308.55,46.97 C1308.55,42.59 1309.97,39.27 1312.82,37.01 C1315.67,34.74 1319.81,33.56 1325.22,33.45 C1325.22,33.45 1334.33,33.3 1334.33,33.3 C1334.33,33.3 1334.33,31.15 1334.33,31.15 C1334.33,28.39 1333.84,26.34 1332.88,25 C1331.92,23.66 1330.34,22.98 1328.15,22.98 C1326.12,22.98 1324.63,23.45 1323.68,24.37 C1322.73,25.3 1322.14,26.83 1321.9,28.96 C1321.9,28.96 1310.46,28.41 1310.46,28.41 C1311.89,20.05 1317.95,15.87 1328.62,15.87 C1333.96,15.87 1338.08,17.19 1340.97,19.82 C1343.86,22.45 1345.3,26.19 1345.3,31.03 C1345.3,31.03 1345.3,46.42 1345.3,46.42 C1345.3,48.79 1345.57,50.43 1346.1,51.32 C1346.64,52.22 1347.53,52.67 1348.78,52.67 C1349.61,52.67 1350.42,52.59 1351.2,52.44 C1351.2,52.44 1351.2,58.37 1351.2,58.37 C1349.85,58.71 1348.69,58.97 1347.72,59.14 C1346.76,59.31 1345.58,59.39 1344.17,59.39 C1341.41,59.39 1339.37,58.71 1338.06,57.36 C1336.74,56.01 1335.95,54.01 1335.69,51.38 C1335.69,51.38 1335.46,51.38 1335.46,51.38 C1333.92,54.14 1332,56.22 1329.68,57.61 C1327.36,59.01 1324.65,59.7 1321.55,59.7z  M1334.33 39.35 C1334.33,39.35 1328.7,39.43 1328.7,39.43 C1326.12,39.56 1324.31,39.83 1323.27,40.25 C1322.2,40.72 1321.39,41.42 1320.83,42.36 C1320.27,43.3 1319.99,44.55 1319.99,46.11 C1319.99,48.12 1320.45,49.61 1321.38,50.58 C1322.3,51.56 1323.53,52.05 1325.07,52.05 C1326.79,52.05 1328.36,51.58 1329.8,50.64 C1331.2,49.7 1332.31,48.41 1333.12,46.75 C1333.92,45.1 1334.33,43.35 1334.33,41.5 C1334.33,41.5 1334.33,39.35 1334.33,39.35z "/><path id="_R_G_L_0_G_D_29_P_0" fill="#000000" fill-opacity="1" fill-rule="nonzero" d=" M1365.66 38.18 C1365.66,38.18 1365.66,58.92 1365.66,58.92 C1365.66,58.92 1354.68,58.92 1354.68,58.92 C1354.68,58.92 1354.68,26.58 1354.68,26.58 C1354.68,24.26 1354.65,22.33 1354.58,20.78 C1354.52,19.23 1354.45,17.85 1354.37,16.66 C1354.37,16.66 1364.84,16.66 1364.84,16.66 C1364.89,16.89 1364.94,17.41 1364.99,18.22 C1365.04,19.03 1365.1,19.93 1365.15,20.93 C1365.2,21.94 1365.25,22.88 1365.29,23.77 C1365.32,24.65 1365.34,25.29 1365.34,25.68 C1365.34,25.68 1365.5,25.68 1365.5,25.68 C1366.54,22.76 1367.49,20.67 1368.35,19.39 C1369.18,18.17 1370.17,17.27 1371.32,16.7 C1372.47,16.12 1373.9,15.84 1375.62,15.84 C1377.02,15.84 1378.16,16.03 1379.02,16.42 C1379.02,16.42 1379.02,25.6 1379.02,25.6 C1377.27,25.21 1375.71,25.02 1374.33,25.02 C1371.59,25.02 1369.47,26.12 1367.94,28.34 C1366.42,30.55 1365.66,33.83 1365.66,38.18z "/><path id="_R_G_L_0_G_D_30_P_0" fill="#000000" fill-opacity="1" fill-rule="nonzero" d=" M1401.83 59.7 C1395.42,59.7 1390.48,57.8 1386.99,53.98 C1383.5,50.17 1381.75,44.85 1381.75,38.02 C1381.75,31.05 1383.51,25.61 1387.02,21.72 C1390.54,17.82 1395.53,15.88 1401.99,15.88 C1406.96,15.88 1411.07,17.13 1414.33,19.63 C1417.58,22.13 1419.63,25.58 1420.46,29.98 C1420.46,29.98 1409.41,30.52 1409.41,30.52 C1409.1,28.36 1408.31,26.64 1407.06,25.35 C1405.81,24.06 1404.04,23.41 1401.75,23.41 C1398.91,23.41 1396.79,24.59 1395.38,26.95 C1393.98,29.31 1393.27,32.85 1393.27,37.59 C1393.27,42.46 1394,46.12 1395.44,48.55 C1396.89,50.99 1399.04,52.2 1401.91,52.2 C1403.99,52.2 1405.74,51.55 1407.14,50.23 C1408.55,48.92 1409.42,46.96 1409.76,44.35 C1409.76,44.35 1420.77,44.86 1420.77,44.86 C1420.38,47.83 1419.34,50.43 1417.63,52.65 C1415.92,54.88 1413.72,56.61 1411.01,57.85 C1408.3,59.08 1405.24,59.7 1401.83,59.7z "/><path id="_R_G_L_0_G_D_31_P_0" fill="#000000" fill-opacity="1" fill-rule="nonzero" d=" M1437.93 25.09 C1439.41,21.87 1441.27,19.52 1443.51,18.06 C1445.75,16.61 1448.42,15.88 1451.52,15.88 C1456,15.88 1459.44,17.26 1461.83,20.02 C1464.23,22.78 1465.43,26.81 1465.43,32.13 C1465.43,32.13 1465.43,58.92 1465.43,58.92 C1465.43,58.92 1454.49,58.92 1454.49,58.92 C1454.49,58.92 1454.49,35.25 1454.49,35.25 C1454.49,31.53 1453.86,28.74 1452.61,26.89 C1451.36,25.04 1449.47,24.12 1446.95,24.12 C1444.29,24.12 1442.15,25.26 1440.52,27.54 C1438.9,29.82 1438.08,32.74 1438.08,36.31 C1438.08,36.31 1438.08,58.92 1438.08,58.92 C1438.08,58.92 1427.11,58.92 1427.11,58.92 C1427.11,58.92 1427.11,0.95 1427.11,0.95 C1427.11,0.95 1438.08,0.95 1438.08,0.95 C1438.08,0.95 1438.08,16.77 1438.08,16.77 C1438.08,17.71 1438.07,18.65 1438.04,19.59 C1438.02,20.52 1437.98,21.45 1437.95,22.36 C1437.91,23.27 1437.85,24.18 1437.77,25.09 C1437.77,25.09 1437.93,25.09 1437.93,25.09z "/><path id="_R_G_L_0_G_D_32_P_0" fill="#000000" fill-opacity="1" fill-rule="nonzero" d=" M1485.35 9.04 C1485.35,9.04 1474.37,9.04 1474.37,9.04 C1474.37,9.04 1474.37,0.95 1474.37,0.95 C1474.37,0.95 1485.35,0.95 1485.35,0.95 C1485.35,0.95 1485.35,9.04 1485.35,9.04z    M1485.35 58.92 C1485.35,58.92 1474.37,58.92 1474.37,58.92 C1474.37,58.92 1474.37,16.66 1474.37,16.66 C1474.37,16.66 1485.35,16.66 1485.35,16.66 C1485.35,16.66 1485.35,58.92 1485.35,58.92z "/><path id="_R_G_L_0_G_D_33_P_0" fill="#000000" fill-opacity="1" fill-rule="nonzero" d=" M1507.89 24.08 C1507.89,24.08 1507.89,58.92 1507.89,58.92 C1507.89,58.92 1496.95,58.92 1496.95,58.92 C1496.95,58.92 1496.95,24.08 1496.95,24.08 C1496.95,24.08 1490.78,24.08 1490.78,24.08 C1490.78,24.08 1490.78,16.66 1490.78,16.66 C1490.78,16.66 1496.95,16.66 1496.95,16.66 C1496.95,16.66 1496.95,12.24 1496.95,12.24 C1496.95,8.41 1497.97,5.58 1500,3.73 C1502.03,1.88 1505.12,0.95 1509.26,0.95 C1511.39,0.95 1513.71,1.16 1516.21,1.58 C1516.21,1.58 1516.21,8.65 1516.21,8.65 C1515.17,8.41 1514.1,8.3 1513.01,8.3 C1511.13,8.3 1509.81,8.67 1509.04,9.41 C1508.27,10.15 1507.89,11.46 1507.89,13.34 C1507.89,13.34 1507.89,16.66 1507.89,16.66 C1507.89,16.66 1516.21,16.66 1516.21,16.66 C1516.21,16.66 1516.21,24.08 1516.21,24.08 C1516.21,24.08 1507.89,24.08 1507.89,24.08z "/><path id="_R_G_L_0_G_D_34_P_0" fill="#000000" fill-opacity="1" fill-rule="nonzero" d=" M1532.93 24.08 C1532.93,24.08 1532.93,58.92 1532.93,58.92 C1532.93,58.92 1521.99,58.92 1521.99,58.92 C1521.99,58.92 1521.99,24.08 1521.99,24.08 C1521.99,24.08 1515.82,24.08 1515.82,24.08 C1515.82,24.08 1515.82,16.66 1515.82,16.66 C1515.82,16.66 1521.99,16.66 1521.99,16.66 C1521.99,16.66 1521.99,12.24 1521.99,12.24 C1521.99,8.41 1523.01,5.58 1525.04,3.73 C1527.07,1.88 1530.16,0.95 1534.3,0.95 C1536.43,0.95 1538.75,1.16 1541.25,1.58 C1541.25,1.58 1541.25,8.65 1541.25,8.65 C1540.21,8.41 1539.14,8.3 1538.05,8.3 C1536.17,8.3 1534.85,8.67 1534.08,9.41 C1533.31,10.15 1532.93,11.46 1532.93,13.34 C1532.93,13.34 1532.93,16.66 1532.93,16.66 C1532.93,16.66 1541.25,16.66 1541.25,16.66 C1541.25,16.66 1541.25,24.08 1541.25,24.08 C1541.25,24.08 1532.93,24.08 1532.93,24.08z "/><path id="_R_G_L_0_G_D_35_P_0" fill="#000000" fill-opacity="1" fill-rule="nonzero" d=" M1583.75 18.84 C1583.75,21.37 1583.19,23.64 1582.05,25.64 C1580.92,27.65 1578.8,29.76 1575.71,31.97 C1575.71,31.97 1572.74,34.12 1572.74,34.12 C1569.3,36.57 1567.5,39.29 1567.35,42.28 C1567.35,42.28 1556.92,42.28 1556.92,42.28 C1557.02,40.51 1557.39,38.87 1558.01,37.36 C1558.64,35.85 1559.54,34.43 1560.73,33.1 C1561.91,31.77 1563.36,30.51 1565.08,29.31 C1566.96,28.01 1568.45,26.83 1569.55,25.78 C1570.66,24.72 1571.46,23.68 1571.96,22.65 C1572.45,21.62 1572.7,20.51 1572.7,19.31 C1572.7,17.02 1571.95,15.21 1570.45,13.88 C1568.95,12.56 1566.82,11.89 1564.06,11.89 C1561.43,11.89 1559.23,12.66 1557.44,14.2 C1555.66,15.73 1554.61,17.76 1554.3,20.29 C1554.3,20.29 1543.17,19.82 1543.17,19.82 C1543.87,14.53 1546.04,10.42 1549.69,7.48 C1553.34,4.53 1558.07,3.06 1563.91,3.06 C1570.08,3.06 1574.93,4.46 1578.46,7.26 C1581.99,10.06 1583.75,13.92 1583.75,18.84z    M1567.89 58.92 C1567.89,58.92 1556.6,58.92 1556.6,58.92 C1556.6,58.92 1556.6,48.37 1556.6,48.37 C1556.6,48.37 1567.89,48.37 1567.89,48.37 C1567.89,48.37 1567.89,58.92 1567.89,58.92z "/></g></g><g id="time_group"/></svg>