<svg xmlns="http://www.w3.org/2000/svg" xmlns:xlink="http://www.w3.org/1999/xlink" preserveAspectRatio="xMidYMid meet" width="444" height="109" viewBox="0 0 444 109" style="width:100%;height:100%"><defs><animateMotion repeatCount="indefinite" dur="8s" begin="0s" xlink:href="#_R_G_L_2_G" fill="freeze" keyTimes="0;0.0583333;1" path="M222 69.5 C222,62.83 222,36.17 222,29.5 C222,29.5 222,29.5 222,29.5 " keyPoints="0;1;1" keySplines="0.333 0 0.667 1;0 0 0 0" calcMode="spline"/><animateTransform repeatCount="indefinite" dur="8s" begin="0s" xlink:href="#_R_G_L_2_G" fill="freeze" attributeName="transform" from="-206 -26" to="-206 -26" type="translate" additive="sum" keyTimes="0;1" values="-206 -26;-206 -26" keySplines="0 0 1 1" calcMode="spline"/><animate attributeType="XML" attributeName="opacity" dur="8s" from="0" to="1" xlink:href="#time_group"/></defs><g id="_R_G"><g id="_R_G_L_2_G"><path id="_R_G_L_2_G_D_0_P_0" fill="#c1c1c1" fill-opacity="1" fill-rule="nonzero" d=" M10.09 50.79 C10.09,50.79 0.25,50.79 0.25,50.79 C0.25,50.79 0.25,40.41 0.25,40.41 C0.25,40.41 10.09,40.41 10.09,40.41 C10.09,40.41 10.09,50.79 10.09,50.79z "/><path id="_R_G_L_2_G_D_1_P_0" fill="#c1c1c1" fill-opacity="1" fill-rule="nonzero" d=" M29.61 20.41 C29.61,20.41 29.61,50.79 29.61,50.79 C29.61,50.79 20.07,50.79 20.07,50.79 C20.07,50.79 20.07,20.41 20.07,20.41 C20.07,20.41 14.69,20.41 14.69,20.41 C14.69,20.41 14.69,13.94 14.69,13.94 C14.69,13.94 20.07,13.94 20.07,13.94 C20.07,13.94 20.07,10.09 20.07,10.09 C20.07,6.75 20.96,4.28 22.73,2.67 C24.5,1.06 27.19,0.25 30.8,0.25 C32.66,0.25 34.69,0.43 36.87,0.79 C36.87,0.79 36.87,6.96 36.87,6.96 C35.96,6.75 35.03,6.65 34.07,6.65 C32.44,6.65 31.29,6.98 30.62,7.62 C29.95,8.27 29.61,9.41 29.61,11.05 C29.61,11.05 29.61,13.94 29.61,13.94 C29.61,13.94 36.87,13.94 36.87,13.94 C36.87,13.94 36.87,20.41 36.87,20.41 C36.87,20.41 29.61,20.41 29.61,20.41z "/><path id="_R_G_L_2_G_D_2_P_0" fill="#c1c1c1" fill-opacity="1" fill-rule="nonzero" d=" M75.22 32.33 C75.22,38.31 73.56,42.99 70.25,46.38 C66.93,49.78 62.34,51.48 56.49,51.48 C50.74,51.48 46.23,49.77 42.96,46.37 C39.69,42.96 38.06,38.28 38.06,32.33 C38.06,26.41 39.69,21.75 42.96,18.35 C46.23,14.96 50.81,13.26 56.69,13.26 C62.71,13.26 67.3,14.9 70.47,18.18 C73.63,21.46 75.22,26.18 75.22,32.33z  M65.2 32.33 C65.2,27.95 64.49,24.77 63.06,22.8 C61.63,20.82 59.55,19.83 56.83,19.83 C53.92,19.83 51.74,20.87 50.29,22.95 C48.83,25.03 48.11,28.16 48.11,32.33 C48.11,36.44 48.82,39.57 50.24,41.72 C51.65,43.86 53.7,44.94 56.38,44.94 C59.33,44.94 61.54,43.89 63.01,41.79 C64.47,39.69 65.2,36.54 65.2,32.33z "/><path id="_R_G_L_2_G_D_3_P_0" fill="#c1c1c1" fill-opacity="1" fill-rule="nonzero" d=" M90.99 32.71 C90.99,32.71 90.99,50.79 90.99,50.79 C90.99,50.79 81.42,50.79 81.42,50.79 C81.42,50.79 81.42,22.59 81.42,22.59 C81.42,20.57 81.39,18.89 81.33,17.53 C81.28,16.18 81.21,14.99 81.15,13.94 C81.15,13.94 90.27,13.94 90.27,13.94 C90.32,14.15 90.36,14.6 90.41,15.3 C90.45,16.01 90.5,16.8 90.55,17.67 C90.59,18.54 90.63,19.37 90.66,20.14 C90.7,20.91 90.72,21.47 90.72,21.81 C90.72,21.81 90.85,21.81 90.85,21.81 C91.76,19.27 92.59,17.44 93.34,16.32 C94.07,15.26 94.93,14.47 95.93,13.97 C96.93,13.48 98.18,13.23 99.67,13.23 C100.9,13.23 101.89,13.4 102.64,13.74 C102.64,13.74 102.64,21.74 102.64,21.74 C101.12,21.4 99.75,21.23 98.55,21.23 C96.17,21.23 94.31,22.2 92.98,24.13 C91.65,26.06 90.99,28.92 90.99,32.71z "/><path id="_R_G_L_2_G_D_4_P_0" fill="#c1c1c1" fill-opacity="1" fill-rule="nonzero" d=" M116.74 31.04 C116.74,31.04 116.74,50.8 116.74,50.8 C116.74,50.8 107.17,50.8 107.17,50.8 C107.17,50.8 107.17,22.19 107.17,22.19 C107.17,20.21 107.14,18.59 107.08,17.33 C107.03,16.07 106.96,14.94 106.9,13.94 C106.9,13.94 116.02,13.94 116.02,13.94 C116.07,14.22 116.13,14.86 116.19,15.87 C116.26,16.88 116.32,17.91 116.38,18.97 C116.44,20.02 116.47,20.79 116.47,21.27 C116.47,21.27 116.6,21.27 116.6,21.27 C117.78,18.45 119.25,16.41 121.01,15.13 C122.77,13.86 124.88,13.23 127.33,13.23 C130.15,13.23 132.41,13.9 134.13,15.24 C135.84,16.58 136.99,18.59 137.58,21.27 C137.58,21.27 137.79,21.27 137.79,21.27 C139.04,18.4 140.54,16.35 142.28,15.1 C144.03,13.85 146.26,13.23 148.96,13.23 C152.55,13.23 155.28,14.45 157.17,16.89 C159.05,19.33 159.99,22.83 159.99,27.4 C159.99,27.4 159.99,50.8 159.99,50.8 C159.99,50.8 150.49,50.8 150.49,50.8 C150.49,50.8 150.49,30.12 150.49,30.12 C150.49,26.87 150.03,24.44 149.1,22.83 C148.16,21.22 146.77,20.41 144.91,20.41 C143.04,20.41 141.49,21.32 140.24,23.12 C138.99,24.93 138.37,27.42 138.37,30.6 C138.37,30.6 138.37,50.8 138.37,50.8 C138.37,50.8 128.86,50.8 128.86,50.8 C128.86,50.8 128.86,30.12 128.86,30.12 C128.86,26.87 128.4,24.44 127.47,22.83 C126.54,21.22 125.14,20.41 123.28,20.41 C121.35,20.41 119.78,21.4 118.56,23.38 C117.35,25.35 116.74,27.91 116.74,31.04z "/><path id="_R_G_L_2_G_D_5_P_0" fill="#c1c1c1" fill-opacity="1" fill-rule="nonzero" d=" M176.31 51.48 C172.74,51.48 169.96,50.5 167.97,48.56 C165.97,46.62 164.97,43.89 164.97,40.37 C164.97,36.56 166.21,33.66 168.7,31.69 C171.19,29.71 174.79,28.68 179.51,28.59 C179.51,28.59 187.45,28.45 187.45,28.45 C187.45,28.45 187.45,26.58 187.45,26.58 C187.45,24.17 187.03,22.38 186.19,21.21 C185.35,20.04 183.97,19.46 182.07,19.46 C180.3,19.46 179,19.86 178.17,20.67 C177.34,21.48 176.82,22.81 176.62,24.67 C176.62,24.67 166.64,24.19 166.64,24.19 C167.89,16.91 173.17,13.26 182.48,13.26 C187.13,13.26 190.72,14.41 193.24,16.7 C195.76,18.99 197.02,22.25 197.02,26.48 C197.02,26.48 197.02,39.9 197.02,39.9 C197.02,41.96 197.25,43.39 197.72,44.17 C198.18,44.95 198.96,45.35 200.05,45.35 C200.78,45.35 201.48,45.28 202.16,45.14 C202.16,45.14 202.16,50.32 202.16,50.32 C200.98,50.61 199.97,50.83 199.13,50.98 C198.29,51.13 197.26,51.2 196.03,51.2 C193.62,51.2 191.85,50.61 190.7,49.43 C189.55,48.25 188.87,46.51 188.64,44.22 C188.64,44.22 188.44,44.22 188.44,44.22 C187.09,46.63 185.41,48.44 183.39,49.65 C181.37,50.87 179.01,51.48 176.31,51.48z  M187.45 33.73 C187.45,33.73 182.54,33.8 182.54,33.8 C180.3,33.91 178.72,34.15 177.81,34.51 C176.88,34.92 176.17,35.54 175.68,36.35 C175.19,37.17 174.95,38.26 174.95,39.62 C174.95,41.37 175.35,42.67 176.16,43.52 C176.96,44.37 178.04,44.8 179.38,44.8 C180.88,44.8 182.25,44.39 183.5,43.57 C184.72,42.76 185.69,41.63 186.39,40.18 C187.09,38.74 187.45,37.22 187.45,35.6 C187.45,35.6 187.45,33.73 187.45,33.73z "/><path id="_R_G_L_2_G_D_6_P_0" fill="#c1c1c1" fill-opacity="1" fill-rule="nonzero" d=" M220.56 51.48 C214.97,51.48 210.66,49.81 207.61,46.49 C204.57,43.16 203.05,38.52 203.05,32.57 C203.05,26.49 204.58,21.75 207.65,18.35 C210.71,14.96 215.06,13.26 220.69,13.26 C225.03,13.26 228.62,14.35 231.45,16.53 C234.29,18.71 236.07,21.72 236.8,25.56 C236.8,25.56 227.16,26.03 227.16,26.03 C226.89,24.15 226.21,22.64 225.12,21.52 C224.03,20.4 222.48,19.84 220.49,19.84 C218.01,19.84 216.16,20.86 214.94,22.92 C213.71,24.97 213.1,28.07 213.1,32.2 C213.1,36.44 213.73,39.63 214.99,41.75 C216.25,43.88 218.13,44.94 220.62,44.94 C222.44,44.94 223.96,44.36 225.19,43.22 C226.41,42.07 227.17,40.36 227.47,38.09 C227.47,38.09 237.07,38.53 237.07,38.53 C236.73,41.12 235.82,43.39 234.33,45.33 C232.85,47.27 230.92,48.78 228.56,49.86 C226.2,50.94 223.53,51.48 220.56,51.48z "/><path id="_R_G_L_2_G_D_7_P_0" fill="#c1c1c1" fill-opacity="1" fill-rule="nonzero" d=" M252.16 7.3 C252.16,7.3 242.59,7.3 242.59,7.3 C242.59,7.3 242.59,0.25 242.59,0.25 C242.59,0.25 252.16,0.25 252.16,0.25 C252.16,0.25 252.16,7.3 252.16,7.3z    M252.16 50.79 C252.16,50.79 242.59,50.79 242.59,50.79 C242.59,50.79 242.59,13.94 242.59,13.94 C242.59,13.94 252.16,13.94 252.16,13.94 C252.16,13.94 252.16,50.79 252.16,50.79z "/><path id="_R_G_L_2_G_D_8_P_0" fill="#c1c1c1" fill-opacity="1" fill-rule="nonzero" d=" M295.59 32.33 C295.59,38.31 293.93,42.99 290.62,46.38 C287.3,49.78 282.72,51.48 276.86,51.48 C271.11,51.48 266.61,49.77 263.34,46.37 C260.07,42.96 258.43,38.28 258.43,32.33 C258.43,26.41 260.07,21.75 263.34,18.35 C266.61,14.96 271.18,13.26 277.06,13.26 C283.08,13.26 287.67,14.9 290.84,18.18 C294.01,21.46 295.59,26.18 295.59,32.33z  M285.58 32.33 C285.58,27.95 284.86,24.77 283.43,22.8 C282,20.82 279.92,19.83 277.2,19.83 C274.29,19.83 272.11,20.87 270.66,22.95 C269.2,25.03 268.48,28.16 268.48,32.33 C268.48,36.44 269.19,39.57 270.61,41.72 C272.03,43.86 274.08,44.94 276.76,44.94 C279.71,44.94 281.92,43.89 283.38,41.79 C284.84,39.69 285.58,36.54 285.58,32.33z "/><path id="_R_G_L_2_G_D_9_P_0" fill="#c1c1c1" fill-opacity="1" fill-rule="nonzero" d=" M311.36 31.04 C311.36,31.04 311.36,50.8 311.36,50.8 C311.36,50.8 301.79,50.8 301.79,50.8 C301.79,50.8 301.79,22.19 301.79,22.19 C301.79,20.21 301.76,18.59 301.71,17.33 C301.65,16.07 301.59,14.94 301.52,13.94 C301.52,13.94 310.65,13.94 310.65,13.94 C310.69,14.22 310.75,14.86 310.82,15.87 C310.89,16.88 310.95,17.91 311,18.97 C311.06,20.02 311.09,20.79 311.09,21.27 C311.09,21.27 311.23,21.27 311.23,21.27 C312.52,18.45 314.14,16.41 316.09,15.13 C318.05,13.86 320.38,13.23 323.08,13.23 C326.98,13.23 329.98,14.43 332.07,16.84 C334.16,19.24 335.2,22.76 335.2,27.4 C335.2,27.4 335.2,50.8 335.2,50.8 C335.2,50.8 325.67,50.8 325.67,50.8 C325.67,50.8 325.67,30.12 325.67,30.12 C325.67,26.87 325.12,24.44 324.03,22.83 C322.94,21.22 321.3,20.41 319.09,20.41 C316.78,20.41 314.91,21.41 313.49,23.39 C312.07,25.38 311.36,27.93 311.36,31.04z "/><path id="_R_G_L_2_G_D_10_P_0" fill="#c1c1c1" fill-opacity="1" fill-rule="nonzero" d=" M350.91 34.21 C350.91,37.8 351.57,40.5 352.9,42.33 C354.23,44.16 356.12,45.07 358.57,45.07 C360.25,45.07 361.63,44.7 362.71,43.97 C363.79,43.23 364.54,42.13 364.97,40.68 C364.97,40.68 374,41.46 374,41.46 C371.39,48.14 366.08,51.48 358.09,51.48 C352.55,51.48 348.29,49.84 345.32,46.55 C342.35,43.27 340.86,38.49 340.86,32.2 C340.86,26.11 342.37,21.43 345.39,18.16 C348.41,14.9 352.69,13.26 358.23,13.26 C363.52,13.26 367.56,15.01 370.35,18.52 C373.15,22.03 374.54,27.17 374.54,33.93 C374.54,33.93 374.54,34.21 374.54,34.21 C374.54,34.21 350.91,34.21 350.91,34.21z  M365.28 28.21 C365.1,25.24 364.38,23.01 363.13,21.52 C361.88,20.03 360.2,19.29 358.09,19.29 C355.84,19.29 354.11,20.07 352.9,21.64 C351.68,23.21 351.04,25.4 350.97,28.21 C350.97,28.21 365.28,28.21 365.28,28.21z "/><path id="_R_G_L_2_G_D_11_P_0" fill="#c1c1c1" fill-opacity="1" fill-rule="nonzero" d=" M411.47 40.03 C411.47,43.6 410.01,46.4 407.09,48.43 C404.17,50.46 400.13,51.47 394.98,51.47 C389.92,51.47 386.04,50.68 383.35,49.08 C380.66,47.47 378.87,44.98 377.99,41.6 C377.99,41.6 386.4,40.34 386.4,40.34 C386.87,42.09 387.7,43.33 388.87,44.05 C390.04,44.78 392.07,45.14 394.98,45.14 C397.66,45.14 399.61,44.8 400.84,44.12 C402.07,43.44 402.68,42.37 402.68,40.92 C402.68,39.74 402.18,38.8 401.2,38.11 C400.21,37.42 398.53,36.83 396.17,36.35 C394.38,35.99 392.77,35.64 391.35,35.3 C389.93,34.96 388.72,34.62 387.71,34.29 C386.7,33.96 385.87,33.65 385.24,33.36 C383.35,32.43 381.92,31.23 380.93,29.78 C379.94,28.33 379.45,26.53 379.45,24.4 C379.45,20.88 380.81,18.14 383.52,16.17 C386.23,14.21 390.08,13.23 395.05,13.23 C399.43,13.23 402.96,14.08 405.62,15.78 C408.29,17.48 409.95,19.95 410.61,23.17 C410.61,23.17 402.13,24.06 402.13,24.06 C401.86,22.56 401.19,21.44 400.12,20.7 C399.06,19.97 397.36,19.6 395.05,19.6 C392.78,19.6 391.07,19.89 389.94,20.47 C388.8,21.04 388.24,22.01 388.24,23.38 C388.24,24.44 388.67,25.29 389.55,25.91 C390.42,26.54 391.89,27.06 393.96,27.46 C396.84,28.06 399.4,28.66 401.64,29.29 C403.88,29.91 405.68,30.65 407.04,31.52 C408.38,32.38 409.45,33.49 410.26,34.84 C411.06,36.19 411.47,37.92 411.47,40.03z "/></g><g id="_R_G_L_1_G" transform=" translate(222.5, 75.5) translate(-222.5, -33.5)"><path id="_R_G_L_1_G_D_0_P_0" fill="#ffffff" fill-opacity="1" fill-rule="nonzero" d=" M0.25 66.52 C0.25,66.52 444.25,66.52 444.25,66.52 C444.25,66.52 444.25,0.25 444.25,0.25 C444.25,0.25 0.25,0.25 0.25,0.25 C0.25,0.25 0.25,66.52 0.25,66.52z "/></g><g id="_R_G_L_0_G" transform=" translate(222, 72.5) translate(-206, -26)"><path id="_R_G_L_0_G_D_0_P_0" fill="#000000" fill-opacity="1" fill-rule="nonzero" d=" M10.09 50.79 C10.09,50.79 0.25,50.79 0.25,50.79 C0.25,50.79 0.25,40.41 0.25,40.41 C0.25,40.41 10.09,40.41 10.09,40.41 C10.09,40.41 10.09,50.79 10.09,50.79z "/><path id="_R_G_L_0_G_D_1_P_0" fill="#000000" fill-opacity="1" fill-rule="nonzero" d=" M29.61 20.41 C29.61,20.41 29.61,50.79 29.61,50.79 C29.61,50.79 20.07,50.79 20.07,50.79 C20.07,50.79 20.07,20.41 20.07,20.41 C20.07,20.41 14.69,20.41 14.69,20.41 C14.69,20.41 14.69,13.94 14.69,13.94 C14.69,13.94 20.07,13.94 20.07,13.94 C20.07,13.94 20.07,10.09 20.07,10.09 C20.07,6.75 20.96,4.28 22.73,2.67 C24.5,1.06 27.19,0.25 30.8,0.25 C32.66,0.25 34.69,0.43 36.86,0.79 C36.86,0.79 36.86,6.96 36.86,6.96 C35.96,6.75 35.03,6.65 34.07,6.65 C32.44,6.65 31.28,6.98 30.62,7.62 C29.95,8.27 29.61,9.41 29.61,11.05 C29.61,11.05 29.61,13.94 29.61,13.94 C29.61,13.94 36.86,13.94 36.86,13.94 C36.86,13.94 36.86,20.41 36.86,20.41 C36.86,20.41 29.61,20.41 29.61,20.41z "/><path id="_R_G_L_0_G_D_2_P_0" fill="#000000" fill-opacity="1" fill-rule="nonzero" d=" M75.22 32.33 C75.22,38.31 73.56,42.99 70.24,46.38 C66.93,49.78 62.34,51.48 56.48,51.48 C50.74,51.48 46.23,49.77 42.96,46.37 C39.69,42.96 38.06,38.28 38.06,32.33 C38.06,26.41 39.69,21.75 42.96,18.35 C46.23,14.96 50.81,13.26 56.69,13.26 C62.71,13.26 67.3,14.9 70.47,18.18 C73.63,21.46 75.22,26.18 75.22,32.33z  M65.2 32.33 C65.2,27.95 64.49,24.77 63.06,22.8 C61.63,20.82 59.55,19.83 56.82,19.83 C53.92,19.83 51.74,20.87 50.29,22.95 C48.83,25.03 48.11,28.16 48.11,32.33 C48.11,36.44 48.81,39.57 50.23,41.72 C51.65,43.86 53.7,44.94 56.38,44.94 C59.33,44.94 61.54,43.89 63.01,41.79 C64.47,39.69 65.2,36.54 65.2,32.33z "/><path id="_R_G_L_0_G_D_3_P_0" fill="#000000" fill-opacity="1" fill-rule="nonzero" d=" M90.99 32.71 C90.99,32.71 90.99,50.79 90.99,50.79 C90.99,50.79 81.42,50.79 81.42,50.79 C81.42,50.79 81.42,22.59 81.42,22.59 C81.42,20.57 81.39,18.89 81.33,17.53 C81.28,16.18 81.21,14.99 81.15,13.94 C81.15,13.94 90.27,13.94 90.27,13.94 C90.32,14.15 90.36,14.6 90.41,15.3 C90.45,16.01 90.5,16.8 90.55,17.67 C90.59,18.54 90.63,19.37 90.66,20.14 C90.7,20.91 90.72,21.47 90.72,21.81 C90.72,21.81 90.85,21.81 90.85,21.81 C91.76,19.27 92.59,17.44 93.34,16.32 C94.07,15.26 94.93,14.47 95.93,13.97 C96.93,13.48 98.18,13.23 99.67,13.23 C100.9,13.23 101.89,13.4 102.64,13.74 C102.64,13.74 102.64,21.74 102.64,21.74 C101.12,21.4 99.75,21.23 98.55,21.23 C96.17,21.23 94.31,22.2 92.98,24.13 C91.65,26.06 90.99,28.92 90.99,32.71z "/><path id="_R_G_L_0_G_D_4_P_0" fill="#000000" fill-opacity="1" fill-rule="nonzero" d=" M116.74 31.04 C116.74,31.04 116.74,50.8 116.74,50.8 C116.74,50.8 107.17,50.8 107.17,50.8 C107.17,50.8 107.17,22.19 107.17,22.19 C107.17,20.21 107.14,18.59 107.08,17.33 C107.03,16.07 106.96,14.94 106.89,13.94 C106.89,13.94 116.02,13.94 116.02,13.94 C116.07,14.22 116.12,14.86 116.19,15.87 C116.26,16.88 116.32,17.91 116.38,18.97 C116.44,20.02 116.47,20.79 116.47,21.27 C116.47,21.27 116.6,21.27 116.6,21.27 C117.78,18.45 119.25,16.41 121.01,15.13 C122.77,13.86 124.88,13.23 127.33,13.23 C130.15,13.23 132.41,13.9 134.13,15.24 C135.84,16.58 136.99,18.59 137.58,21.27 C137.58,21.27 137.79,21.27 137.79,21.27 C139.04,18.4 140.53,16.35 142.28,15.1 C144.03,13.85 146.26,13.23 148.96,13.23 C152.54,13.23 155.28,14.45 157.17,16.89 C159.05,19.33 159.99,22.83 159.99,27.4 C159.99,27.4 159.99,50.8 159.99,50.8 C159.99,50.8 150.49,50.8 150.49,50.8 C150.49,50.8 150.49,30.12 150.49,30.12 C150.49,26.87 150.02,24.44 149.09,22.83 C148.16,21.22 146.77,20.41 144.91,20.41 C143.04,20.41 141.49,21.32 140.24,23.12 C138.99,24.93 138.37,27.42 138.37,30.6 C138.37,30.6 138.37,50.8 138.37,50.8 C138.37,50.8 128.86,50.8 128.86,50.8 C128.86,50.8 128.86,30.12 128.86,30.12 C128.86,26.87 128.4,24.44 127.47,22.83 C126.53,21.22 125.14,20.41 123.28,20.41 C121.35,20.41 119.77,21.4 118.56,23.38 C117.34,25.35 116.74,27.91 116.74,31.04z "/><path id="_R_G_L_0_G_D_5_P_0" fill="#000000" fill-opacity="1" fill-rule="nonzero" d=" M176.31 51.48 C172.74,51.48 169.96,50.5 167.97,48.56 C165.97,46.62 164.97,43.89 164.97,40.37 C164.97,36.56 166.21,33.66 168.7,31.69 C171.19,29.71 174.79,28.68 179.51,28.59 C179.51,28.59 187.45,28.45 187.45,28.45 C187.45,28.45 187.45,26.58 187.45,26.58 C187.45,24.17 187.03,22.38 186.19,21.21 C185.35,20.04 183.97,19.46 182.07,19.46 C180.3,19.46 179,19.86 178.17,20.67 C177.34,21.48 176.82,22.81 176.62,24.67 C176.62,24.67 166.64,24.19 166.64,24.19 C167.89,16.91 173.17,13.26 182.48,13.26 C187.13,13.26 190.72,14.41 193.24,16.7 C195.76,18.99 197.02,22.25 197.02,26.48 C197.02,26.48 197.02,39.9 197.02,39.9 C197.02,41.96 197.25,43.39 197.72,44.17 C198.18,44.95 198.96,45.35 200.05,45.35 C200.78,45.35 201.48,45.28 202.16,45.14 C202.16,45.14 202.16,50.32 202.16,50.32 C200.98,50.61 199.97,50.83 199.13,50.98 C198.29,51.13 197.26,51.2 196.03,51.2 C193.62,51.2 191.85,50.61 190.7,49.43 C189.55,48.25 188.87,46.51 188.64,44.22 C188.64,44.22 188.44,44.22 188.44,44.22 C187.09,46.63 185.41,48.44 183.39,49.65 C181.37,50.87 179.01,51.48 176.31,51.48z  M187.45 33.73 C187.45,33.73 182.54,33.8 182.54,33.8 C180.3,33.91 178.72,34.15 177.81,34.51 C176.88,34.92 176.17,35.54 175.68,36.35 C175.19,37.17 174.95,38.26 174.95,39.62 C174.95,41.37 175.35,42.67 176.16,43.52 C176.96,44.37 178.04,44.8 179.38,44.8 C180.88,44.8 182.25,44.39 183.5,43.57 C184.72,42.76 185.69,41.63 186.39,40.18 C187.09,38.74 187.45,37.22 187.45,35.6 C187.45,35.6 187.45,33.73 187.45,33.73z "/><path id="_R_G_L_0_G_D_6_P_0" fill="#000000" fill-opacity="1" fill-rule="nonzero" d=" M220.55 51.48 C214.97,51.48 210.65,49.81 207.61,46.49 C204.57,43.16 203.05,38.52 203.05,32.57 C203.05,26.49 204.58,21.75 207.65,18.35 C210.71,14.96 215.06,13.26 220.69,13.26 C225.03,13.26 228.61,14.35 231.45,16.53 C234.29,18.71 236.07,21.72 236.8,25.56 C236.8,25.56 227.16,26.03 227.16,26.03 C226.89,24.15 226.21,22.64 225.12,21.52 C224.03,20.4 222.48,19.83 220.49,19.83 C218.01,19.83 216.16,20.86 214.93,22.92 C213.71,24.97 213.1,28.07 213.1,32.2 C213.1,36.44 213.73,39.63 214.99,41.75 C216.25,43.88 218.12,44.94 220.62,44.94 C222.44,44.94 223.96,44.36 225.19,43.22 C226.41,42.07 227.17,40.36 227.47,38.09 C227.47,38.09 237.07,38.53 237.07,38.53 C236.73,41.12 235.82,43.39 234.33,45.33 C232.84,47.27 230.92,48.78 228.56,49.86 C226.2,50.94 223.53,51.48 220.55,51.48z "/><path id="_R_G_L_0_G_D_7_P_0" fill="#000000" fill-opacity="1" fill-rule="nonzero" d=" M252.16 7.3 C252.16,7.3 242.59,7.3 242.59,7.3 C242.59,7.3 242.59,0.25 242.59,0.25 C242.59,0.25 252.16,0.25 252.16,0.25 C252.16,0.25 252.16,7.3 252.16,7.3z    M252.16 50.79 C252.16,50.79 242.59,50.79 242.59,50.79 C242.59,50.79 242.59,13.94 242.59,13.94 C242.59,13.94 252.16,13.94 252.16,13.94 C252.16,13.94 252.16,50.79 252.16,50.79z "/><path id="_R_G_L_0_G_D_8_P_0" fill="#000000" fill-opacity="1" fill-rule="nonzero" d=" M295.59 32.33 C295.59,38.31 293.93,42.99 290.62,46.38 C287.3,49.78 282.72,51.48 276.86,51.48 C271.11,51.48 266.61,49.77 263.34,46.37 C260.07,42.96 258.43,38.28 258.43,32.33 C258.43,26.41 260.07,21.75 263.34,18.35 C266.61,14.96 271.18,13.26 277.06,13.26 C283.08,13.26 287.67,14.9 290.84,18.18 C294.01,21.46 295.59,26.18 295.59,32.33z  M285.58 32.33 C285.58,27.95 284.86,24.77 283.43,22.8 C282,20.82 279.92,19.83 277.2,19.83 C274.29,19.83 272.11,20.87 270.66,22.95 C269.21,25.03 268.48,28.16 268.48,32.33 C268.48,36.44 269.19,39.57 270.61,41.72 C272.03,43.86 274.08,44.94 276.76,44.94 C279.71,44.94 281.92,43.89 283.38,41.79 C284.85,39.69 285.58,36.54 285.58,32.33z "/><path id="_R_G_L_0_G_D_9_P_0" fill="#000000" fill-opacity="1" fill-rule="nonzero" d=" M311.36 31.04 C311.36,31.04 311.36,50.8 311.36,50.8 C311.36,50.8 301.79,50.8 301.79,50.8 C301.79,50.8 301.79,22.19 301.79,22.19 C301.79,20.21 301.76,18.59 301.71,17.33 C301.65,16.07 301.59,14.94 301.52,13.94 C301.52,13.94 310.65,13.94 310.65,13.94 C310.69,14.22 310.75,14.86 310.82,15.87 C310.88,16.88 310.95,17.91 311,18.97 C311.06,20.02 311.09,20.79 311.09,21.27 C311.09,21.27 311.23,21.27 311.23,21.27 C312.52,18.45 314.14,16.41 316.1,15.13 C318.05,13.86 320.38,13.23 323.08,13.23 C326.98,13.23 329.98,14.43 332.07,16.84 C334.16,19.24 335.2,22.76 335.2,27.4 C335.2,27.4 335.2,50.8 335.2,50.8 C335.2,50.8 325.67,50.8 325.67,50.8 C325.67,50.8 325.67,30.12 325.67,30.12 C325.67,26.87 325.12,24.44 324.03,22.83 C322.94,21.22 321.29,20.41 319.09,20.41 C316.78,20.41 314.91,21.41 313.49,23.39 C312.07,25.38 311.36,27.93 311.36,31.04z "/><path id="_R_G_L_0_G_D_10_P_0" fill="#000000" fill-opacity="1" fill-rule="nonzero" d=" M350.91 34.21 C350.91,37.8 351.57,40.5 352.9,42.33 C354.23,44.16 356.12,45.07 358.57,45.07 C360.25,45.07 361.63,44.7 362.71,43.97 C363.79,43.23 364.54,42.13 364.97,40.68 C364.97,40.68 374,41.46 374,41.46 C371.39,48.14 366.09,51.48 358.09,51.48 C352.55,51.48 348.29,49.84 345.32,46.55 C342.35,43.27 340.86,38.49 340.86,32.2 C340.86,26.11 342.37,21.43 345.39,18.16 C348.41,14.9 352.69,13.26 358.23,13.26 C363.52,13.26 367.56,15.01 370.35,18.52 C373.15,22.03 374.54,27.17 374.54,33.93 C374.54,33.93 374.54,34.21 374.54,34.21 C374.54,34.21 350.91,34.21 350.91,34.21z  M365.28 28.21 C365.1,25.24 364.38,23.01 363.13,21.52 C361.88,20.03 360.2,19.29 358.09,19.29 C355.85,19.29 354.11,20.07 352.9,21.64 C351.68,23.21 351.04,25.4 350.97,28.21 C350.97,28.21 365.28,28.21 365.28,28.21z "/><path id="_R_G_L_0_G_D_11_P_0" fill="#000000" fill-opacity="1" fill-rule="nonzero" d=" M411.46 40.03 C411.46,43.6 410.01,46.4 407.09,48.43 C404.17,50.46 400.13,51.47 394.98,51.47 C389.92,51.47 386.04,50.68 383.35,49.07 C380.66,47.47 378.87,44.98 377.98,41.6 C377.98,41.6 386.4,40.34 386.4,40.34 C386.87,42.09 387.7,43.32 388.87,44.05 C390.04,44.78 392.07,45.14 394.98,45.14 C397.66,45.14 399.61,44.8 400.84,44.12 C402.06,43.44 402.68,42.37 402.68,40.92 C402.68,39.74 402.18,38.8 401.2,38.11 C400.21,37.42 398.53,36.83 396.17,36.35 C394.38,35.99 392.77,35.64 391.35,35.3 C389.93,34.96 388.72,34.62 387.71,34.29 C386.7,33.96 385.87,33.65 385.24,33.36 C383.35,32.43 381.92,31.23 380.93,29.78 C379.94,28.33 379.45,26.53 379.45,24.4 C379.45,20.88 380.8,18.14 383.52,16.17 C386.23,14.21 390.08,13.23 395.05,13.23 C399.43,13.23 402.95,14.08 405.62,15.78 C408.29,17.48 409.95,19.95 410.61,23.17 C410.61,23.17 402.13,24.06 402.13,24.06 C401.86,22.56 401.19,21.44 400.12,20.7 C399.05,19.97 397.36,19.6 395.05,19.6 C392.78,19.6 391.07,19.88 389.94,20.46 C388.8,21.04 388.24,22.01 388.24,23.38 C388.24,24.44 388.67,25.29 389.55,25.91 C390.42,26.54 391.89,27.06 393.96,27.46 C396.84,28.06 399.4,28.66 401.64,29.29 C403.87,29.91 405.67,30.65 407.04,31.52 C408.38,32.38 409.45,33.49 410.26,34.84 C411.06,36.19 411.46,37.92 411.46,40.03z "/></g></g><g id="time_group"/></svg>