<svg xmlns="http://www.w3.org/2000/svg" xmlns:xlink="http://www.w3.org/1999/xlink" preserveAspectRatio="xMidYMid meet" width="1073" height="483" viewBox="0 0 1073 483" style="width:100%;height:100%"><defs><animateMotion repeatCount="indefinite" dur="8.6333333s" begin="0s" xlink:href="#_R_G_L_2_G" fill="freeze" keyTimes="0;0.0540541;1" path="M536.5 288.5 C536.5,260 536.5,146 536.5,117.5 C536.5,117.5 536.5,117.5 536.5,117.5 " keyPoints="0;1;1" keySplines="0.333 0 0.667 1;0 0 0 0" calcMode="spline"/><animateTransform repeatCount="indefinite" dur="8.6333333s" begin="0s" xlink:href="#_R_G_L_2_G" fill="freeze" attributeName="transform" from="0.48006 0.47312" to="0.48006 0.47312" type="scale" additive="sum" keyTimes="0;1" values="0.48006 0.47312;0.48006 0.47312" keySplines="0 0 1 1" calcMode="spline"/><animateTransform repeatCount="indefinite" dur="8.6333333s" begin="0s" xlink:href="#_R_G_L_2_G" fill="freeze" attributeName="transform" from="-1116 -215" to="-1116 -215" type="translate" additive="sum" keyTimes="0;1" values="-1116 -215;-1116 -215" keySplines="0 0 1 1" calcMode="spline"/><animate attributeType="XML" attributeName="opacity" dur="9s" from="0" to="1" xlink:href="#time_group"/></defs><g id="_R_G"><g id="_R_G_L_2_G"><path id="_R_G_L_2_G_D_0_P_0" fill="#c1c1c1" fill-opacity="1" fill-rule="nonzero" d=" M81.7 423.53 C81.7,423.53 0.25,423.53 0.25,423.53 C0.25,423.53 0.25,337.57 0.25,337.57 C0.25,337.57 81.7,337.57 81.7,337.57 C81.7,337.57 81.7,423.53 81.7,423.53z "/><path id="_R_G_L_2_G_D_1_P_0" fill="#c1c1c1" fill-opacity="1" fill-rule="nonzero" d=" M229.4 260.08 C229.4,260.08 229.4,423.53 229.4,423.53 C229.4,423.53 150.2,423.53 150.2,423.53 C150.2,423.53 150.2,186.81 150.2,186.81 C150.2,170.46 149.97,157.08 149.5,146.65 C149.03,136.22 148.51,126.88 147.95,118.61 C147.95,118.61 223.48,118.61 223.48,118.61 C223.86,120.86 224.33,126.18 224.89,134.53 C225.46,142.89 225.97,151.44 226.44,160.18 C226.91,168.91 227.15,175.25 227.15,179.2 C227.15,179.2 228.28,179.2 228.28,179.2 C238.04,155.91 250.21,139 264.77,128.47 C279.33,117.95 296.76,112.69 317.06,112.69 C340.35,112.69 359.09,118.24 373.28,129.32 C387.47,140.41 397,157.03 401.89,179.2 C401.89,179.2 403.58,179.2 403.58,179.2 C413.91,155.53 426.31,138.53 440.79,128.19 C455.25,117.86 473.66,112.69 496.03,112.69 C525.71,112.69 548.35,122.79 563.95,142.99 C579.54,163.18 587.34,192.16 587.34,229.92 C587.34,229.92 587.34,423.53 587.34,423.53 C587.34,423.53 508.71,423.53 508.71,423.53 C508.71,423.53 508.71,252.47 508.71,252.47 C508.71,225.61 504.86,205.51 497.16,192.16 C489.45,178.83 477.89,172.15 462.49,172.15 C447.08,172.15 434.21,179.62 423.88,194.56 C413.54,209.49 408.37,230.11 408.37,256.41 C408.37,256.41 408.37,423.53 408.37,423.53 C408.37,423.53 329.74,423.53 329.74,423.53 C329.74,423.53 329.74,252.47 329.74,252.47 C329.74,225.61 325.88,205.51 318.18,192.16 C310.47,178.83 298.92,172.15 283.52,172.15 C267.54,172.15 254.53,180.33 244.48,196.67 C234.43,213.02 229.4,234.15 229.4,260.08z "/><path id="_R_G_L_2_G_D_2_P_0" fill="#c1c1c1" fill-opacity="1" fill-rule="nonzero" d=" M720.11 429.16 C690.6,429.16 667.59,421.13 651.05,405.07 C634.51,389.01 626.25,366.42 626.25,337.29 C626.25,305.73 636.54,281.78 657.12,265.43 C677.69,249.09 707.51,240.54 746.6,239.79 C746.6,239.79 812.27,238.66 812.27,238.66 C812.27,238.66 812.27,223.16 812.27,223.16 C812.27,203.25 808.79,188.46 801.84,178.78 C794.88,169.1 783.52,164.26 767.74,164.26 C753.08,164.26 742.32,167.6 735.47,174.27 C728.61,180.94 724.34,191.98 722.64,207.38 C722.64,207.38 640.06,203.43 640.06,203.43 C650.39,143.13 694.08,112.97 771.12,112.97 C809.64,112.97 839.33,122.46 860.18,141.44 C881.04,160.42 891.47,187.37 891.47,222.32 C891.47,222.32 891.47,333.35 891.47,333.35 C891.47,350.45 893.39,362.23 897.25,368.72 C901.09,375.2 907.53,378.44 916.55,378.44 C922.56,378.44 928.39,377.87 934.03,376.75 C934.03,376.75 934.03,419.58 934.03,419.58 C924.25,422.03 915.89,423.85 908.94,425.08 C901.98,426.29 893.44,426.91 883.3,426.91 C863.37,426.91 848.67,422.03 839.19,412.25 C829.69,402.49 824.01,388.12 822.14,369.14 C822.14,369.14 820.44,369.14 820.44,369.14 C809.35,389.05 795.44,404.04 778.73,414.09 C762,424.13 742.46,429.16 720.11,429.16z  M812.27 282.34 C812.27,282.34 771.69,282.9 771.69,282.9 C753.08,283.85 740.02,285.82 732.51,288.82 C724.8,292.2 718.92,297.28 714.89,304.04 C710.85,310.8 708.83,319.82 708.83,331.09 C708.83,345.56 712.16,356.32 718.84,363.36 C725.5,370.41 734.38,373.93 745.47,373.93 C757.87,373.93 769.23,370.55 779.58,363.78 C789.72,357.02 797.7,347.68 803.53,335.74 C809.35,323.82 812.27,311.18 812.27,297.84 C812.27,297.84 812.27,282.34 812.27,282.34z  M861.03 12.37 C861.03,12.37 765.2,90.15 765.2,90.15 C765.2,90.15 717.29,90.15 717.29,90.15 C717.29,90.15 717.29,81.41 717.29,81.41 C717.29,81.41 788.31,0.25 788.31,0.25 C788.31,0.25 861.03,0.25 861.03,0.25 C861.03,0.25 861.03,12.37 861.03,12.37z "/><path id="_R_G_L_2_G_D_3_P_0" fill="#c1c1c1" fill-opacity="1" fill-rule="nonzero" d=" M1218.42 334.48 C1218.42,363.97 1206.34,387.13 1182.2,403.94 C1158.05,420.76 1124.65,429.16 1082.01,429.16 C1040.1,429.16 1008.03,422.54 985.76,409.29 C963.49,396.05 948.7,375.44 941.37,347.44 C941.37,347.44 1010.98,337.01 1010.98,337.01 C1014.93,351.48 1021.74,361.72 1031.42,367.73 C1041.09,373.75 1057.95,376.75 1082.01,376.75 C1104.18,376.75 1120.34,373.93 1130.49,368.29 C1140.63,362.66 1145.71,353.83 1145.71,341.8 C1145.71,332.04 1141.62,324.29 1133.45,318.55 C1125.27,312.83 1111.41,307.99 1091.87,304.04 C1077.02,301.04 1063.73,298.12 1051.99,295.3 C1040.24,292.49 1030.19,289.72 1021.84,286.99 C1013.46,284.27 1006.66,281.69 1001.4,279.24 C985.8,271.54 973.92,261.68 965.75,249.65 C957.58,237.63 953.49,222.79 953.49,205.13 C953.49,176.01 964.71,153.32 987.17,137.07 C1009.62,120.82 1041.42,112.69 1082.57,112.69 C1118.83,112.69 1148,119.74 1170.09,133.83 C1192.15,147.92 1205.92,168.31 1211.38,194.98 C1211.38,194.98 1141.2,202.31 1141.2,202.31 C1138.94,189.91 1133.39,180.66 1124.57,174.55 C1115.73,168.45 1101.74,165.39 1082.57,165.39 C1063.77,165.39 1049.68,167.79 1040.3,172.58 C1030.9,177.37 1026.2,185.4 1026.2,196.67 C1026.2,205.51 1029.81,212.5 1037.06,217.67 C1044.28,222.84 1056.45,227.11 1073.55,230.49 C1097.41,235.38 1118.59,240.4 1137.11,245.57 C1155.61,250.74 1170.51,256.89 1181.78,264.02 C1192.86,271.17 1201.74,280.33 1208.42,291.5 C1215.08,302.68 1218.42,317 1218.42,334.48z "/><path id="_R_G_L_2_G_D_4_P_0" fill="#c1c1c1" fill-opacity="1" fill-rule="nonzero" d=" M1415.72 419.02 C1396.55,425.4 1374.29,428.6 1348.92,428.6 C1325.62,428.6 1307.67,422.26 1295.09,409.58 C1282.5,396.9 1276.21,377.69 1276.21,351.95 C1276.21,351.95 1276.21,172.15 1276.21,172.15 C1276.21,172.15 1237.59,172.15 1237.59,172.15 C1237.59,172.15 1237.59,118.61 1237.59,118.61 C1237.59,118.61 1280.15,118.61 1280.15,118.61 C1280.15,118.61 1304.95,47.03 1304.95,47.03 C1304.95,47.03 1354.56,47.03 1354.56,47.03 C1354.56,47.03 1354.56,118.61 1354.56,118.61 C1354.56,118.61 1412.34,118.61 1412.34,118.61 C1412.34,118.61 1412.34,172.15 1412.34,172.15 C1412.34,172.15 1354.56,172.15 1354.56,172.15 C1354.56,172.15 1354.56,330.53 1354.56,330.53 C1354.56,345.37 1357.38,356.32 1363.01,363.36 C1368.65,370.41 1377.39,373.93 1389.23,373.93 C1394.86,373.93 1403.69,372.62 1415.72,369.98 C1415.72,369.98 1415.72,419.02 1415.72,419.02z "/><path id="_R_G_L_2_G_D_5_P_0" fill="#c1c1c1" fill-opacity="1" fill-rule="nonzero" d=" M1516.91 286.28 C1516.91,315.97 1522.4,338.38 1533.4,353.5 C1544.39,368.62 1560.03,376.18 1580.32,376.18 C1594.23,376.18 1605.65,373.13 1614.57,367.02 C1623.49,360.92 1629.74,351.86 1633.31,339.83 C1633.31,339.83 1708,346.31 1708,346.31 C1686.4,401.55 1642.51,429.16 1576.38,429.16 C1530.53,429.16 1495.3,415.59 1470.69,388.44 C1446.07,361.3 1433.76,321.7 1433.76,269.66 C1433.76,219.32 1446.26,180.61 1471.25,153.55 C1496.24,126.5 1531.66,112.97 1577.5,112.97 C1621.29,112.97 1654.73,127.49 1677.84,156.51 C1700.95,185.54 1712.51,228.05 1712.51,284.03 C1712.51,284.03 1712.51,286.28 1712.51,286.28 C1712.51,286.28 1516.91,286.28 1516.91,286.28z  M1635.85 236.69 C1634.34,212.08 1628.42,193.62 1618.09,181.31 C1607.76,169.01 1593.85,162.85 1576.38,162.85 C1557.77,162.85 1543.44,169.33 1533.4,182.3 C1523.35,195.26 1518.04,213.4 1517.47,236.69 C1517.47,236.69 1635.85,236.69 1635.85,236.69z "/><path id="_R_G_L_2_G_D_6_P_0" fill="#c1c1c1" fill-opacity="1" fill-rule="nonzero" d=" M1840.2 273.89 C1840.2,273.89 1840.2,423.53 1840.2,423.53 C1840.2,423.53 1761,423.53 1761,423.53 C1761,423.53 1761,190.19 1761,190.19 C1761,173.47 1760.76,159.52 1760.29,148.34 C1759.82,137.17 1759.31,127.25 1758.74,118.61 C1758.74,118.61 1834.28,118.61 1834.28,118.61 C1834.65,120.3 1835.03,124.06 1835.41,129.88 C1835.78,135.71 1836.15,142.24 1836.53,149.47 C1836.91,156.7 1837.24,163.52 1837.52,169.9 C1837.8,176.29 1837.94,180.89 1837.94,183.71 C1837.94,183.71 1839.07,183.71 1839.07,183.71 C1846.58,162.67 1853.44,147.54 1859.64,138.34 C1865.66,129.51 1872.79,123.03 1881.06,118.89 C1889.33,114.76 1899.67,112.69 1912.07,112.69 C1922.21,112.69 1930.39,114.1 1936.59,116.92 C1936.59,116.92 1936.59,183.14 1936.59,183.14 C1924,180.33 1912.72,178.92 1902.77,178.92 C1883.04,178.92 1867.68,186.91 1856.69,202.87 C1845.69,218.84 1840.2,242.51 1840.2,273.89z "/><path id="_R_G_L_2_G_D_7_P_0" fill="#c1c1c1" fill-opacity="1" fill-rule="nonzero" d=" M2231.13 334.48 C2231.13,363.97 2219.05,387.13 2194.91,403.94 C2170.76,420.76 2137.36,429.16 2094.72,429.16 C2052.8,429.16 2020.73,422.54 1998.47,409.29 C1976.2,396.05 1961.4,375.44 1954.08,347.44 C1954.08,347.44 2023.69,337.01 2023.69,337.01 C2027.64,351.48 2034.44,361.72 2044.12,367.73 C2053.79,373.75 2070.66,376.75 2094.72,376.75 C2116.88,376.75 2133.05,373.93 2143.19,368.29 C2153.34,362.66 2158.41,353.83 2158.41,341.8 C2158.41,332.04 2154.33,324.29 2146.15,318.55 C2137.98,312.83 2124.11,307.99 2104.58,304.04 C2089.73,301.04 2076.44,298.12 2064.7,295.3 C2052.95,292.49 2042.9,289.72 2034.54,286.99 C2026.17,284.27 2019.36,281.69 2014.11,279.24 C1998.51,271.54 1986.63,261.68 1978.46,249.65 C1970.28,237.63 1966.2,222.79 1966.2,205.13 C1966.2,176.01 1977.41,153.32 1999.87,137.07 C2022.32,120.82 2054.13,112.69 2095.28,112.69 C2131.54,112.69 2160.71,119.74 2182.79,133.83 C2204.86,147.92 2218.63,168.31 2224.08,194.98 C2224.08,194.98 2153.9,202.31 2153.9,202.31 C2151.65,189.91 2146.1,180.66 2137.27,174.55 C2128.44,168.45 2114.44,165.39 2095.28,165.39 C2076.48,165.39 2062.39,167.79 2053,172.58 C2043.6,177.37 2038.91,185.4 2038.91,196.67 C2038.91,205.51 2042.52,212.5 2049.76,217.67 C2056.99,222.84 2069.15,227.11 2086.26,230.49 C2110.12,235.38 2131.3,240.4 2149.82,245.57 C2168.32,250.74 2183.21,256.89 2194.49,264.02 C2205.57,271.17 2214.44,280.33 2221.12,291.5 C2227.79,302.68 2231.13,317 2231.13,334.48z "/></g><g id="_R_G_L_1_G" transform=" translate(536.5, 336.5) scale(0.44856999999999997, 0.44856999999999997) translate(-1196.5, -372.5)"><path id="_R_G_L_1_G_D_0_P_0" fill="#ffffff" fill-opacity="1" fill-rule="nonzero" d=" M0.25 744.4 C0.25,744.4 2392.4,744.4 2392.4,744.4 C2392.4,744.4 2392.4,0.25 2392.4,0.25 C2392.4,0.25 0.25,0.25 0.25,0.25 C0.25,0.25 0.25,744.4 0.25,744.4z "/></g><g id="_R_G_L_0_G" transform=" translate(536.5, 286.5) scale(0.48029000000000005, 0.48029000000000005) translate(-1116, -215)"><path id="_R_G_L_0_G_D_0_P_0" fill="#000000" fill-opacity="1" fill-rule="nonzero" d=" M81.7 423.53 C81.7,423.53 0.25,423.53 0.25,423.53 C0.25,423.53 0.25,337.58 0.25,337.58 C0.25,337.58 81.7,337.58 81.7,337.58 C81.7,337.58 81.7,423.53 81.7,423.53z "/><path id="_R_G_L_0_G_D_1_P_0" fill="#000000" fill-opacity="1" fill-rule="nonzero" d=" M229.4 260.08 C229.4,260.08 229.4,423.53 229.4,423.53 C229.4,423.53 150.21,423.53 150.21,423.53 C150.21,423.53 150.21,186.81 150.21,186.81 C150.21,170.46 149.97,157.08 149.5,146.65 C149.02,136.22 148.52,126.88 147.95,118.61 C147.95,118.61 223.49,118.61 223.49,118.61 C223.85,120.86 224.33,126.18 224.89,134.53 C225.46,142.89 225.97,151.44 226.45,160.18 C226.91,168.91 227.15,175.25 227.15,179.2 C227.15,179.2 228.28,179.2 228.28,179.2 C238.04,155.91 250.2,139 264.77,128.47 C279.33,117.95 296.77,112.69 317.06,112.69 C340.35,112.69 359.09,118.24 373.28,129.32 C387.46,140.41 397,157.03 401.89,179.2 C401.89,179.2 403.58,179.2 403.58,179.2 C413.91,155.53 426.31,138.53 440.79,128.19 C455.25,117.86 473.66,112.69 496.03,112.69 C525.71,112.69 548.35,122.79 563.95,142.99 C579.54,163.18 587.35,192.16 587.35,229.92 C587.35,229.92 587.35,423.53 587.35,423.53 C587.35,423.53 508.71,423.53 508.71,423.53 C508.71,423.53 508.71,252.47 508.71,252.47 C508.71,225.61 504.85,205.51 497.16,192.16 C489.45,178.83 477.89,172.15 462.49,172.15 C447.07,172.15 434.21,179.62 423.88,194.56 C413.53,209.49 408.38,230.11 408.38,256.41 C408.38,256.41 408.38,423.53 408.38,423.53 C408.38,423.53 329.74,423.53 329.74,423.53 C329.74,423.53 329.74,252.47 329.74,252.47 C329.74,225.61 325.88,205.51 318.18,192.16 C310.48,178.83 298.92,172.15 283.52,172.15 C267.54,172.15 254.53,180.33 244.48,196.67 C234.42,213.02 229.4,234.15 229.4,260.08z "/><path id="_R_G_L_0_G_D_2_P_0" fill="#000000" fill-opacity="1" fill-rule="nonzero" d=" M720.1 429.16 C690.6,429.16 667.58,421.13 651.05,405.07 C634.51,389 626.25,366.42 626.25,337.29 C626.25,305.73 636.53,281.78 657.11,265.43 C677.68,249.09 707.51,240.54 746.59,239.79 C746.59,239.79 812.26,238.66 812.26,238.66 C812.26,238.66 812.26,223.16 812.26,223.16 C812.26,203.25 808.78,188.46 801.84,178.78 C794.88,169.1 783.52,164.26 767.73,164.26 C753.08,164.26 742.32,167.6 735.46,174.27 C728.6,180.94 724.33,191.98 722.64,207.38 C722.64,207.38 640.06,203.43 640.06,203.43 C650.39,143.13 694.07,112.97 771.12,112.97 C809.63,112.97 839.32,122.46 860.18,141.44 C881.03,160.42 891.46,187.37 891.46,222.32 C891.46,222.32 891.46,333.35 891.46,333.35 C891.46,350.45 893.39,362.23 897.24,368.71 C901.09,375.2 907.53,378.44 916.55,378.44 C922.56,378.44 928.38,377.87 934.02,376.75 C934.02,376.75 934.02,419.58 934.02,419.58 C924.25,422.03 915.88,423.85 908.94,425.08 C901.98,426.29 893.44,426.91 883.29,426.91 C863.37,426.91 848.66,422.03 839.18,412.25 C829.69,402.49 824,388.12 822.13,369.14 C822.13,369.14 820.44,369.14 820.44,369.14 C809.35,389.05 795.45,404.04 778.73,414.09 C762,424.13 742.46,429.16 720.1,429.16z  M812.26 282.34 C812.26,282.34 771.68,282.9 771.68,282.9 C753.08,283.85 740.01,285.82 732.5,288.82 C724.79,292.2 718.92,297.27 714.89,304.04 C710.84,310.8 708.83,319.82 708.83,331.09 C708.83,345.56 712.16,356.31 718.83,363.36 C725.5,370.41 734.38,373.93 745.47,373.93 C757.87,373.93 769.23,370.55 779.57,363.78 C789.72,357.02 797.7,347.68 803.53,335.74 C809.35,323.82 812.26,311.18 812.26,297.84 C812.26,297.84 812.26,282.34 812.26,282.34z  M861.02 12.37 C861.02,12.37 765.2,90.15 765.2,90.15 C765.2,90.15 717.28,90.15 717.28,90.15 C717.28,90.15 717.28,81.41 717.28,81.41 C717.28,81.41 788.31,0.25 788.31,0.25 C788.31,0.25 861.02,0.25 861.02,0.25 C861.02,0.25 861.02,12.37 861.02,12.37z "/><path id="_R_G_L_0_G_D_3_P_0" fill="#000000" fill-opacity="1" fill-rule="nonzero" d=" M1218.42 334.48 C1218.42,363.97 1206.34,387.13 1182.2,403.94 C1158.05,420.76 1124.65,429.16 1082,429.16 C1040.1,429.16 1008.02,422.54 985.75,409.29 C963.49,396.05 948.69,375.44 941.36,347.44 C941.36,347.44 1010.98,337.01 1010.98,337.01 C1014.92,351.48 1021.73,361.72 1031.41,367.73 C1041.09,373.75 1057.95,376.75 1082,376.75 C1104.17,376.75 1120.33,373.93 1130.48,368.29 C1140.63,362.66 1145.7,353.83 1145.7,341.8 C1145.7,332.04 1141.61,324.29 1133.44,318.55 C1125.27,312.83 1111.41,307.99 1091.87,304.04 C1077.02,301.04 1063.72,298.12 1051.99,295.3 C1040.24,292.49 1030.19,289.72 1021.83,286.99 C1013.46,284.27 1006.65,281.69 1001.39,279.24 C985.79,271.54 973.92,261.68 965.74,249.65 C957.57,237.63 953.48,222.79 953.48,205.13 C953.48,176.01 964.71,153.32 987.16,137.07 C1009.61,120.82 1041.42,112.69 1082.57,112.69 C1118.83,112.69 1148,119.74 1170.08,133.83 C1192.15,147.92 1205.92,168.31 1211.37,194.98 C1211.37,194.98 1141.19,202.31 1141.19,202.31 C1138.94,189.91 1133.39,180.66 1124.56,174.55 C1115.72,168.45 1101.73,165.39 1082.57,165.39 C1063.77,165.39 1049.68,167.79 1040.29,172.58 C1030.89,177.37 1026.2,185.4 1026.2,196.67 C1026.2,205.51 1029.81,212.5 1037.05,217.67 C1044.28,222.84 1056.45,227.11 1073.55,230.49 C1097.41,235.38 1118.59,240.4 1137.1,245.57 C1155.61,250.74 1170.5,256.89 1181.77,264.02 C1192.86,271.17 1201.74,280.33 1208.41,291.5 C1215.07,302.68 1218.42,317 1218.42,334.48z "/><path id="_R_G_L_0_G_D_4_P_0" fill="#000000" fill-opacity="1" fill-rule="nonzero" d=" M1415.71 419.02 C1396.55,425.4 1374.28,428.6 1348.92,428.6 C1325.62,428.6 1307.67,422.26 1295.08,409.58 C1282.5,396.9 1276.2,377.69 1276.2,351.95 C1276.2,351.95 1276.2,172.15 1276.2,172.15 C1276.2,172.15 1237.59,172.15 1237.59,172.15 C1237.59,172.15 1237.59,118.61 1237.59,118.61 C1237.59,118.61 1280.15,118.61 1280.15,118.61 C1280.15,118.61 1304.95,47.03 1304.95,47.03 C1304.95,47.03 1354.55,47.03 1354.55,47.03 C1354.55,47.03 1354.55,118.61 1354.55,118.61 C1354.55,118.61 1412.33,118.61 1412.33,118.61 C1412.33,118.61 1412.33,172.15 1412.33,172.15 C1412.33,172.15 1354.55,172.15 1354.55,172.15 C1354.55,172.15 1354.55,330.53 1354.55,330.53 C1354.55,345.37 1357.37,356.32 1363.01,363.36 C1368.64,370.41 1377.38,373.93 1389.22,373.93 C1394.86,373.93 1403.69,372.62 1415.71,369.98 C1415.71,369.98 1415.71,419.02 1415.71,419.02z "/><path id="_R_G_L_0_G_D_5_P_0" fill="#000000" fill-opacity="1" fill-rule="nonzero" d=" M1516.91 286.29 C1516.91,315.97 1522.4,338.38 1533.4,353.5 C1544.39,368.62 1560.03,376.18 1580.32,376.18 C1594.23,376.18 1605.64,373.13 1614.57,367.02 C1623.49,360.92 1629.74,351.86 1633.31,339.83 C1633.31,339.83 1708,346.31 1708,346.31 C1686.39,401.55 1642.51,429.16 1576.38,429.16 C1530.53,429.16 1495.3,415.59 1470.69,388.44 C1446.07,361.3 1433.77,321.7 1433.77,269.66 C1433.77,219.31 1446.26,180.61 1471.25,153.55 C1496.24,126.5 1531.66,112.97 1577.51,112.97 C1621.28,112.97 1654.73,127.49 1677.84,156.51 C1700.95,185.54 1712.51,228.05 1712.51,284.03 C1712.51,284.03 1712.51,286.29 1712.51,286.29 C1712.51,286.29 1516.91,286.29 1516.91,286.29z  M1635.85 236.69 C1634.34,212.08 1628.42,193.62 1618.09,181.31 C1607.75,169.01 1593.85,162.85 1576.38,162.85 C1557.78,162.85 1543.44,169.34 1533.4,182.3 C1523.34,195.26 1518.04,213.4 1517.47,236.69 C1517.47,236.69 1635.85,236.69 1635.85,236.69z "/><path id="_R_G_L_0_G_D_6_P_0" fill="#000000" fill-opacity="1" fill-rule="nonzero" d=" M1840.2 273.89 C1840.2,273.89 1840.2,423.53 1840.2,423.53 C1840.2,423.53 1761,423.53 1761,423.53 C1761,423.53 1761,190.19 1761,190.19 C1761,173.47 1760.76,159.52 1760.29,148.34 C1759.82,137.17 1759.31,127.25 1758.74,118.61 C1758.74,118.61 1834.28,118.61 1834.28,118.61 C1834.65,120.3 1835.03,124.06 1835.41,129.88 C1835.77,135.71 1836.15,142.24 1836.53,149.47 C1836.9,156.7 1837.24,163.52 1837.52,169.9 C1837.8,176.29 1837.94,180.89 1837.94,183.71 C1837.94,183.71 1839.07,183.71 1839.07,183.71 C1846.58,162.67 1853.44,147.54 1859.64,138.34 C1865.65,129.51 1872.79,123.03 1881.06,118.89 C1889.32,114.76 1899.67,112.69 1912.07,112.69 C1922.21,112.69 1930.39,114.1 1936.59,116.92 C1936.59,116.92 1936.59,183.14 1936.59,183.14 C1923.99,180.33 1912.72,178.92 1902.77,178.92 C1883.04,178.92 1867.68,186.91 1856.69,202.87 C1845.69,218.84 1840.2,242.51 1840.2,273.89z "/><path id="_R_G_L_0_G_D_7_P_0" fill="#000000" fill-opacity="1" fill-rule="nonzero" d=" M2231.12 334.48 C2231.12,363.97 2219.05,387.13 2194.91,403.94 C2170.76,420.76 2137.36,429.16 2094.71,429.16 C2052.81,429.16 2020.73,422.54 1998.46,409.29 C1976.19,396.05 1961.4,375.44 1954.07,347.44 C1954.07,347.44 2023.69,337.01 2023.69,337.01 C2027.63,351.48 2034.44,361.72 2044.12,367.73 C2053.79,373.75 2070.65,376.75 2094.71,376.75 C2116.88,376.75 2133.04,373.93 2143.19,368.29 C2153.33,362.66 2158.41,353.83 2158.41,341.8 C2158.41,332.04 2154.32,324.29 2146.15,318.55 C2137.97,312.83 2124.11,307.99 2104.57,304.04 C2089.73,301.04 2076.43,298.12 2064.69,295.3 C2052.95,292.49 2042.89,289.72 2034.54,286.99 C2026.17,284.27 2019.36,281.69 2014.1,279.24 C1998.5,271.54 1986.62,261.68 1978.45,249.65 C1970.28,237.63 1966.19,222.79 1966.19,205.13 C1966.19,176.01 1977.41,153.32 1999.87,137.07 C2022.32,120.82 2054.12,112.69 2095.27,112.69 C2131.53,112.69 2160.7,119.74 2182.79,133.83 C2204.86,147.92 2218.62,168.31 2224.08,194.98 C2224.08,194.98 2153.9,202.31 2153.9,202.31 C2151.64,189.91 2146.1,180.66 2137.27,174.55 C2128.43,168.45 2114.44,165.39 2095.27,165.39 C2076.48,165.39 2062.39,167.79 2053,172.58 C2043.6,177.37 2038.9,185.4 2038.9,196.67 C2038.9,205.51 2042.52,212.5 2049.76,217.67 C2056.99,222.84 2069.15,227.11 2086.25,230.49 C2110.11,235.38 2131.3,240.4 2149.81,245.57 C2168.31,250.74 2183.21,256.89 2194.48,264.02 C2205.57,271.17 2214.44,280.33 2221.12,291.5 C2227.78,302.68 2231.12,317 2231.12,334.48z "/></g></g><g id="time_group"/></svg>