<svg xmlns="http://www.w3.org/2000/svg" xmlns:xlink="http://www.w3.org/1999/xlink" preserveAspectRatio="xMidYMid meet" width="276" height="140" viewBox="0 0 276 140" style="width:100%;height:100%"><defs><animateMotion repeatCount="indefinite" dur="7.9s" begin="0s" xlink:href="#_R_G_L_2_G" fill="freeze" keyTimes="0;0.0590717;1" path="M106.25 92.5 C106.25,85 106.25,55 106.25,47.5 C106.25,47.5 106.25,47.5 106.25,47.5 " keyPoints="0;1;1" keySplines="0.333 0 0.667 1;0 0 0 0" calcMode="spline"/><animateTransform repeatCount="indefinite" dur="7.9s" begin="0s" xlink:href="#_R_G_L_2_G" fill="freeze" attributeName="transform" from="0.16438 0.16438" to="0.16438 0.16438" type="scale" additive="sum" keyTimes="0;1" values="0.16438 0.16438;0.16438 0.16438" keySplines="0 0 1 1" calcMode="spline"/><animateTransform repeatCount="indefinite" dur="7.9s" begin="0s" xlink:href="#_R_G_L_2_G" fill="freeze" attributeName="transform" from="-620.5 -270" to="-620.5 -270" type="translate" additive="sum" keyTimes="0;1" values="-620.5 -270;-620.5 -270" keySplines="0 0 1 1" calcMode="spline"/><animate attributeType="XML" attributeName="opacity" dur="8s" from="0" to="1" xlink:href="#time_group"/></defs><g id="_R_G"><g id="_R_G_L_2_G"><path id="_R_G_L_2_G_D_0_P_0" fill="#c1c1c1" fill-opacity="1" fill-rule="nonzero" d=" M81.85 419.28 C81.85,419.28 0.25,419.28 0.25,419.28 C0.25,419.28 0.25,333.16 0.25,333.16 C0.25,333.16 81.85,333.16 81.85,333.16 C81.85,333.16 81.85,419.28 81.85,419.28z "/><path id="_R_G_L_2_G_D_1_P_0" fill="#c1c1c1" fill-opacity="1" fill-rule="nonzero" d=" M243.66 167.41 C243.66,167.41 243.66,419.28 243.66,419.28 C243.66,419.28 164.6,419.28 164.6,419.28 C164.6,419.28 164.6,167.41 164.6,167.41 C164.6,167.41 119.98,167.41 119.98,167.41 C119.98,167.41 119.98,113.76 119.98,113.76 C119.98,113.76 164.6,113.76 164.6,113.76 C164.6,113.76 164.6,81.85 164.6,81.85 C164.6,54.18 171.94,33.67 186.62,20.3 C201.3,6.94 223.61,0.25 253.54,0.25 C268.97,0.25 285.73,1.76 303.8,4.77 C303.8,4.77 303.8,55.88 303.8,55.88 C296.27,54.18 288.55,53.33 280.65,53.33 C267.09,53.33 257.54,56.02 251.99,61.38 C246.43,66.75 243.66,76.21 243.66,89.76 C243.66,89.76 243.66,113.76 243.66,113.76 C243.66,113.76 303.8,113.76 303.8,113.76 C303.8,113.76 303.8,167.41 303.8,167.41 C303.8,167.41 243.66,167.41 243.66,167.41z "/><path id="_R_G_L_2_G_D_2_P_0" fill="#c1c1c1" fill-opacity="1" fill-rule="nonzero" d=" M402.07 424.92 C372.52,424.92 349.46,416.88 332.9,400.78 C316.33,384.69 308.05,362.05 308.05,332.87 C308.05,301.25 318.35,277.25 338.97,260.87 C359.58,244.49 389.46,235.93 428.62,235.17 C428.62,235.17 494.41,234.05 494.41,234.05 C494.41,234.05 494.41,218.52 494.41,218.52 C494.41,198.56 490.92,183.74 483.96,174.04 C476.99,164.35 465.61,159.5 449.79,159.5 C435.11,159.5 424.33,162.85 417.46,169.52 C410.59,176.21 406.31,187.27 404.62,202.7 C404.62,202.7 321.88,198.75 321.88,198.75 C332.23,138.32 376,108.11 453.18,108.11 C491.77,108.11 521.51,117.62 542.41,136.63 C563.3,155.64 573.75,182.66 573.75,217.67 C573.75,217.67 573.75,328.92 573.75,328.92 C573.75,346.05 575.68,357.86 579.54,364.36 C583.4,370.85 589.85,374.1 598.88,374.1 C604.9,374.1 610.74,373.53 616.39,372.4 C616.39,372.4 616.39,415.32 616.39,415.32 C606.6,417.77 598.22,419.6 591.26,420.83 C584.29,422.05 575.73,422.66 565.56,422.66 C545.61,422.66 530.88,417.77 521.37,407.98 C511.87,398.19 506.17,383.79 504.29,364.78 C504.29,364.78 502.6,364.78 502.6,364.78 C491.49,384.73 477.56,399.75 460.81,409.82 C444.05,419.88 424.47,424.92 402.07,424.92z  M494.41 277.81 C494.41,277.81 453.75,278.38 453.75,278.38 C435.11,279.32 422.03,281.3 414.5,284.31 C406.78,287.69 400.9,292.78 396.85,299.55 C392.8,306.33 390.78,315.37 390.78,326.66 C390.78,341.16 394.12,351.93 400.8,358.99 C407.48,366.05 416.38,369.58 427.49,369.58 C439.91,369.58 451.3,366.19 461.65,359.41 C471.82,352.64 479.82,343.28 485.65,331.32 C491.49,319.37 494.41,306.71 494.41,293.34 C494.41,293.34 494.41,277.81 494.41,277.81z "/><path id="_R_G_L_2_G_D_3_P_0" fill="#c1c1c1" fill-opacity="1" fill-rule="nonzero" d=" M624.87 266.8 C624.87,216.35 635.18,177.25 655.79,149.48 C676.4,121.71 705.44,107.83 742.9,107.83 C765.11,107.83 783.88,112.4 799.23,121.52 C814.57,130.66 826.57,144.44 835.23,162.89 C835.23,157.06 835.46,150.7 835.94,143.83 C836.4,136.96 837.02,130.7 837.77,125.05 C838.52,119.41 839.08,115.64 839.46,113.76 C839.46,113.76 915.7,113.76 915.7,113.76 C915.14,123.92 914.71,134.84 914.43,146.51 C914.15,158.19 914.01,170.7 914.01,184.07 C914.01,184.07 914.01,539.28 914.01,539.28 C914.01,539.28 835.23,539.28 835.23,539.28 C835.23,539.28 835.23,412.22 835.23,412.22 C835.23,412.22 836.64,368.45 836.64,368.45 C836.64,368.45 836.08,368.45 836.08,368.45 C827.42,387.28 814.76,401.39 798.1,410.8 C781.44,420.22 760.87,424.92 736.4,424.92 C700.83,424.92 673.34,411.04 653.95,383.27 C634.56,355.51 624.87,316.68 624.87,266.8z  M835.79 265.1 C835.79,232.54 830.33,207.27 819.42,189.29 C808.5,171.32 792.4,162.32 771.13,162.32 C750.05,162.32 734.19,171.03 723.56,188.44 C712.92,205.86 707.6,231.98 707.6,266.8 C707.6,301.44 712.83,327.41 723.27,344.73 C733.72,362.05 749.48,370.71 770.57,370.71 C791.27,370.71 807.32,361.53 818.71,343.18 C830.1,324.82 835.79,298.8 835.79,265.1z "/><path id="_R_G_L_2_G_D_4_P_0" fill="#c1c1c1" fill-opacity="1" fill-rule="nonzero" d=" M1240.71 330.05 C1240.71,359.6 1228.62,382.81 1204.43,399.65 C1180.24,416.5 1146.78,424.92 1104.05,424.92 C1062.07,424.92 1029.93,418.29 1007.62,405.02 C985.32,391.74 970.49,371.09 963.15,343.04 C963.15,343.04 1032.89,332.59 1032.89,332.59 C1036.85,347.09 1043.67,357.35 1053.37,363.37 C1063.06,369.4 1079.95,372.4 1104.05,372.4 C1126.26,372.4 1142.45,369.58 1152.62,363.93 C1162.78,358.29 1167.86,349.44 1167.86,337.39 C1167.86,327.6 1163.77,319.84 1155.58,314.1 C1147.39,308.36 1133.51,303.51 1113.93,299.55 C1099.06,296.54 1085.74,293.63 1073.98,290.8 C1062.21,287.98 1052.14,285.2 1043.77,282.47 C1035.39,279.75 1028.56,277.15 1023.29,274.71 C1007.67,266.99 995.76,257.11 987.58,245.06 C979.39,233.01 975.29,218.14 975.29,200.44 C975.29,171.27 986.54,148.54 1009.04,132.25 C1031.53,115.97 1063.39,107.83 1104.61,107.83 C1140.94,107.83 1170.17,114.89 1192.29,129.01 C1214.41,143.12 1228.19,163.55 1233.65,190.28 C1233.65,190.28 1163.35,197.62 1163.35,197.62 C1161.09,185.2 1155.53,175.93 1146.69,169.81 C1137.84,163.69 1123.82,160.63 1104.61,160.63 C1085.79,160.63 1071.67,163.03 1062.26,167.83 C1052.85,172.63 1048.14,180.68 1048.14,191.97 C1048.14,200.82 1051.76,207.83 1059.01,213.01 C1066.26,218.19 1078.45,222.47 1095.58,225.86 C1119.48,230.75 1140.71,235.79 1159.25,240.96 C1177.79,246.14 1192.71,252.31 1204.01,259.46 C1215.11,266.61 1224.01,275.79 1230.69,286.99 C1237.37,298.19 1240.71,312.54 1240.71,330.05z "/></g><g id="_R_G_L_1_G" transform=" translate(136.75, 90.5) scale(0.19168, 0.15007) translate(-738.5, -336.5)"><path id="_R_G_L_1_G_D_0_P_0" fill="#ffffff" fill-opacity="1" fill-rule="nonzero" d=" M0.25 672.33 C0.25,672.33 1476.59,672.33 1476.59,672.33 C1476.59,672.33 1476.59,0.25 1476.59,0.25 C1476.59,0.25 0.25,0.25 0.25,0.25 C0.25,0.25 0.25,672.33 0.25,672.33z "/></g><g id="_R_G_L_0_G" transform=" translate(105, 93.5) scale(0.16277, 0.16277) translate(-620.5, -270)"><path id="_R_G_L_0_G_D_0_P_0" fill="#000000" fill-opacity="1" fill-rule="nonzero" d=" M81.85 419.28 C81.85,419.28 0.25,419.28 0.25,419.28 C0.25,419.28 0.25,333.16 0.25,333.16 C0.25,333.16 81.85,333.16 81.85,333.16 C81.85,333.16 81.85,419.28 81.85,419.28z "/><path id="_R_G_L_0_G_D_1_P_0" fill="#000000" fill-opacity="1" fill-rule="nonzero" d=" M243.66 167.41 C243.66,167.41 243.66,419.28 243.66,419.28 C243.66,419.28 164.6,419.28 164.6,419.28 C164.6,419.28 164.6,167.41 164.6,167.41 C164.6,167.41 119.98,167.41 119.98,167.41 C119.98,167.41 119.98,113.76 119.98,113.76 C119.98,113.76 164.6,113.76 164.6,113.76 C164.6,113.76 164.6,81.85 164.6,81.85 C164.6,54.18 171.94,33.67 186.62,20.3 C201.3,6.93 223.61,0.25 253.54,0.25 C268.97,0.25 285.73,1.76 303.8,4.77 C303.8,4.77 303.8,55.88 303.8,55.88 C296.27,54.18 288.55,53.33 280.65,53.33 C267.09,53.33 257.54,56.02 251.99,61.38 C246.43,66.75 243.66,76.21 243.66,89.76 C243.66,89.76 243.66,113.76 243.66,113.76 C243.66,113.76 303.8,113.76 303.8,113.76 C303.8,113.76 303.8,167.41 303.8,167.41 C303.8,167.41 243.66,167.41 243.66,167.41z "/><path id="_R_G_L_0_G_D_2_P_0" fill="#000000" fill-opacity="1" fill-rule="nonzero" d=" M402.07 424.92 C372.52,424.92 349.46,416.88 332.9,400.78 C316.33,384.69 308.05,362.05 308.05,332.87 C308.05,301.25 318.35,277.25 338.97,260.87 C359.58,244.49 389.46,235.93 428.62,235.18 C428.62,235.18 494.41,234.05 494.41,234.05 C494.41,234.05 494.41,218.52 494.41,218.52 C494.41,198.56 490.92,183.74 483.96,174.04 C476.99,164.35 465.61,159.5 449.79,159.5 C435.11,159.5 424.33,162.85 417.46,169.53 C410.59,176.21 406.31,187.27 404.62,202.7 C404.62,202.7 321.88,198.75 321.88,198.75 C332.23,138.33 376,108.11 453.18,108.11 C491.77,108.11 521.51,117.62 542.41,136.63 C563.3,155.65 573.75,182.66 573.75,217.67 C573.75,217.67 573.75,328.92 573.75,328.92 C573.75,346.05 575.68,357.86 579.54,364.36 C583.4,370.85 589.85,374.1 598.88,374.1 C604.9,374.1 610.74,373.53 616.39,372.4 C616.39,372.4 616.39,415.32 616.39,415.32 C606.6,417.77 598.22,419.6 591.26,420.83 C584.29,422.05 575.73,422.66 565.56,422.66 C545.61,422.66 530.88,417.77 521.37,407.98 C511.87,398.19 506.17,383.79 504.29,364.78 C504.29,364.78 502.6,364.78 502.6,364.78 C491.49,384.73 477.56,399.75 460.81,409.82 C444.05,419.88 424.47,424.92 402.07,424.92z  M494.41 277.81 C494.41,277.81 453.75,278.38 453.75,278.38 C435.11,279.32 422.03,281.3 414.5,284.31 C406.78,287.7 400.9,292.78 396.85,299.55 C392.8,306.33 390.78,315.37 390.78,326.66 C390.78,341.16 394.12,351.93 400.8,358.99 C407.48,366.05 416.38,369.58 427.49,369.58 C439.91,369.58 451.3,366.19 461.65,359.42 C471.82,352.64 479.82,343.28 485.65,331.32 C491.49,319.37 494.41,306.71 494.41,293.34 C494.41,293.34 494.41,277.81 494.41,277.81z "/><path id="_R_G_L_0_G_D_3_P_0" fill="#000000" fill-opacity="1" fill-rule="nonzero" d=" M624.87 266.8 C624.87,216.36 635.18,177.25 655.79,149.48 C676.4,121.71 705.44,107.83 742.9,107.83 C765.11,107.83 783.88,112.4 799.23,121.53 C814.57,130.66 826.57,144.45 835.23,162.89 C835.23,157.06 835.46,150.7 835.94,143.83 C836.4,136.96 837.02,130.7 837.77,125.06 C838.52,119.41 839.08,115.64 839.46,113.76 C839.46,113.76 915.7,113.76 915.7,113.76 C915.14,123.93 914.71,134.84 914.43,146.51 C914.15,158.19 914.01,170.7 914.01,184.07 C914.01,184.07 914.01,539.28 914.01,539.28 C914.01,539.28 835.23,539.28 835.23,539.28 C835.23,539.28 835.23,412.22 835.23,412.22 C835.23,412.22 836.64,368.45 836.64,368.45 C836.64,368.45 836.08,368.45 836.08,368.45 C827.42,387.28 814.76,401.39 798.1,410.81 C781.44,420.22 760.87,424.92 736.4,424.92 C700.83,424.92 673.34,411.04 653.95,383.28 C634.56,355.51 624.87,316.69 624.87,266.8z  M835.79 265.11 C835.79,232.54 830.33,207.27 819.42,189.29 C808.5,171.32 792.4,162.33 771.13,162.33 C750.05,162.33 734.19,171.04 723.56,188.45 C712.92,205.86 707.6,231.98 707.6,266.8 C707.6,301.44 712.83,327.42 723.27,344.73 C733.72,362.05 749.48,370.71 770.57,370.71 C791.27,370.71 807.32,361.53 818.71,343.18 C830.1,324.83 835.79,298.8 835.79,265.11z "/><path id="_R_G_L_0_G_D_4_P_0" fill="#000000" fill-opacity="1" fill-rule="nonzero" d=" M1240.71 330.05 C1240.71,359.61 1228.61,382.81 1204.43,399.65 C1180.24,416.5 1146.78,424.92 1104.05,424.92 C1062.07,424.92 1029.93,418.29 1007.62,405.02 C985.32,391.75 970.49,371.09 963.15,343.04 C963.15,343.04 1032.89,332.59 1032.89,332.59 C1036.85,347.09 1043.67,357.35 1053.37,363.37 C1063.06,369.4 1079.95,372.4 1104.05,372.4 C1126.26,372.4 1142.45,369.58 1152.62,363.93 C1162.78,358.29 1167.86,349.44 1167.86,337.39 C1167.86,327.61 1163.77,319.84 1155.58,314.1 C1147.39,308.36 1133.51,303.51 1113.93,299.56 C1099.06,296.55 1085.74,293.63 1073.98,290.8 C1062.21,287.98 1052.14,285.2 1043.76,282.47 C1035.39,279.75 1028.56,277.16 1023.29,274.71 C1007.67,266.99 995.76,257.11 987.57,245.06 C979.39,233.01 975.29,218.14 975.29,200.45 C975.29,171.27 986.54,148.54 1009.03,132.26 C1031.53,115.98 1063.39,107.83 1104.61,107.83 C1140.94,107.83 1170.17,114.89 1192.29,129.01 C1214.4,143.13 1228.19,163.55 1233.65,190.28 C1233.65,190.28 1163.35,197.62 1163.35,197.62 C1161.09,185.2 1155.53,175.93 1146.69,169.81 C1137.84,163.69 1123.81,160.63 1104.61,160.63 C1085.79,160.63 1071.67,163.03 1062.26,167.83 C1052.84,172.63 1048.14,180.68 1048.14,191.98 C1048.14,200.83 1051.76,207.83 1059.01,213.01 C1066.26,218.19 1078.45,222.47 1095.58,225.86 C1119.48,230.76 1140.71,235.79 1159.25,240.97 C1177.79,246.14 1192.71,252.31 1204.01,259.46 C1215.11,266.62 1224,275.79 1230.69,286.99 C1237.37,298.19 1240.71,312.54 1240.71,330.05z "/></g></g><g id="time_group"/></svg>