<svg xmlns="http://www.w3.org/2000/svg" xmlns:xlink="http://www.w3.org/1999/xlink" preserveAspectRatio="xMidYMid meet" width="444" height="140" viewBox="0 0 444 140" style="width:100%;height:100%"><defs><animateMotion repeatCount="indefinite" dur="8s" begin="0s" xlink:href="#_R_G_L_2_G" fill="freeze" keyTimes="0;0.0583333;1" path="M221.5 84 C221.5,77.17 221.5,49.83 221.5,43 C221.5,43 221.5,43 221.5,43 " keyPoints="0;1;1" keySplines="0.333 0 0.667 1;0 0 0 0" calcMode="spline"/><animateTransform repeatCount="indefinite" dur="8s" begin="0s" xlink:href="#_R_G_L_2_G" fill="freeze" attributeName="transform" from="-217.5 -40" to="-217.5 -40" type="translate" additive="sum" keyTimes="0;1" values="-217.5 -40;-217.5 -40" keySplines="0 0 1 1" calcMode="spline"/><animate attributeType="XML" attributeName="opacity" dur="8s" from="0" to="1" xlink:href="#time_group"/></defs><g id="_R_G"><g id="_R_G_L_2_G"><path id="_R_G_L_2_G_D_0_P_0" fill="#c1c1c1" fill-opacity="1" fill-rule="nonzero" d=" M12.16 61.4 C12.16,61.4 0.25,61.4 0.25,61.4 C0.25,61.4 0.25,48.83 0.25,48.83 C0.25,48.83 12.16,48.83 12.16,48.83 C12.16,48.83 12.16,61.4 12.16,61.4z "/><path id="_R_G_L_2_G_D_1_P_0" fill="#c1c1c1" fill-opacity="1" fill-rule="nonzero" d=" M64.37 38.9 C64.37,46.35 62.88,52.1 59.9,56.15 C56.92,60.2 52.71,62.23 47.27,62.23 C40.81,62.23 36.31,59.59 33.75,54.31 C33.75,54.31 33.51,54.31 33.51,54.31 C33.67,55.14 33.75,57.64 33.75,61.81 C33.75,61.81 33.75,78.91 33.75,78.91 C33.75,78.91 22.17,78.91 22.17,78.91 C22.17,78.91 22.17,27.08 22.17,27.08 C22.17,24.96 22.15,23.05 22.09,21.35 C22.04,19.65 21.95,18.13 21.84,16.81 C21.84,16.81 33.09,16.81 33.09,16.81 C33.2,17.14 33.29,17.7 33.36,18.48 C33.43,19.27 33.49,20.15 33.53,21.14 C33.57,22.13 33.59,23.11 33.59,24.07 C33.59,24.07 33.75,24.07 33.75,24.07 C35.04,21.32 36.89,19.27 39.28,17.91 C41.67,16.55 44.58,15.87 48.01,15.87 C53.2,15.87 57.23,17.87 60.08,21.86 C62.94,25.86 64.37,31.54 64.37,38.9z  M52.3 38.9 C52.3,33.9 51.53,30.15 50.01,27.65 C48.48,25.15 46.18,23.9 43.11,23.9 C40.03,23.9 37.67,25.25 36.04,27.94 C34.41,30.63 33.59,34.4 33.59,39.23 C33.59,44.04 34.41,47.76 36.04,50.38 C37.67,53 40,54.31 43.02,54.31 C46.13,54.31 48.45,53.03 49.99,50.46 C51.53,47.89 52.3,44.04 52.3,38.9z "/><path id="_R_G_L_2_G_D_2_P_0" fill="#c1c1c1" fill-opacity="1" fill-rule="nonzero" d=" M83.62 39.52 C83.62,39.52 83.62,61.4 83.62,61.4 C83.62,61.4 72.04,61.4 72.04,61.4 C72.04,61.4 72.04,27.28 72.04,27.28 C72.04,24.84 72,22.8 71.93,21.16 C71.86,19.53 71.79,18.08 71.71,16.82 C71.71,16.82 82.75,16.82 82.75,16.82 C82.81,17.06 82.86,17.61 82.92,18.46 C82.97,19.32 83.03,20.27 83.08,21.33 C83.14,22.39 83.18,23.38 83.23,24.32 C83.27,25.25 83.29,25.92 83.29,26.34 C83.29,26.34 83.45,26.34 83.45,26.34 C84.55,23.26 85.55,21.05 86.46,19.7 C87.34,18.41 88.38,17.46 89.59,16.86 C90.8,16.25 92.31,15.95 94.12,15.95 C95.61,15.95 96.8,16.16 97.71,16.57 C97.71,16.57 97.71,26.25 97.71,26.25 C95.87,25.84 94.22,25.63 92.76,25.63 C89.88,25.63 87.63,26.8 86.03,29.14 C84.42,31.47 83.62,34.93 83.62,39.52z "/><path id="_R_G_L_2_G_D_3_P_0" fill="#c1c1c1" fill-opacity="1" fill-rule="nonzero" d=" M145.55 39.07 C145.55,46.29 143.55,51.96 139.54,56.07 C135.53,60.17 129.98,62.23 122.89,62.23 C115.94,62.23 110.49,60.17 106.53,56.05 C102.57,51.93 100.6,46.27 100.6,39.07 C100.6,31.9 102.57,26.26 106.53,22.15 C110.49,18.05 116.02,15.99 123.14,15.99 C130.42,15.99 135.97,17.98 139.8,21.95 C143.64,25.92 145.55,31.62 145.55,39.07z  M133.44 39.07 C133.44,33.77 132.57,29.92 130.84,27.53 C129.11,25.14 126.6,23.95 123.3,23.95 C119.78,23.95 117.15,25.2 115.39,27.72 C113.63,30.23 112.75,34.01 112.75,39.07 C112.75,44.04 113.61,47.83 115.33,50.42 C117.04,53.02 119.52,54.32 122.77,54.32 C126.34,54.32 129.01,53.04 130.78,50.5 C132.55,47.96 133.44,44.15 133.44,39.07z "/><path id="_R_G_L_2_G_D_4_P_0" fill="#c1c1c1" fill-opacity="1" fill-rule="nonzero" d=" M166.65 24.65 C166.65,24.65 166.65,61.4 166.65,61.4 C166.65,61.4 155.11,61.4 155.11,61.4 C155.11,61.4 155.11,24.65 155.11,24.65 C155.11,24.65 148.6,24.65 148.6,24.65 C148.6,24.65 148.6,16.82 148.6,16.82 C148.6,16.82 155.11,16.82 155.11,16.82 C155.11,16.82 155.11,12.16 155.11,12.16 C155.11,8.12 156.18,5.13 158.33,3.18 C160.47,1.23 163.73,0.25 168.09,0.25 C170.35,0.25 172.79,0.47 175.43,0.91 C175.43,0.91 175.43,8.37 175.43,8.37 C174.33,8.12 173.2,8 172.05,8 C170.07,8 168.68,8.39 167.87,9.17 C167.06,9.96 166.65,11.33 166.65,13.31 C166.65,13.31 166.65,16.82 166.65,16.82 C166.65,16.82 175.43,16.82 175.43,16.82 C175.43,16.82 175.43,24.65 175.43,24.65 C175.43,24.65 166.65,24.65 166.65,24.65z "/><path id="_R_G_L_2_G_D_5_P_0" fill="#c1c1c1" fill-opacity="1" fill-rule="nonzero" d=" M189.03 41.33 C189.03,45.68 189.83,48.95 191.44,51.16 C193.05,53.37 195.33,54.48 198.3,54.48 C200.33,54.48 202,54.03 203.31,53.14 C204.61,52.25 205.53,50.92 206.05,49.16 C206.05,49.16 216.97,50.11 216.97,50.11 C213.81,58.19 207.39,62.23 197.72,62.23 C191.02,62.23 185.87,60.24 182.27,56.27 C178.67,52.3 176.87,46.51 176.87,38.9 C176.87,31.54 178.7,25.88 182.35,21.93 C186.01,17.97 191.19,15.99 197.89,15.99 C204.29,15.99 209.18,18.11 212.56,22.36 C215.94,26.6 217.63,32.82 217.63,41 C217.63,41 217.63,41.33 217.63,41.33 C217.63,41.33 189.03,41.33 189.03,41.33z  M206.42 34.08 C206.2,30.48 205.33,27.78 203.82,25.98 C202.31,24.19 200.28,23.29 197.72,23.29 C195,23.29 192.91,24.23 191.44,26.13 C189.97,28.03 189.19,30.68 189.11,34.08 C189.11,34.08 206.42,34.08 206.42,34.08z "/><path id="_R_G_L_2_G_D_6_P_0" fill="#c1c1c1" fill-opacity="1" fill-rule="nonzero" d=" M262.3 48.38 C262.3,52.69 260.53,56.08 257,58.54 C253.47,61 248.59,62.23 242.35,62.23 C236.23,62.23 231.54,61.26 228.28,59.32 C225.03,57.38 222.86,54.37 221.79,50.28 C221.79,50.28 231.97,48.75 231.97,48.75 C232.54,50.87 233.54,52.36 234.96,53.24 C236.37,54.12 238.84,54.56 242.35,54.56 C245.59,54.56 247.96,54.15 249.44,53.33 C250.92,52.5 251.67,51.21 251.67,49.45 C251.67,48.02 251.07,46.89 249.87,46.05 C248.68,45.21 246.65,44.51 243.79,43.93 C241.62,43.49 239.68,43.06 237.96,42.65 C236.25,42.24 234.78,41.84 233.56,41.44 C232.33,41.04 231.34,40.66 230.57,40.3 C228.29,39.18 226.55,37.74 225.36,35.98 C224.16,34.22 223.56,32.05 223.56,29.47 C223.56,25.21 225.2,21.89 228.49,19.51 C231.77,17.14 236.42,15.95 242.44,15.95 C247.74,15.95 252,16.98 255.23,19.04 C258.46,21.1 260.47,24.08 261.27,27.98 C261.27,27.98 251.01,29.05 251.01,29.05 C250.68,27.24 249.87,25.89 248.58,25 C247.28,24.1 245.24,23.66 242.44,23.66 C239.69,23.66 237.63,24.01 236.25,24.71 C234.88,25.41 234.19,26.58 234.19,28.23 C234.19,29.52 234.72,30.54 235.78,31.3 C236.84,32.06 238.62,32.68 241.12,33.17 C244.61,33.89 247.7,34.62 250.41,35.38 C253.11,36.14 255.29,37.04 256.94,38.08 C258.56,39.12 259.86,40.46 260.83,42.1 C261.81,43.73 262.3,45.83 262.3,48.38z "/><path id="_R_G_L_2_G_D_7_P_0" fill="#c1c1c1" fill-opacity="1" fill-rule="nonzero" d=" M312.33 39.07 C312.33,46.29 310.32,51.96 306.31,56.07 C302.3,60.17 296.75,62.23 289.66,62.23 C282.71,62.23 277.26,60.17 273.3,56.05 C269.35,51.93 267.37,46.27 267.37,39.07 C267.37,31.9 269.35,26.26 273.3,22.15 C277.26,18.05 282.79,15.99 289.91,15.99 C297.19,15.99 302.74,17.98 306.58,21.95 C310.41,25.92 312.33,31.62 312.33,39.07z  M300.21 39.07 C300.21,33.77 299.35,29.92 297.61,27.53 C295.88,25.14 293.37,23.95 290.07,23.95 C286.56,23.95 283.92,25.2 282.16,27.72 C280.4,30.23 279.52,34.01 279.52,39.07 C279.52,44.04 280.38,47.83 282.1,50.42 C283.82,53.02 286.29,54.32 289.54,54.32 C293.11,54.32 295.78,53.04 297.55,50.5 C299.32,47.96 300.21,44.15 300.21,39.07z "/><path id="_R_G_L_2_G_D_8_P_0" fill="#c1c1c1" fill-opacity="1" fill-rule="nonzero" d=" M331.41 39.52 C331.41,39.52 331.41,61.4 331.41,61.4 C331.41,61.4 319.83,61.4 319.83,61.4 C319.83,61.4 319.83,27.28 319.83,27.28 C319.83,24.84 319.79,22.8 319.72,21.16 C319.65,19.53 319.58,18.08 319.5,16.82 C319.5,16.82 330.54,16.82 330.54,16.82 C330.59,17.06 330.65,17.61 330.7,18.46 C330.76,19.32 330.81,20.27 330.87,21.33 C330.92,22.39 330.97,23.38 331.01,24.32 C331.06,25.25 331.08,25.92 331.08,26.34 C331.08,26.34 331.24,26.34 331.24,26.34 C332.34,23.26 333.34,21.05 334.25,19.7 C335.13,18.41 336.17,17.46 337.38,16.86 C338.59,16.25 340.1,15.95 341.91,15.95 C343.4,15.95 344.59,16.16 345.5,16.57 C345.5,16.57 345.5,26.25 345.5,26.25 C343.66,25.84 342.01,25.63 340.55,25.63 C337.67,25.63 335.42,26.8 333.82,29.14 C332.21,31.47 331.41,34.93 331.41,39.52z "/><path id="_R_G_L_2_G_D_9_P_0" fill="#c1c1c1" fill-opacity="1" fill-rule="nonzero" d=" M360.54 41.33 C360.54,45.68 361.34,48.95 362.95,51.16 C364.56,53.37 366.84,54.48 369.81,54.48 C371.84,54.48 373.51,54.03 374.82,53.14 C376.12,52.25 377.04,50.92 377.56,49.16 C377.56,49.16 388.48,50.11 388.48,50.11 C385.32,58.19 378.9,62.23 369.23,62.23 C362.53,62.23 357.38,60.24 353.78,56.27 C350.18,52.3 348.38,46.51 348.38,38.9 C348.38,31.54 350.21,25.88 353.86,21.93 C357.52,17.97 362.7,15.99 369.4,15.99 C375.8,15.99 380.69,18.11 384.07,22.36 C387.45,26.6 389.14,32.82 389.14,41 C389.14,41 389.14,41.33 389.14,41.33 C389.14,41.33 360.54,41.33 360.54,41.33z  M377.93 34.08 C377.71,30.48 376.84,27.78 375.33,25.98 C373.82,24.19 371.79,23.29 369.23,23.29 C366.52,23.29 364.42,24.23 362.95,26.13 C361.48,28.03 360.7,30.68 360.62,34.08 C360.62,34.08 377.93,34.08 377.93,34.08z "/><path id="_R_G_L_2_G_D_10_P_0" fill="#c1c1c1" fill-opacity="1" fill-rule="nonzero" d=" M433.81 48.38 C433.81,52.69 432.04,56.08 428.51,58.54 C424.98,61 420.1,62.23 413.86,62.23 C407.74,62.23 403.05,61.26 399.79,59.32 C396.54,57.38 394.37,54.37 393.3,50.28 C393.3,50.28 403.48,48.75 403.48,48.75 C404.06,50.87 405.05,52.36 406.47,53.24 C407.88,54.12 410.35,54.56 413.86,54.56 C417.1,54.56 419.47,54.15 420.95,53.33 C422.43,52.5 423.18,51.21 423.18,49.45 C423.18,48.02 422.58,46.89 421.38,46.05 C420.19,45.21 418.16,44.51 415.3,43.93 C413.13,43.49 411.19,43.06 409.48,42.65 C407.76,42.24 406.29,41.84 405.07,41.44 C403.84,41.04 402.85,40.66 402.08,40.3 C399.8,39.18 398.06,37.74 396.86,35.98 C395.67,34.22 395.07,32.05 395.07,29.47 C395.07,25.21 396.71,21.89 400,19.51 C403.28,17.14 407.93,15.95 413.95,15.95 C419.25,15.95 423.51,16.98 426.74,19.04 C429.97,21.1 431.98,24.08 432.78,27.98 C432.78,27.98 422.52,29.05 422.52,29.05 C422.19,27.24 421.38,25.89 420.09,25 C418.79,24.1 416.75,23.66 413.95,23.66 C411.2,23.66 409.14,24.01 407.77,24.71 C406.39,25.41 405.7,26.58 405.7,28.23 C405.7,29.52 406.23,30.54 407.29,31.3 C408.35,32.06 410.13,32.68 412.63,33.17 C416.12,33.89 419.21,34.62 421.92,35.38 C424.63,36.14 426.8,37.04 428.45,38.08 C430.07,39.12 431.37,40.46 432.34,42.1 C433.32,43.73 433.81,45.83 433.81,48.38z "/></g><g id="_R_G_L_1_G" transform=" translate(222, 91.688) scale(1, 1.0102) translate(-222, -49)"><path id="_R_G_L_1_G_D_0_P_0" fill="#ffffff" fill-opacity="1" fill-rule="nonzero" d=" M0.25 97.57 C0.25,97.57 443.36,97.57 443.36,97.57 C443.36,97.57 443.36,0.25 443.36,0.25 C443.36,0.25 0.25,0.25 0.25,0.25 C0.25,0.25 0.25,97.57 0.25,97.57z "/></g><g id="_R_G_L_0_G" transform=" translate(222, 95.75) translate(-217.5, -40)"><path id="_R_G_L_0_G_D_0_P_0" fill="#000000" fill-opacity="1" fill-rule="nonzero" d=" M12.16 61.4 C12.16,61.4 0.25,61.4 0.25,61.4 C0.25,61.4 0.25,48.83 0.25,48.83 C0.25,48.83 12.16,48.83 12.16,48.83 C12.16,48.83 12.16,61.4 12.16,61.4z "/><path id="_R_G_L_0_G_D_1_P_0" fill="#000000" fill-opacity="1" fill-rule="nonzero" d=" M64.37 38.9 C64.37,46.35 62.88,52.1 59.9,56.15 C56.92,60.2 52.71,62.22 47.27,62.22 C40.81,62.22 36.31,59.59 33.75,54.31 C33.75,54.31 33.51,54.31 33.51,54.31 C33.67,55.14 33.75,57.64 33.75,61.81 C33.75,61.81 33.75,78.91 33.75,78.91 C33.75,78.91 22.17,78.91 22.17,78.91 C22.17,78.91 22.17,27.08 22.17,27.08 C22.17,24.96 22.15,23.05 22.09,21.35 C22.04,19.65 21.95,18.13 21.84,16.81 C21.84,16.81 33.09,16.81 33.09,16.81 C33.2,17.14 33.29,17.7 33.36,18.48 C33.43,19.27 33.49,20.15 33.53,21.14 C33.57,22.13 33.59,23.11 33.59,24.07 C33.59,24.07 33.75,24.07 33.75,24.07 C35.05,21.32 36.89,19.27 39.28,17.91 C41.67,16.55 44.58,15.87 48.01,15.87 C53.2,15.87 57.23,17.87 60.08,21.86 C62.94,25.86 64.37,31.54 64.37,38.9z  M52.3 38.9 C52.3,33.9 51.54,30.15 50.01,27.65 C48.49,25.15 46.18,23.9 43.11,23.9 C40.03,23.9 37.67,25.25 36.04,27.94 C34.41,30.63 33.59,34.4 33.59,39.23 C33.59,44.04 34.41,47.76 36.04,50.38 C37.67,53 40,54.31 43.03,54.31 C46.13,54.31 48.45,53.03 49.99,50.46 C51.53,47.89 52.3,44.04 52.3,38.9z "/><path id="_R_G_L_0_G_D_2_P_0" fill="#000000" fill-opacity="1" fill-rule="nonzero" d=" M83.62 39.52 C83.62,39.52 83.62,61.4 83.62,61.4 C83.62,61.4 72.04,61.4 72.04,61.4 C72.04,61.4 72.04,27.28 72.04,27.28 C72.04,24.84 72,22.8 71.93,21.16 C71.86,19.53 71.79,18.08 71.71,16.82 C71.71,16.82 82.75,16.82 82.75,16.82 C82.81,17.06 82.86,17.61 82.92,18.46 C82.97,19.32 83.03,20.27 83.08,21.33 C83.14,22.39 83.18,23.38 83.23,24.32 C83.27,25.25 83.29,25.92 83.29,26.33 C83.29,26.33 83.45,26.33 83.45,26.33 C84.55,23.26 85.55,21.05 86.46,19.7 C87.34,18.41 88.38,17.46 89.59,16.86 C90.8,16.25 92.31,15.95 94.12,15.95 C95.61,15.95 96.8,16.16 97.71,16.57 C97.71,16.57 97.71,26.25 97.71,26.25 C95.87,25.84 94.22,25.63 92.76,25.63 C89.88,25.63 87.63,26.8 86.03,29.14 C84.42,31.47 83.62,34.93 83.62,39.52z "/><path id="_R_G_L_0_G_D_3_P_0" fill="#000000" fill-opacity="1" fill-rule="nonzero" d=" M145.55 39.07 C145.55,46.29 143.55,51.96 139.54,56.07 C135.53,60.17 129.98,62.22 122.89,62.22 C115.94,62.22 110.49,60.17 106.53,56.04 C102.57,51.92 100.6,46.27 100.6,39.07 C100.6,31.9 102.57,26.26 106.53,22.15 C110.49,18.05 116.02,15.99 123.14,15.99 C130.42,15.99 135.97,17.98 139.8,21.95 C143.64,25.92 145.55,31.62 145.55,39.07z  M133.44 39.07 C133.44,33.77 132.57,29.92 130.84,27.53 C129.11,25.14 126.6,23.94 123.3,23.94 C119.78,23.94 117.15,25.2 115.39,27.71 C113.63,30.23 112.75,34.01 112.75,39.07 C112.75,44.04 113.61,47.82 115.33,50.42 C117.04,53.02 119.52,54.31 122.77,54.31 C126.34,54.31 129.01,53.04 130.78,50.5 C132.55,47.96 133.44,44.15 133.44,39.07z "/><path id="_R_G_L_0_G_D_4_P_0" fill="#000000" fill-opacity="1" fill-rule="nonzero" d=" M166.65 24.65 C166.65,24.65 166.65,61.4 166.65,61.4 C166.65,61.4 155.11,61.4 155.11,61.4 C155.11,61.4 155.11,24.65 155.11,24.65 C155.11,24.65 148.6,24.65 148.6,24.65 C148.6,24.65 148.6,16.82 148.6,16.82 C148.6,16.82 155.11,16.82 155.11,16.82 C155.11,16.82 155.11,12.16 155.11,12.16 C155.11,8.12 156.19,5.13 158.33,3.18 C160.47,1.23 163.73,0.25 168.09,0.25 C170.35,0.25 172.79,0.47 175.43,0.91 C175.43,0.91 175.43,8.37 175.43,8.37 C174.33,8.12 173.2,8 172.05,8 C170.07,8 168.68,8.39 167.87,9.17 C167.06,9.95 166.65,11.33 166.65,13.31 C166.65,13.31 166.65,16.82 166.65,16.82 C166.65,16.82 175.43,16.82 175.43,16.82 C175.43,16.82 175.43,24.65 175.43,24.65 C175.43,24.65 166.65,24.65 166.65,24.65z "/><path id="_R_G_L_0_G_D_5_P_0" fill="#000000" fill-opacity="1" fill-rule="nonzero" d=" M189.03 41.33 C189.03,45.67 189.83,48.95 191.44,51.16 C193.05,53.37 195.33,54.48 198.3,54.48 C200.33,54.48 202,54.03 203.31,53.14 C204.61,52.25 205.53,50.92 206.05,49.16 C206.05,49.16 216.97,50.11 216.97,50.11 C213.81,58.19 207.39,62.22 197.72,62.22 C191.02,62.22 185.87,60.24 182.27,56.27 C178.67,52.3 176.87,46.51 176.87,38.9 C176.87,31.54 178.7,25.88 182.35,21.92 C186.01,17.97 191.19,15.99 197.89,15.99 C204.29,15.99 209.18,18.11 212.56,22.36 C215.94,26.6 217.63,32.82 217.63,41 C217.63,41 217.63,41.33 217.63,41.33 C217.63,41.33 189.03,41.33 189.03,41.33z  M206.42 34.08 C206.2,30.48 205.33,27.78 203.82,25.98 C202.31,24.18 200.28,23.28 197.72,23.28 C195,23.28 192.91,24.23 191.44,26.13 C189.97,28.02 189.19,30.67 189.11,34.08 C189.11,34.08 206.42,34.08 206.42,34.08z "/><path id="_R_G_L_0_G_D_6_P_0" fill="#000000" fill-opacity="1" fill-rule="nonzero" d=" M262.3 48.38 C262.3,52.69 260.53,56.08 257,58.54 C253.47,61 248.59,62.23 242.35,62.23 C236.23,62.23 231.54,61.26 228.28,59.32 C225.03,57.38 222.86,54.37 221.79,50.28 C221.79,50.28 231.97,48.75 231.97,48.75 C232.55,50.87 233.54,52.37 234.96,53.24 C236.37,54.12 238.84,54.56 242.35,54.56 C245.59,54.56 247.96,54.15 249.44,53.33 C250.92,52.5 251.67,51.21 251.67,49.45 C251.67,48.02 251.07,46.89 249.87,46.05 C248.68,45.22 246.65,44.51 243.8,43.93 C241.62,43.49 239.68,43.06 237.96,42.65 C236.25,42.24 234.78,41.84 233.56,41.44 C232.33,41.04 231.34,40.66 230.57,40.3 C228.29,39.18 226.55,37.74 225.36,35.98 C224.16,34.22 223.56,32.05 223.56,29.47 C223.56,25.21 225.2,21.89 228.49,19.52 C231.77,17.14 236.42,15.95 242.44,15.95 C247.74,15.95 252,16.98 255.23,19.04 C258.46,21.1 260.47,24.08 261.27,27.98 C261.27,27.98 251.01,29.05 251.01,29.05 C250.68,27.24 249.87,25.89 248.58,25 C247.28,24.1 245.24,23.66 242.44,23.66 C239.69,23.66 237.63,24.01 236.25,24.71 C234.88,25.41 234.19,26.58 234.19,28.23 C234.19,29.52 234.72,30.55 235.78,31.3 C236.84,32.06 238.62,32.68 241.12,33.17 C244.61,33.89 247.7,34.63 250.41,35.38 C253.11,36.14 255.29,37.04 256.94,38.08 C258.56,39.12 259.86,40.46 260.83,42.1 C261.81,43.73 262.3,45.83 262.3,48.38z "/><path id="_R_G_L_0_G_D_7_P_0" fill="#000000" fill-opacity="1" fill-rule="nonzero" d=" M312.32 39.07 C312.32,46.29 310.32,51.96 306.31,56.07 C302.3,60.17 296.75,62.22 289.66,62.22 C282.71,62.22 277.26,60.17 273.3,56.04 C269.34,51.92 267.37,46.27 267.37,39.07 C267.37,31.9 269.34,26.26 273.3,22.15 C277.26,18.05 282.79,15.99 289.91,15.99 C297.19,15.99 302.74,17.98 306.58,21.95 C310.41,25.92 312.32,31.62 312.32,39.07z  M300.21 39.07 C300.21,33.77 299.34,29.92 297.61,27.53 C295.88,25.14 293.37,23.94 290.07,23.94 C286.55,23.94 283.92,25.2 282.16,27.71 C280.4,30.23 279.52,34.01 279.52,39.07 C279.52,44.04 280.38,47.82 282.1,50.42 C283.81,53.02 286.29,54.31 289.54,54.31 C293.11,54.31 295.78,53.04 297.55,50.5 C299.32,47.96 300.21,44.15 300.21,39.07z "/><path id="_R_G_L_0_G_D_8_P_0" fill="#000000" fill-opacity="1" fill-rule="nonzero" d=" M331.41 39.52 C331.41,39.52 331.41,61.4 331.41,61.4 C331.41,61.4 319.83,61.4 319.83,61.4 C319.83,61.4 319.83,27.28 319.83,27.28 C319.83,24.84 319.79,22.8 319.72,21.16 C319.65,19.53 319.58,18.08 319.5,16.82 C319.5,16.82 330.54,16.82 330.54,16.82 C330.59,17.06 330.65,17.61 330.7,18.46 C330.76,19.32 330.81,20.27 330.87,21.33 C330.92,22.39 330.97,23.38 331.01,24.32 C331.06,25.25 331.08,25.92 331.08,26.33 C331.08,26.33 331.24,26.33 331.24,26.33 C332.34,23.26 333.34,21.05 334.25,19.7 C335.13,18.41 336.17,17.46 337.38,16.86 C338.59,16.25 340.1,15.95 341.91,15.95 C343.4,15.95 344.59,16.16 345.5,16.57 C345.5,16.57 345.5,26.25 345.5,26.25 C343.66,25.84 342.01,25.63 340.55,25.63 C337.67,25.63 335.42,26.8 333.82,29.14 C332.21,31.47 331.41,34.93 331.41,39.52z "/><path id="_R_G_L_0_G_D_9_P_0" fill="#000000" fill-opacity="1" fill-rule="nonzero" d=" M360.54 41.33 C360.54,45.67 361.34,48.95 362.95,51.16 C364.56,53.37 366.85,54.48 369.81,54.48 C371.85,54.48 373.51,54.03 374.82,53.14 C376.12,52.25 377.04,50.92 377.56,49.16 C377.56,49.16 388.48,50.11 388.48,50.11 C385.32,58.19 378.91,62.22 369.24,62.22 C362.53,62.22 357.38,60.24 353.78,56.27 C350.18,52.3 348.38,46.51 348.38,38.9 C348.38,31.54 350.21,25.88 353.87,21.92 C357.52,17.97 362.7,15.99 369.4,15.99 C375.8,15.99 380.69,18.11 384.07,22.36 C387.45,26.6 389.14,32.82 389.14,41 C389.14,41 389.14,41.33 389.14,41.33 C389.14,41.33 360.54,41.33 360.54,41.33z  M377.93 34.08 C377.71,30.48 376.84,27.78 375.33,25.98 C373.82,24.18 371.79,23.28 369.24,23.28 C366.52,23.28 364.42,24.23 362.95,26.13 C361.48,28.02 360.71,30.67 360.62,34.08 C360.62,34.08 377.93,34.08 377.93,34.08z "/><path id="_R_G_L_0_G_D_10_P_0" fill="#000000" fill-opacity="1" fill-rule="nonzero" d=" M433.81 48.38 C433.81,52.69 432.04,56.08 428.51,58.54 C424.98,61 420.1,62.23 413.86,62.23 C407.74,62.23 403.05,61.26 399.79,59.32 C396.54,57.38 394.37,54.37 393.3,50.28 C393.3,50.28 403.48,48.75 403.48,48.75 C404.06,50.87 405.05,52.37 406.47,53.24 C407.88,54.12 410.35,54.56 413.86,54.56 C417.1,54.56 419.47,54.15 420.95,53.33 C422.43,52.5 423.18,51.21 423.18,49.45 C423.18,48.02 422.58,46.89 421.38,46.05 C420.19,45.22 418.16,44.51 415.3,43.93 C413.13,43.49 411.19,43.06 409.48,42.65 C407.76,42.24 406.29,41.84 405.07,41.44 C403.84,41.04 402.85,40.66 402.08,40.3 C399.8,39.18 398.06,37.74 396.86,35.98 C395.67,34.22 395.07,32.05 395.07,29.47 C395.07,25.21 396.71,21.89 400,19.52 C403.28,17.14 407.93,15.95 413.95,15.95 C419.25,15.95 423.51,16.98 426.74,19.04 C429.97,21.1 431.98,24.08 432.78,27.98 C432.78,27.98 422.52,29.05 422.52,29.05 C422.19,27.24 421.38,25.89 420.09,25 C418.79,24.1 416.75,23.66 413.95,23.66 C411.2,23.66 409.14,24.01 407.77,24.71 C406.39,25.41 405.7,26.58 405.7,28.23 C405.7,29.52 406.23,30.55 407.29,31.3 C408.35,32.06 410.13,32.68 412.63,33.17 C416.12,33.89 419.21,34.63 421.92,35.38 C424.63,36.14 426.8,37.04 428.45,38.08 C430.07,39.12 431.37,40.46 432.34,42.1 C433.32,43.73 433.81,45.83 433.81,48.38z "/></g></g><g id="time_group"/></svg>